<svg width="379" height="271" viewBox="0 0 379 271" fill="none" xmlns="http://www.w3.org/2000/svg">
<path d="M226.794 2.93286C227.348 3.32678 228.456 4.33348 229.327 5.1651C230.158 5.99672 231.622 7.04719 232.611 7.52866C235.065 8.71043 235.342 9.67336 234.511 13.8752C234.155 15.7573 233.759 17.4643 233.64 17.6394C233.522 17.8583 232.849 17.2017 232.097 16.2388C230.237 13.8752 225.686 10.5488 221.728 8.71043C219.947 7.87881 218.483 7.09096 218.483 6.95965C218.483 6.47819 224.973 2.18877 225.686 2.18877C225.765 2.18877 226.279 2.53893 226.794 2.93286Z" fill="#068EB0"/>
<path d="M213.716 8.60813L240.075 26.3959L240.969 25.9018L240.075 24.6665L233.597 16.7609L232.033 13.7962L218.63 6.87876L206.791 4.90234L213.716 8.60813Z" fill="#3BB0D7" stroke="#3AB0D7"/>
<path d="M78.6215 212.921C78.5659 212.932 78.5092 212.938 78.4524 212.937L62.2544 212.664C62.0518 212.66 61.8591 212.576 61.7184 212.431C61.5778 212.285 61.5006 212.089 61.504 211.887C61.5074 211.684 61.5909 211.491 61.7364 211.35C61.8818 211.209 62.0772 211.132 62.2797 211.135L78.4778 211.408C78.6659 211.411 78.8462 211.483 78.9842 211.611C79.1223 211.739 79.2084 211.913 79.2262 212.1C79.244 212.287 79.1922 212.475 79.0806 212.626C78.969 212.777 78.8056 212.882 78.6215 212.921Z" fill="#E6E6E6"/>
<ellipse cx="171.34" cy="245.498" rx="164.179" ry="8.78552" fill="#5691AF" fill-opacity="0.19"/>
<path d="M211.717 7.22C214.013 8.57685 216.15 9.88994 216.466 10.2401C216.823 10.5903 219.395 12.1222 222.245 13.6541C228.26 16.9806 231.505 19.1253 236.769 23.2396C238.867 24.9029 240.727 26.2597 240.885 26.2597C241.004 26.2597 240.291 25.1217 239.262 23.7211L237.363 21.2262L239.46 23.4585C241.677 25.8658 241.756 26.6974 239.777 26.6974C238.075 26.6974 232.416 24.9904 231.782 24.2901C231.387 23.8087 231.031 24.3777 229.843 27.2664C227.508 33.0878 227.073 36.1954 228.418 37.5961C228.893 38.0775 229.21 38.6465 229.131 38.8654C228.814 39.697 214.606 58.2676 214.29 58.2676C214.092 58.2676 212.944 40.7475 212.944 40.2222C212.944 40.0034 212.232 38.0093 212.667 38.0093C213.577 38.0093 212.707 37.5961 215.912 35.1012L216.427 32.8252H214.883C213.656 32.8252 213.221 32.6063 212.667 31.6434C211.757 30.1115 211.757 25.5157 212.707 20.8761C213.379 17.6371 213.459 17.4621 214.092 18.1186C214.883 18.9065 216.348 19.0378 216.704 18.3812C216.862 18.1186 216.466 17.9435 215.754 17.9435C214.765 17.9435 214.488 17.7247 214.29 16.8055C214.013 15.58 214.646 12.6036 215.556 11.0279C215.991 10.2839 216.031 10.065 215.635 10.065C215.319 10.065 214.765 11.1155 214.369 12.341L213.656 14.6608L211.638 12.2535C210.53 10.9404 208.947 8.88324 208.116 7.74523C205.464 4.02481 206.058 3.93728 211.717 7.22ZM218.643 19.9132C218.841 20.8323 219.118 21.0074 220.266 21.0074C221.018 21.0074 221.651 20.7886 221.651 20.5697C221.651 20.3071 221.136 20.132 220.503 20.132C219.672 20.132 219.316 19.8694 219.158 19.1691C218.999 18.6438 218.801 18.3375 218.643 18.4688C218.524 18.6438 218.485 19.3004 218.643 19.9132ZM215.794 21.5764C215.2 22.3643 214.488 24.509 214.844 24.509C215.002 24.509 215.517 23.7211 215.991 22.7582C216.783 21.0949 216.664 20.3946 215.794 21.5764ZM213.3 27.9668C212.43 27.0038 211.915 27.0914 212.271 28.2294C212.746 29.5425 214.29 29.9364 215.873 29.1048C216.664 28.6671 217.297 28.0543 217.297 27.7479C217.297 27.2664 216.941 27.3102 215.714 28.0105L214.131 28.8859L213.3 27.9668Z" fill="#036897"/>
<path d="M76.1979 135.429C73.6809 121.958 77.6436 106.633 88.6578 98.4785C88.0336 113.368 92.6962 127.999 101.821 139.782C105.356 144.313 109.76 148.985 109.623 154.731C109.538 158.306 107.605 161.637 105.057 164.146C102.509 166.655 99.3697 168.464 96.2684 170.245L95.7857 170.996C86.6945 160.742 78.7149 148.9 76.1979 135.429Z" fill="#5691AF"/>
<path d="M88.8587 98.6847C84.2313 109.041 82.9847 120.592 85.2959 131.697C85.751 134.097 86.5816 136.41 87.7569 138.551C88.9692 140.599 90.7079 142.286 92.7924 143.435C94.7145 144.546 96.8093 145.459 98.4279 147.018C99.2446 147.828 99.8809 148.801 100.295 149.874C100.709 150.948 100.891 152.096 100.83 153.245C100.753 156.111 99.6502 158.778 98.4812 161.349C97.1832 164.204 95.7898 167.149 95.874 170.358C95.8842 170.747 95.2802 170.74 95.27 170.352C95.1235 164.768 99.1604 160.283 100.06 154.926C100.48 152.426 100.148 149.784 98.3908 147.846C96.8538 146.151 94.6946 145.208 92.7387 144.1C90.6887 143.008 88.9372 141.432 87.637 139.507C86.3565 137.433 85.4383 135.156 84.9217 132.774C83.6731 127.43 83.2726 121.922 83.7349 116.453C84.2279 110.208 85.7855 104.094 88.3404 98.3744C88.4986 98.0205 89.0159 98.3331 88.8587 98.6847Z" fill="white"/>
<path d="M84.3412 128.165C82.4253 128.3 80.5239 127.75 78.9765 126.612C77.4291 125.474 76.3365 123.824 75.8938 121.955C75.8055 121.576 76.3895 121.421 76.4779 121.8C76.8869 123.541 77.9049 125.079 79.3479 126.135C80.791 127.192 82.5642 127.698 84.3475 127.561C84.735 127.532 84.7265 128.136 84.3412 128.165Z" fill="white"/>
<path d="M91.7444 143.001C94.3452 140.06 95.7419 136.247 95.6561 132.322C95.6473 131.933 96.2512 131.939 96.26 132.328C96.3417 136.413 94.8802 140.378 92.167 143.433C91.9082 143.724 91.487 143.29 91.7444 143.001Z" fill="white"/>
<path d="M84.936 110.584C85.6882 110.686 86.454 110.6 87.1646 110.333C87.8752 110.066 88.5085 109.627 89.0075 109.055C89.2625 108.761 89.6834 109.194 89.4301 109.487C88.8758 110.116 88.1759 110.6 87.3914 110.897C86.6069 111.193 85.7617 111.293 84.9297 111.188C84.8504 111.184 84.7754 111.151 84.7199 111.094C84.6644 111.038 84.6326 110.962 84.6309 110.883C84.6321 110.803 84.6649 110.726 84.722 110.67C84.7791 110.614 84.8561 110.583 84.936 110.584Z" fill="white"/>
<path d="M133.701 109.622C133.547 109.81 133.393 109.998 133.24 110.191C131.183 112.732 129.335 115.435 127.716 118.275C127.587 118.492 127.46 118.715 127.338 118.936C123.509 125.819 120.992 133.353 119.913 141.155C119.487 144.26 119.298 147.393 119.347 150.527C119.415 154.855 119.833 159.542 118.506 163.523C118.373 163.94 118.213 164.348 118.029 164.745L96.7406 171.528C96.6845 171.519 96.6296 171.515 96.5733 171.506L95.7357 171.816C95.7219 171.654 95.711 171.486 95.6972 171.325C95.6888 171.231 95.6851 171.136 95.6767 171.043C95.6726 170.98 95.6687 170.917 95.6614 170.86C95.66 170.839 95.6588 170.818 95.6589 170.802C95.6516 170.746 95.6508 170.692 95.645 170.641C95.5817 169.703 95.5231 168.764 95.4745 167.822C95.473 167.817 95.473 167.817 95.4762 167.811C95.1108 160.635 95.3412 153.366 96.6677 146.363C96.7077 146.152 96.7459 145.937 96.7956 145.723C97.411 142.569 98.2831 139.472 99.4032 136.46C100.022 134.813 100.723 133.199 101.505 131.623C103.534 127.555 106.189 123.831 109.374 120.588C115.725 114.124 124.073 109.763 133.017 109.625C133.246 109.622 133.47 109.62 133.701 109.622Z" fill="#5691AF"/>
<path d="M133.739 109.908C123.809 115.391 115.859 123.863 111.018 134.122C109.937 136.312 109.208 138.658 108.857 141.075C108.592 143.441 108.964 145.834 109.937 148.007C110.803 150.051 111.926 152.042 112.28 154.26C112.444 155.399 112.366 156.559 112.05 157.666C111.735 158.772 111.189 159.799 110.449 160.679C108.661 162.921 106.175 164.387 103.693 165.736C100.938 167.234 98.0529 168.746 96.1878 171.359C95.9619 171.675 95.4838 171.306 95.7094 170.99C98.9543 166.444 104.877 165.294 108.821 161.557C110.662 159.814 111.988 157.505 111.751 154.9C111.544 152.621 110.388 150.568 109.494 148.506C108.514 146.4 108.065 144.086 108.185 141.767C108.412 139.34 109.049 136.969 110.071 134.756C112.292 129.737 115.288 125.098 118.95 121.01C123.103 116.321 128.028 112.377 133.512 109.348C133.851 109.161 134.076 109.722 133.739 109.908Z" fill="white"/>
<path d="M112.381 130.727C110.77 129.681 109.584 128.097 109.033 126.257C108.483 124.417 108.604 122.441 109.376 120.682C109.533 120.327 110.093 120.555 109.935 120.911C109.213 122.547 109.101 124.387 109.617 126.1C110.133 127.812 111.244 129.283 112.75 130.248C113.077 130.458 112.706 130.936 112.381 130.727Z" fill="white"/>
<path d="M109.361 147.029C113.208 146.246 116.619 144.043 118.914 140.857C119.141 140.541 119.619 140.91 119.392 141.226C116.998 144.536 113.444 146.822 109.439 147.628C109.057 147.704 108.981 147.105 109.361 147.029Z" fill="white"/>
<path d="M123.441 117.047C123.98 117.581 124.644 117.973 125.372 118.188C126.1 118.403 126.87 118.434 127.613 118.277C127.993 118.196 128.068 118.796 127.69 118.876C126.869 119.045 126.018 119.01 125.213 118.775C124.409 118.539 123.674 118.11 123.073 117.525C123.012 117.475 122.972 117.403 122.962 117.324C122.951 117.245 122.972 117.166 123.018 117.101C123.067 117.038 123.139 116.997 123.218 116.987C123.298 116.977 123.378 116.998 123.441 117.047Z" fill="white"/>
<path d="M167.139 35.9584C167.21 36.2719 167.257 36.5906 167.278 36.9114L192.238 51.3107L198.305 47.8181L204.772 56.2851L194.633 63.5118C193.814 64.0957 192.827 64.398 191.822 64.3735C190.816 64.349 189.846 63.999 189.056 63.376L163.318 43.0711C162.157 43.5011 160.892 43.5672 159.692 43.2607C158.492 42.9543 157.413 42.2897 156.6 41.3554C155.787 40.4211 155.277 39.2615 155.14 38.0306C155.002 36.7997 155.242 35.556 155.828 34.4649C156.414 33.3738 157.318 32.487 158.421 31.9224C159.523 31.3579 160.771 31.1423 161.999 31.3044C163.227 31.4666 164.377 31.9987 165.295 32.8301C166.213 33.6614 166.856 34.7525 167.139 35.9584Z" fill="#FFB6B6"/>
<path d="M192.585 49.7201C192.664 49.3528 192.821 49.0069 193.046 48.706C193.271 48.4051 193.559 48.1563 193.889 47.9766L205.412 41.698C206.947 40.5398 208.878 40.0374 210.782 40.3011C212.687 40.5647 214.409 41.5728 215.571 43.1044C216.733 44.636 217.241 46.5659 216.982 48.471C216.723 50.3761 215.72 52.1009 214.191 53.267L204.955 62.6496C204.692 62.9173 204.374 63.1251 204.022 63.2588C203.671 63.3925 203.295 63.4489 202.92 63.4243C202.546 63.3996 202.18 63.2944 201.85 63.1159C201.519 62.9373 201.231 62.6897 201.005 62.3897L193.053 51.8467C192.826 51.5468 192.667 51.2015 192.586 50.8345C192.506 50.4675 192.505 50.0874 192.585 49.7201Z" fill="#3F3D56"/>
<path d="M210.953 235.012H203.892L200.533 207.777L210.954 207.778L210.953 235.012Z" fill="#19729B"/>
<path d="M272.763 230.622L265.931 232.402L255.811 206.895L265.895 204.268L272.763 230.622Z" fill="#19729B"/>
<path d="M233.854 67.7413L235.454 71.9009L235.134 76.0605L203.822 86.9057L205.376 68.7012L208.895 64.541L233.854 67.7413Z" fill="#FFB6B6"/>
<path d="M214.111 248.42H209.101L208.207 243.689L205.916 248.42H192.628C191.991 248.42 191.371 248.216 190.858 247.839C190.344 247.461 189.966 246.929 189.776 246.321C189.586 245.713 189.596 245.06 189.804 244.458C190.012 243.856 190.406 243.336 190.931 242.974L201.542 235.645V230.863L212.704 231.529L214.111 248.42Z" fill="#2F2E41"/>
<path d="M279.821 242.637L274.972 243.901L272.914 239.549L271.891 244.704L259.032 248.056C258.415 248.217 257.764 248.176 257.172 247.941C256.58 247.705 256.08 247.286 255.743 246.745C255.406 246.205 255.251 245.571 255.3 244.935C255.349 244.3 255.6 243.698 256.016 243.215L264.436 233.447L263.23 228.819L274.198 226.648L279.821 242.637Z" fill="#2F2E41"/>
<path d="M271.898 213.496L251.201 170.958L244.704 119.183C249.184 110.864 240.864 93.9357 240.864 93.9357V86.8281L208.637 92.9079C202.046 110.886 198.849 129.932 199.21 149.077L200.509 217.899H200.102C199.426 217.899 198.777 218.168 198.299 218.646C197.821 219.124 197.553 219.772 197.553 220.448C197.553 221.124 197.821 221.772 198.299 222.25C198.777 222.728 199.426 222.997 200.102 222.997H212.845C213.521 222.997 214.17 222.728 214.648 222.25C215.126 221.772 215.394 221.124 215.394 220.448C215.394 219.772 215.126 219.124 214.648 218.646C214.17 218.168 213.521 217.899 212.845 217.899H212.517L221.666 130.345L232.303 173.551L258.01 213.332C257.354 213.383 256.744 213.687 256.307 214.178C255.87 214.67 255.641 215.312 255.667 215.969C255.694 216.626 255.974 217.247 256.449 217.702C256.924 218.158 257.556 218.411 258.214 218.409H270.958C271.551 218.41 272.125 218.204 272.582 217.826C273.039 217.449 273.35 216.924 273.461 216.341C273.573 215.759 273.478 215.156 273.192 214.637C272.907 214.118 272.449 213.714 271.898 213.496Z" fill="#44BCE4"/>
<path d="M243.778 98.2918C243.672 97.8759 243.437 97.5042 243.107 97.23C242.777 96.9557 242.368 96.793 241.94 96.7652C241.515 91.9086 238.708 60.7616 238.602 59.8478L238.597 59.8092L237.785 42.448C237.755 41.8175 237.494 41.2199 237.052 40.7695C236.61 40.319 236.017 40.0472 235.388 40.0061L231.095 39.7255C231.036 39.7235 230.98 39.6987 230.939 39.6564C230.898 39.614 230.876 39.5574 230.876 39.4985C230.876 39.0244 230.782 38.555 230.601 38.1171C230.419 37.6791 230.153 37.2812 229.818 36.946C229.483 36.6108 229.085 36.3449 228.647 36.1635C228.209 35.9821 227.74 35.8887 227.266 35.8887H214.557C213.734 35.889 212.939 36.1898 212.322 36.7345C211.705 37.2792 211.308 38.0305 211.205 38.8472C211.199 38.9035 211.173 38.9555 211.13 38.9929C211.088 39.0304 211.033 39.0504 210.977 39.0491L210.975 39.0491C209.531 39.0194 208.124 39.5083 207.01 40.4271C205.895 41.346 205.147 42.6339 204.901 44.0572C203.164 54.1662 199.682 77.1098 201.403 89.8652C202.002 94.3055 201.73 100.984 201.503 104.699C201.481 105.058 201.529 105.418 201.646 105.758C201.763 106.098 201.946 106.412 202.184 106.682C201.677 106.828 201.247 107.165 200.984 107.622C200.721 108.079 200.646 108.621 200.774 109.133C200.906 109.657 201.241 110.107 201.706 110.385C202.17 110.662 202.725 110.743 203.25 110.611L242.299 100.767C242.823 100.635 243.274 100.3 243.551 99.8359C243.828 99.3716 243.91 98.8162 243.778 98.2918Z" fill="#44BCE4"/>
<path d="M179.239 171.28C179.231 170.14 178.821 169.039 178.079 168.173C177.338 167.307 176.314 166.732 175.188 166.549L105.956 155.18C105.292 155.07 104.612 155.1 103.961 155.269L87.7357 159.464L78.4263 161.874L61.2461 166.315C60.209 166.584 59.2906 167.19 58.6349 168.038C57.9792 168.885 57.6233 169.927 57.623 170.998V243.544C57.6282 244.65 58.0104 245.721 58.7064 246.58C59.4025 247.44 60.3709 248.036 61.4516 248.271L131.97 247.473C132.301 247.544 132.639 247.579 132.977 247.577C133.471 247.578 133.961 247.504 134.432 247.356L176.329 248.398C177.318 248.09 178.181 247.471 178.79 246.633C179.399 245.795 179.722 244.783 179.71 243.748L179.239 171.28Z" fill="#5691AE"/>
<path d="M179.239 171.28C179.231 170.14 178.821 169.039 178.079 168.173C177.338 167.307 176.314 166.732 175.188 166.549L105.956 155.18C105.292 155.07 104.612 155.1 103.961 155.269L87.7357 159.464L78.4263 161.874L61.2461 166.315C60.209 166.584 59.2906 167.19 58.6349 168.038C57.9792 168.885 57.6233 169.927 57.623 170.998V243.544C57.6282 244.65 58.0104 245.721 58.7064 246.58C59.4025 247.44 60.3709 248.036 61.4516 248.271L131.97 247.473C132.301 247.544 132.639 247.579 132.977 247.577C133.471 247.578 133.961 247.504 134.432 247.356L176.329 248.398C177.318 248.09 178.181 247.471 178.79 246.633C179.399 245.795 179.722 244.783 179.71 243.748L179.239 171.28ZM175.966 247.246L134.07 248.242C133.472 248.428 132.837 248.459 132.224 248.331L61.7015 247.09C60.8912 246.914 60.1653 246.466 59.6437 245.821C59.122 245.177 58.8357 244.373 58.8321 243.544V170.998C58.8326 170.255 59.0608 169.531 59.486 168.922C59.9112 168.313 60.5128 167.849 61.2098 167.593C61.3205 167.551 61.4335 167.516 61.5483 167.488L79.724 162.789L90.4722 160.008L104.263 156.441C104.559 156.362 104.864 156.323 105.17 156.325C105.367 156.324 105.564 156.341 105.758 156.373L174.991 167.742C175.548 167.833 176.076 168.053 176.534 168.384C176.991 168.715 177.365 169.148 177.627 169.648C177.888 170.155 178.026 170.717 178.03 171.288L178.501 243.756C178.51 244.533 178.268 245.292 177.811 245.92C177.355 246.549 176.708 247.014 175.966 247.246Z" fill="#35667D"/>
<path d="M177.627 169.649C177.58 169.68 177.528 169.703 177.474 169.717L157.11 175.223L150.77 176.935L132.74 181.808C132.688 181.82 132.636 181.827 132.583 181.828C132.546 181.827 132.51 181.824 132.474 181.82L59.7713 168.565L59.5295 168.521C59.372 168.491 59.2327 168.4 59.1419 168.268C59.0511 168.136 59.0162 167.973 59.045 167.816C59.0738 167.658 59.1638 167.518 59.2953 167.427C59.4269 167.335 59.5894 167.3 59.7472 167.328L61.2101 167.594L132.558 180.603L148.098 176.403L156.791 174.054L176.841 168.633L177.159 168.549C177.297 168.512 177.443 168.526 177.572 168.586C177.701 168.646 177.804 168.75 177.865 168.879C177.88 168.91 177.892 168.942 177.901 168.976C177.934 169.103 177.925 169.237 177.876 169.358C177.826 169.479 177.739 169.582 177.627 169.649Z" fill="#35667D"/>
<path d="M133.188 247.72C132.856 247.72 132.586 247.453 132.583 249.16L131.979 183.268C131.975 180.895 132.244 180.622 132.578 180.619H132.583C132.914 180.619 133.184 180.886 133.188 183.257L133.792 249.149C133.795 247.444 133.527 247.717 133.193 247.72H133.188Z" fill="#35667D"/>
<path d="M157.28 248.484L150.77 248.553L148.098 176.403L79.9209 162.838C79.8541 162.826 79.7882 162.81 79.7235 162.79C79.1998 162.641 78.7422 162.318 78.4258 161.875L87.7352 159.465L90.4717 160.009L155.162 172.877C155.503 172.944 155.824 173.084 156.105 173.287C156.386 173.49 156.62 173.752 156.791 174.054C156.992 174.404 157.276 248.065 157.28 248.484Z" fill="#CCCCCC"/>
<path d="M209.431 39.2237C209.426 38.3645 209.116 37.535 208.558 36.8823C207.999 36.2296 207.227 35.7958 206.379 35.658L154.201 27.0898C153.701 27.007 153.189 27.0298 152.698 27.1567L140.47 30.3185L133.454 32.1347L120.506 35.4818C119.724 35.6848 119.032 36.1415 118.538 36.7802C118.044 37.4189 117.776 38.2036 117.775 39.0111V81.776C117.779 82.6095 118.067 83.4168 118.592 84.0645C119.116 84.7122 119.846 85.1617 120.661 85.3387L173.807 96.6465C174.057 96.7001 174.311 96.7266 174.566 96.7255C174.938 96.7262 175.308 96.6698 175.663 96.5584L207.238 86.5871C207.984 86.3545 208.634 85.8879 209.093 85.2565C209.552 84.6252 209.795 83.8626 209.787 83.082L209.431 39.2237Z" fill="#5691AE"/>
<path d="M209.431 39.2237C209.426 38.3645 209.116 37.535 208.558 36.8823C207.999 36.2296 207.227 35.7958 206.379 35.658L154.201 27.0898C153.701 27.007 153.189 27.0298 152.698 27.1567L140.47 30.3185L133.454 32.1347L120.506 35.4818C119.724 35.6848 119.032 36.1415 118.538 36.7802C118.044 37.4189 117.776 38.2036 117.775 39.0111V81.776C117.779 82.6095 118.067 83.4168 118.592 84.0645C119.116 84.7122 119.846 85.1617 120.661 85.3387L173.807 96.6465C174.057 96.7001 174.311 96.7266 174.566 96.7255C174.938 96.7262 175.308 96.6698 175.663 96.5584L207.238 86.5871C207.984 86.3545 208.634 85.8879 209.093 85.2565C209.552 84.6252 209.795 83.8626 209.787 83.082L209.431 39.2237ZM206.965 85.7184L175.39 95.6898C174.939 95.8301 174.46 95.8531 173.998 95.7566L120.849 84.4488C120.238 84.3157 119.691 83.9783 119.298 83.4924C118.905 83.0065 118.689 82.401 118.687 81.776V39.0112C118.687 38.4515 118.859 37.9053 119.179 37.4464C119.5 36.9875 119.953 36.6378 120.479 36.4446C120.562 36.4133 120.647 36.387 120.734 36.3657L134.432 32.8242L142.532 30.7285L152.926 28.0405C153.149 27.981 153.379 27.9514 153.609 27.9524C153.758 27.9524 153.906 27.9646 154.053 27.9889L206.23 36.5571C206.65 36.6259 207.048 36.7916 207.393 37.041C207.737 37.2903 208.02 37.6165 208.216 37.9937C208.414 38.3761 208.518 38.7996 208.52 39.2298L208.875 83.0881C208.882 83.6737 208.7 84.2457 208.356 84.7195C208.012 85.1933 207.524 85.5435 206.965 85.7184Z" fill="#35667D"/>
<path d="M208.217 37.9929C208.182 38.0162 208.143 38.0336 208.102 38.0445L192.754 42.1934L187.977 43.4843L174.388 47.1563C174.349 47.1659 174.309 47.1709 174.27 47.1715C174.242 47.171 174.215 47.169 174.188 47.1654L119.395 37.1758L119.213 37.1424C119.094 37.1202 118.989 37.0519 118.92 36.9523C118.852 36.8528 118.826 36.7301 118.847 36.6113C118.869 36.4924 118.937 36.3869 119.036 36.318C119.135 36.249 119.258 36.2222 119.377 36.2434L120.479 36.4438L174.251 46.2482L185.963 43.0833L192.514 41.3126L207.625 37.2275L207.865 37.1637C207.969 37.1363 208.079 37.1463 208.176 37.1918C208.273 37.2373 208.351 37.3155 208.396 37.4127C208.408 37.4359 208.417 37.4604 208.424 37.4856C208.449 37.5811 208.442 37.6822 208.405 37.7736C208.368 37.8651 208.302 37.942 208.217 37.9929Z" fill="#35667D"/>
<path d="M192.753 90.7905L187.975 92.0814L185.962 43.084L134.58 32.8605C134.53 32.8516 134.48 32.8394 134.431 32.8241C134.036 32.7117 133.692 32.4686 133.453 32.1346L140.469 30.3184L142.532 30.7284L191.286 40.4264C191.542 40.4771 191.785 40.5825 191.997 40.7356C192.208 40.8887 192.385 41.0857 192.513 41.3133C192.665 41.5775 192.75 90.4747 192.753 90.7905Z" fill="#B2B5B7"/>
<path d="M153.611 30.2305C153.573 30.2304 153.535 30.2353 153.498 30.245L121.306 38.5702C121.208 38.5955 121.122 38.6525 121.06 38.7322C120.998 38.8119 120.965 38.9099 120.965 39.0107V81.7749C120.965 81.879 121.001 81.9799 121.067 82.0609C121.132 82.1419 121.223 82.198 121.325 82.2201L174.471 93.5278C174.548 93.5439 174.628 93.5401 174.703 93.5165L206.279 83.5454C206.372 83.5163 206.454 83.4581 206.511 83.3792C206.568 83.3003 206.598 83.205 206.597 83.1076L206.243 39.2495C206.242 39.1422 206.204 39.0386 206.134 38.9571C206.064 38.8756 205.968 38.8215 205.862 38.8043L153.685 30.2364C153.66 30.2325 153.636 30.2305 153.611 30.2305Z" fill="#5691AE"/>
<path d="M174.724 96.8324C174.604 96.8324 174.488 96.785 174.403 96.7004C174.318 96.6159 174.269 96.5011 174.268 96.381L173.813 46.7215C173.811 46.6006 173.858 46.4843 173.943 46.3981C174.028 46.3119 174.143 46.2628 174.264 46.2617H174.268C174.388 46.2617 174.503 46.3091 174.589 46.3937C174.674 46.4782 174.723 46.5931 174.724 46.7132L175.179 96.3727C175.18 96.4935 175.133 96.6098 175.049 96.696C174.964 96.7822 174.849 96.8313 174.728 96.8324H174.724Z" fill="#35667D"/>
<path d="M209.431 39.2237C209.426 38.3645 209.116 37.535 208.558 36.8823C207.999 36.2296 207.227 35.7958 206.379 35.658L154.201 27.0898C153.701 27.007 153.189 27.0298 152.698 27.1567L140.47 30.3185L133.454 32.1347L120.506 35.4818C119.724 35.6848 119.032 36.1415 118.538 36.7802C118.044 37.4189 117.776 38.2036 117.775 39.0111V81.776C117.779 82.6095 118.067 83.4168 118.592 84.0645C119.116 84.7122 119.846 85.1617 120.661 85.3387L173.807 96.6465C174.057 96.7001 174.311 96.7266 174.566 96.7255C174.938 96.7262 175.308 96.6698 175.663 96.5584L207.238 86.5871C207.984 86.3545 208.634 85.8879 209.093 85.2565C209.552 84.6252 209.795 83.8626 209.787 83.082L209.431 39.2237ZM206.965 85.7184L175.39 95.6898C174.939 95.8301 174.46 95.8531 173.998 95.7566L120.849 84.4488C120.238 84.3157 119.691 83.9783 119.298 83.4924C118.905 83.0065 118.689 82.401 118.687 81.776V39.0112C118.687 38.4515 118.859 37.9053 119.179 37.4464C119.5 36.9875 119.953 36.6378 120.479 36.4446C120.562 36.4133 120.647 36.387 120.734 36.3657L134.432 32.8242L142.532 30.7285L152.926 28.0405C153.149 27.981 153.379 27.9514 153.609 27.9524C153.758 27.9524 153.906 27.9646 154.053 27.9889L206.23 36.5571C206.65 36.6259 207.048 36.7916 207.393 37.041C207.737 37.2903 208.02 37.6165 208.216 37.9937C208.414 38.3761 208.518 38.7996 208.52 39.2298L208.875 83.0881C208.882 83.6737 208.7 84.2457 208.356 84.7195C208.012 85.1933 207.524 85.5435 206.965 85.7184Z" fill="#35667D"/>
<path d="M208.217 37.9929C208.182 38.0162 208.143 38.0336 208.102 38.0445L192.754 42.1934L187.977 43.4843L174.388 47.1563C174.349 47.1659 174.309 47.1709 174.27 47.1715C174.242 47.171 174.215 47.169 174.188 47.1654L119.395 37.1758L119.213 37.1424C119.094 37.1202 118.989 37.0519 118.92 36.9523C118.852 36.8528 118.826 36.7301 118.847 36.6113C118.869 36.4924 118.937 36.3869 119.036 36.318C119.135 36.249 119.258 36.2222 119.377 36.2434L120.479 36.4438L174.251 46.2482L185.963 43.0833L192.514 41.3126L207.625 37.2275L207.865 37.1637C207.969 37.1363 208.079 37.1463 208.176 37.1918C208.273 37.2373 208.351 37.3155 208.396 37.4127C208.408 37.4359 208.417 37.4604 208.424 37.4856C208.449 37.5811 208.442 37.6822 208.405 37.7736C208.368 37.8651 208.302 37.942 208.217 37.9929Z" fill="#35667D"/>
<path d="M192.753 90.7905L187.975 92.0814L185.962 43.084L134.58 32.8605C134.53 32.8516 134.48 32.8394 134.431 32.8241C134.036 32.7117 133.692 32.4686 133.453 32.1346L140.469 30.3184L142.532 30.7284L191.286 40.4264C191.542 40.4771 191.785 40.5825 191.997 40.7356C192.208 40.8887 192.385 41.0857 192.513 41.3133C192.665 41.5775 192.75 90.4747 192.753 90.7905Z" fill="#B2B5B7"/>
<path d="M190.613 62.8536C190.857 63.0626 191.085 63.2906 191.293 63.5353L219.914 60.1927L222.698 53.7695L232.94 56.7034L229.118 68.5532C228.809 69.5105 228.198 70.3418 227.376 70.9223C226.555 71.5028 225.567 71.8011 224.562 71.7726L191.792 70.841C191.117 71.8792 190.141 72.6872 188.995 73.1575C187.849 73.6278 186.588 73.7381 185.378 73.4737C184.167 73.2094 183.067 72.5829 182.221 71.6776C181.376 70.7723 180.826 69.6312 180.645 68.4059C180.465 67.1806 180.661 65.9293 181.209 64.8183C181.756 63.7074 182.629 62.7895 183.711 62.1868C184.793 61.584 186.033 61.325 187.266 61.4441C188.499 61.5633 189.666 62.0549 190.613 62.8536Z" fill="#19729B"/>
<path d="M219.243 58.71C219.087 58.368 219.007 57.9965 219.008 57.6208C219.009 57.245 219.091 56.8739 219.248 56.5328L224.747 44.6175C225.288 42.7725 226.538 41.217 228.223 40.2921C229.908 39.3672 231.892 39.1484 233.738 39.6836C235.585 40.2189 237.143 41.4645 238.073 43.1474C239.002 44.8303 239.226 46.813 238.696 48.6609L236.885 61.7014C236.833 62.0735 236.702 62.4301 236.5 62.747C236.298 63.0638 236.03 63.3334 235.715 63.5374C235.399 63.7413 235.043 63.8749 234.672 63.929C234.3 63.983 233.921 63.9563 233.56 63.8507L220.887 60.1369C220.527 60.0314 220.193 59.8493 219.909 59.603C219.625 59.3568 219.398 59.0522 219.243 58.71Z" fill="#E6E6E6"/>
<path d="M84.2309 221.587C84.1753 221.598 84.1186 221.604 84.0618 221.603L67.8637 221.33C67.6612 221.326 67.4685 221.242 67.3278 221.097C67.1871 220.951 67.11 220.755 67.1134 220.553C67.1168 220.35 67.2003 220.157 67.3458 220.016C67.4912 219.875 67.6866 219.798 67.8891 219.801L84.0872 220.074C84.2753 220.077 84.4555 220.149 84.5936 220.277C84.7317 220.405 84.8178 220.579 84.8356 220.766C84.8534 220.953 84.8015 221.141 84.69 221.292C84.5784 221.443 84.415 221.548 84.2309 221.587Z" fill="#E6E6E6"/>
<path d="M303.501 250.855C303.683 256.799 183.857 257.344 181.574 250.856C181.393 244.912 301.219 244.367 303.501 250.855Z" fill="#DFEAF0"/>
<path d="M329.484 199.465C329.449 199.465 329.414 199.469 329.38 199.478L299.875 207.109C299.786 207.132 299.706 207.184 299.65 207.257C299.593 207.33 299.563 207.42 299.562 207.512V246.707C299.563 246.802 299.596 246.895 299.656 246.969C299.716 247.043 299.799 247.095 299.893 247.115L348.603 257.479C348.673 257.494 348.747 257.49 348.815 257.468L377.756 248.33C377.841 248.303 377.916 248.25 377.968 248.177C378.021 248.105 378.048 248.018 378.047 247.928L377.723 207.731C377.722 207.633 377.687 207.538 377.623 207.463C377.559 207.388 377.47 207.339 377.373 207.323L329.551 199.47C329.529 199.467 329.506 199.465 329.484 199.465Z" fill="#407793"/>
<path d="M310.963 203.918C310.924 203.918 310.887 203.923 310.85 203.933L278.657 212.258C278.56 212.283 278.473 212.34 278.412 212.42C278.35 212.499 278.316 212.597 278.316 212.698V255.462C278.317 255.567 278.353 255.667 278.418 255.748C278.484 255.829 278.575 255.886 278.677 255.908L331.823 267.215C331.9 267.231 331.98 267.228 332.055 267.204L363.631 257.233C363.724 257.204 363.805 257.146 363.862 257.067C363.92 256.988 363.95 256.893 363.949 256.795L363.595 212.937C363.594 212.83 363.555 212.726 363.485 212.645C363.416 212.563 363.319 212.509 363.213 212.492L311.036 203.924C311.012 203.92 310.987 203.918 310.963 203.918Z" fill="#5691AE"/>
<path d="M332.075 270.52C331.955 270.52 331.84 270.472 331.755 270.388C331.669 270.303 331.621 270.189 331.62 270.068L331.164 220.409C331.163 220.288 331.21 220.172 331.295 220.086C331.379 219.999 331.495 219.95 331.616 219.949H331.62C331.74 219.949 331.855 219.997 331.94 220.081C332.026 220.166 332.074 220.281 332.075 220.401L332.531 270.06C332.532 270.181 332.485 270.297 332.4 270.383C332.316 270.47 332.2 270.519 332.079 270.52H332.075Z" fill="#35667D"/>
<path d="M366.783 212.911C366.777 212.052 366.468 211.223 365.909 210.57C365.35 209.917 364.578 209.483 363.73 209.345L311.553 200.777C311.053 200.695 310.541 200.717 310.05 200.844L297.821 204.006L290.805 205.822L277.857 209.169C277.076 209.372 276.384 209.829 275.89 210.468C275.395 211.106 275.127 211.891 275.127 212.699V255.463C275.131 256.297 275.419 257.104 275.943 257.752C276.468 258.4 277.198 258.849 278.012 259.026L331.159 270.334C331.408 270.388 331.663 270.414 331.918 270.413C332.29 270.414 332.66 270.357 333.014 270.246L364.59 260.275C365.335 260.042 365.986 259.575 366.445 258.944C366.904 258.313 367.147 257.55 367.138 256.77L366.783 212.911ZM364.317 259.406L332.741 269.377C332.291 269.518 331.812 269.541 331.35 269.444L278.201 258.136C277.59 258.003 277.043 257.666 276.65 257.18C276.257 256.694 276.041 256.089 276.038 255.464V212.699C276.039 212.139 276.211 211.593 276.531 211.134C276.851 210.675 277.305 210.325 277.83 210.132C277.914 210.101 277.999 210.074 278.085 210.053L291.783 206.512L299.884 204.416L310.277 201.728C310.5 201.669 310.73 201.639 310.961 201.64C311.109 201.64 311.258 201.652 311.404 201.676L363.582 210.245C364.001 210.313 364.4 210.479 364.744 210.728C365.089 210.978 365.371 211.304 365.568 211.681C365.765 212.064 365.869 212.487 365.872 212.917L366.227 256.776C366.234 257.361 366.051 257.933 365.707 258.407C365.363 258.881 364.875 259.231 364.317 259.406Z" fill="#35667D"/>
<path d="M365.569 211.68C365.533 211.704 365.494 211.721 365.453 211.732L350.106 215.881L345.328 217.172L331.74 220.844C331.701 220.853 331.661 220.858 331.621 220.859C331.594 220.859 331.566 220.856 331.539 220.853L276.747 210.863L276.564 210.83C276.446 210.808 276.34 210.739 276.272 210.64C276.203 210.54 276.177 210.418 276.199 210.299C276.221 210.18 276.288 210.074 276.388 210.005C276.487 209.937 276.609 209.91 276.728 209.931L277.831 210.131L331.603 219.936L343.315 216.771L349.866 215L364.976 210.915L365.216 210.851C365.32 210.824 365.43 210.834 365.527 210.879C365.625 210.925 365.703 211.003 365.748 211.1C365.76 211.123 365.769 211.148 365.775 211.173C365.8 211.269 365.794 211.37 365.757 211.461C365.719 211.553 365.653 211.63 365.569 211.68Z" fill="#35667D"/>
<path d="M350.105 264.478L345.327 265.769L343.313 216.772L291.932 206.548C291.881 206.539 291.832 206.527 291.783 206.512C291.388 206.399 291.043 206.156 290.805 205.822L297.821 204.006L299.883 204.416L348.638 214.114C348.894 214.165 349.136 214.27 349.348 214.423C349.56 214.576 349.736 214.773 349.865 215.001C350.016 215.265 350.102 264.162 350.105 264.478Z" fill="#B2B5B7"/>
</svg>
