<svg width="38" height="38" viewBox="0 0 38 38" fill="none" xmlns="http://www.w3.org/2000/svg">
<rect width="38" height="38" fill="#92DDF6"/>
<path d="M12.9244 28.9393C12.9493 29.5323 13.4372 30.0003 14.0306 30.0003H24.3665C24.9599 30.0003 25.4479 29.5323 25.4727 28.9393L26.2108 13.3574H12.1863L12.9244 28.9393ZM21.5367 17.2277C21.5367 16.9794 21.738 16.778 21.9864 16.778H22.7057C22.9539 16.778 23.1554 16.9794 23.1554 17.2277V26.13C23.1554 26.3783 22.954 26.5797 22.7057 26.5797H21.9864C21.7381 26.5797 21.5367 26.3784 21.5367 26.13V17.2277ZM18.3893 17.2277C18.3893 16.9794 18.5906 16.778 18.8389 16.778H19.5582C19.8064 16.778 20.0079 16.9794 20.0079 17.2277V26.13C20.0079 26.3783 19.8066 26.5797 19.5582 26.5797H18.8389C18.5907 26.5797 18.3893 26.3784 18.3893 26.13V17.2277ZM15.2418 17.2277C15.2418 16.9794 15.4431 16.778 15.6914 16.778H16.4108C16.659 16.778 16.8604 16.9794 16.8604 17.2277V26.13C16.8604 26.3783 16.6591 26.5797 16.4108 26.5797H15.6914C15.4431 26.5797 15.2418 26.3784 15.2418 26.13V17.2277Z" fill="white"/>
<path d="M26.7023 9.13333H21.934V8.23186C21.934 8.10384 21.8302 8 21.7021 8H16.6949C16.5669 8 16.4631 8.10384 16.4631 8.23186V9.13328H11.6948C11.311 9.13328 11 9.44436 11 9.8281V12.0108H27.3971V9.82815C27.3971 9.44441 27.086 9.13333 26.7023 9.13333Z" fill="white"/>
</svg>
