<svg width="11" height="13" viewBox="0 0 11 13" fill="none" xmlns="http://www.w3.org/2000/svg">
<path d="M9.0075 4.65723H7.23089V5.71138H9.0075C9.5358 5.71138 9.9457 5.98125 9.9457 6.21351V10.888C9.9457 11.1203 9.5358 11.3901 9.0075 11.3901H2.29216C1.76385 11.3901 1.35396 11.1203 1.35396 10.888V6.21369C1.35396 5.98142 1.76385 5.71156 2.29216 5.71156H4.06842V4.6574H2.29216C1.17493 4.6574 0.299805 5.34102 0.299805 6.21369V10.8882C0.299805 11.761 1.17493 12.4445 2.29216 12.4445H9.00767C10.1247 12.4445 11 11.7608 11 10.8882V6.21369C10.9999 5.34085 10.1247 4.65723 9.0075 4.65723Z" fill="#003A60"/>
<path d="M4.09024 3.18266C4.22518 3.18266 4.35993 3.13119 4.46289 3.02823L5.12279 2.36833V4.65725V5.71141V7.73082C5.12279 8.02195 5.35875 8.2579 5.64987 8.2579C5.94099 8.2579 6.17695 8.02195 6.17695 7.73082V5.71141V4.65725V2.33266L6.87252 3.02823C6.97547 3.13119 7.1104 3.18266 7.24516 3.18266C7.37992 3.18266 7.51485 3.13119 7.61781 3.02823C7.82372 2.82249 7.82372 2.48868 7.61781 2.28294L6.04412 0.709258C5.94117 0.606302 5.80641 0.555176 5.67165 0.555176C5.67025 0.555176 5.66902 0.555176 5.66761 0.555176C5.66621 0.555176 5.66498 0.555176 5.66357 0.555176C5.52882 0.555176 5.39406 0.606302 5.2911 0.709258L3.71742 2.28294C3.51151 2.48868 3.51151 2.82249 3.71742 3.02823C3.82055 3.13119 3.95531 3.18266 4.09024 3.18266Z" fill="#003A60"/>
</svg>
