<svg width="348" height="184" viewBox="0 0 348 184" fill="none" xmlns="http://www.w3.org/2000/svg">
<path d="M80.9742 17.0298C80.8495 16.0437 80.5973 15.078 80.2238 14.1569C80.1762 13.9827 80.0928 13.8203 79.979 13.6801C79.8651 13.5399 79.7234 13.425 79.5627 13.3426C79.3479 13.2868 79.1227 13.2842 78.9067 13.3353L75.5387 13.8506C75.2568 13.8635 74.9869 13.9684 74.7702 14.1492C74.3316 14.6105 74.7635 15.3534 74.7501 15.9898C74.735 16.7055 74.0991 17.2864 73.4095 17.4786C72.7056 17.6208 71.9796 17.6118 71.2794 17.4522L66.57 16.7204C67.957 16.2776 69.1915 15.4537 70.1327 14.3429C70.7525 13.6087 71.0822 12.238 70.1865 11.8903C69.9204 11.8173 69.6429 11.795 69.3685 11.8246C67.2348 11.8412 65.5558 10.0597 63.5582 9.30938C62.2798 8.8602 60.892 8.82678 59.5934 9.2139C58.2948 9.60102 57.1519 10.3889 56.3281 11.4647L58.8368 11.5857C59.0729 11.5727 59.3069 11.6351 59.5051 11.7639C60.0549 12.2157 59.3714 13.0833 59.4488 13.7907C59.5495 14.7097 60.7697 14.9059 61.6895 14.9989C62.6094 15.0918 63.7763 15.8391 63.3338 16.6509C58.7106 18.2433 54.006 13.538 49.1507 14.1172C47.9218 14.2638 46.7614 14.7466 45.5617 15.0501C38.2326 16.9045 30.6557 11.9569 23.1687 13.0047C21.5042 13.2885 19.8683 13.7199 18.2804 14.2939C17.2614 14.6285 16.1986 14.9901 15.4582 15.766C14.7178 16.542 14.436 17.869 15.1374 18.6804C13.2041 18.8396 11.2579 18.6546 9.38929 18.134C9.8946 18.4149 10.315 18.8266 10.6063 19.326C10.8976 19.8254 11.0491 20.394 11.0449 20.9721C8.02635 21.4643 5.08771 22.3604 2.30804 23.6361C2.82683 24.4988 3.43278 25.306 4.11636 26.045L0.294922 28.5001C1.58599 28.8254 2.2535 30.5858 1.5027 31.6853C2.84139 31.0898 3.67104 29.5492 5.10254 29.2368C6.04037 29.0322 6.99463 29.4158 7.8843 29.7762C8.77397 30.1366 9.7518 30.4861 10.6728 30.2156C11.5938 29.9451 12.2731 28.7509 11.6879 27.9901C15.6245 26.8415 19.6928 26.2059 23.7922 26.0989C24.1084 26.0593 24.4291 26.1201 24.7089 26.2729C25.2425 26.6431 25.1021 27.4428 25.0734 28.0916C25.0446 28.7405 25.5503 29.5932 26.1302 29.3008C25.448 29.8924 26.0312 31.0061 26.6858 31.6283C27.3403 32.2504 28.1293 33.1088 27.7285 33.9181C27.6239 34.1293 27.4465 34.2983 27.3459 34.5114C27.0489 35.1405 27.5205 35.8739 28.0768 36.2917C28.6331 36.7095 29.3145 37.0015 29.7009 37.58C30.0873 38.1585 29.9118 39.1711 29.2209 39.2519L27.2568 36.7582C26.5858 37.454 26.1258 38.3258 25.9301 39.2724C28.0128 40.975 28.326 44.4404 26.5824 46.4888C25.6914 47.5357 24.4243 48.1717 23.3184 48.9883C22.2124 49.8048 21.1891 50.9675 21.1919 52.3421C21.1967 54.7171 21.0026 56.9235 21.8926 59.1255C23.5337 63.1856 25.4284 67.1385 27.5655 70.9609C28.1267 71.9646 28.852 73.0647 29.9889 73.2375C28.5521 69.7397 27.2587 66.1874 26.1086 62.5808C26.8577 62.5837 27.7233 62.6432 28.1624 63.25C28.526 63.7525 28.4479 64.4357 28.5608 65.0456C28.7045 65.6365 28.9442 66.1998 29.2702 66.7131L36.1314 78.935C36.7001 79.9481 37.3526 81.0357 38.4396 81.446C39.1346 81.7083 39.9387 81.6589 40.5784 82.0365C41.0798 82.3326 41.4176 82.8581 41.9287 83.1369C43.3741 83.9254 45.384 82.4132 46.7347 83.3546C47.1209 83.6238 47.3666 84.0514 47.7225 84.3596C48.97 85.4399 51.0164 84.7172 52.4565 85.5231C53.3846 86.0425 53.8656 87.0812 54.3607 88.0226C55.6007 90.3805 57.6071 92.6906 60.2646 92.8783C61.0994 92.9373 61.9521 92.779 62.7681 92.9647C63.584 93.1504 64.3873 93.8625 64.2563 94.689C64.0318 96.106 64.7319 97.6577 64.5438 99.08C64.2013 101.671 60.5265 102.809 60.2108 105.403C60.1417 105.971 60.2499 106.558 60.1146 107.114C59.9489 107.795 59.4371 108.35 59.2553 109.027C58.9107 110.311 59.8303 111.588 60.8405 112.452C61.8507 113.315 63.0557 114.06 63.608 115.269C64.1918 116.546 63.905 118.036 64.0949 119.428C64.5093 122.466 67.1338 124.719 69.8346 126.171C70.6576 126.614 71.5411 127.042 72.0737 127.81C72.7689 128.812 72.6997 130.133 72.9318 131.33C73.5003 134.262 75.9686 136.678 76.0387 139.664C76.0885 141.786 74.9088 143.711 74.2041 145.714C73.5434 147.632 73.3043 149.671 73.5032 151.69C73.702 153.709 74.3341 155.662 75.3562 157.415C75.8834 158.305 76.5139 159.144 76.8868 160.109C77.5523 161.831 77.3363 163.789 77.9499 165.53C78.7611 167.832 80.9902 169.733 80.7768 172.165C81.7888 174.266 84.0234 175.299 86.2704 175.924L90.2976 177.045C91.0687 177.26 91.8745 177.476 92.6597 177.321C93.4449 177.165 94.1943 176.513 94.174 175.713C92.1991 175.268 90.1609 174.794 88.5329 173.591C86.905 172.387 85.7898 170.244 86.4075 168.316C86.6939 167.423 87.3032 166.39 86.7239 165.651C86.3922 165.229 85.7857 165.118 85.4116 164.732C84.828 164.13 85.0285 163.119 85.448 162.393C85.8675 161.668 86.4739 161.019 86.6431 160.198C86.7285 159.739 86.6715 159.264 86.4795 158.838C86.2876 158.412 85.97 158.055 85.5694 157.815C86.3161 157.533 86.9952 157.097 87.5627 156.536C88.0869 155.937 88.329 155.014 87.9167 154.334C89.1412 154.489 90.5869 154.565 91.3907 153.628C92.0326 152.88 91.9885 151.762 91.7349 150.809C91.4813 149.857 91.0526 148.932 91.0392 147.946C93.864 148.08 96.695 147.984 99.5042 147.659C99.098 146.291 98.1749 145.135 96.9306 144.436C98.2029 144.221 99.362 142.698 99.764 141.471C100.166 140.245 100.063 138.91 99.815 137.643C99.7195 137.317 99.7065 136.973 99.7769 136.64C99.9202 136.184 100.369 135.905 100.784 135.667L107.099 132.04C107.476 131.851 107.817 131.599 108.109 131.294C108.77 130.517 108.672 129.344 108.334 128.381C107.995 127.418 107.452 126.513 107.322 125.501C106.931 122.473 110.172 120.301 111.266 117.451C111.695 116.333 111.783 115.117 111.866 113.922C111.955 112.638 111.962 111.147 110.976 110.32C110.031 109.527 108.555 109.704 107.567 108.967C106.66 108.291 106.348 106.977 105.358 106.431C104.458 105.935 103.331 106.251 102.331 106.017C100.57 105.607 99.4621 103.577 97.6638 103.389C96.6492 103.283 95.5009 103.779 94.6693 103.188C93.9366 102.668 93.9072 101.621 93.7677 100.733C93.5233 99.3531 92.8618 98.0811 91.8723 97.0884C90.8829 96.0958 89.613 95.4302 88.2337 95.1814C87.1875 95.0136 86.0488 95.0773 85.1589 94.5024C84.2577 93.9203 83.8445 92.8304 83.1367 92.0242C81.9958 90.7249 80.199 90.2633 78.5158 89.8676L71.6693 88.2581C70.4539 87.9724 68.8873 87.8209 68.2351 88.8855C68.042 89.2908 67.9053 89.7207 67.8288 90.1631C67.5845 90.9635 67.0927 91.6657 66.4241 92.1689C65.7555 92.6722 64.9446 92.9505 64.1079 92.9639C63.5341 91.9851 62.6045 91.2658 61.5131 90.9561C60.8188 90.7626 60.0757 90.7411 59.4136 90.4565C59.053 90.2804 58.7321 90.0327 58.4706 89.7284C58.209 89.4241 58.0124 89.0696 57.8926 88.6866C57.7728 88.3036 57.7324 87.9003 57.7739 87.5011C57.8154 87.102 57.9379 86.7156 58.134 86.3655C58.5287 85.6627 58.6811 84.8495 58.5678 84.0515C58.4544 83.2534 58.0815 82.5149 57.5067 81.9498C56.3423 80.9045 54.6581 80.652 53.0969 80.7565C52.688 79.8643 53.3717 78.8577 54.1084 78.2094C54.8452 77.561 55.7398 76.9236 55.9002 75.9554C56.1526 74.4323 54.2093 73.2756 52.7339 73.7297C51.2584 74.1838 50.3167 75.617 49.6941 77.0297C49.337 77.8402 49.0333 78.6937 48.4699 79.3772C47.9065 80.0607 46.9992 80.55 46.141 80.3307C44.9261 80.0202 44.4569 78.5768 44.188 77.3519C43.8272 75.7086 43.4644 74.0425 43.54 72.3618C43.6155 70.681 44.1821 68.9553 45.4215 67.8175C47.4411 65.9634 50.5393 66.1451 53.2649 66.4409C52.621 65.7154 52.7801 64.4926 53.4691 63.8097C53.8328 63.4866 54.2699 63.257 54.7424 63.1409C55.2149 63.0248 55.7085 63.0258 56.1806 63.1436C57.0019 63.3145 57.7418 63.7569 58.2811 64.3995C59.0557 65.3438 59.2759 66.6188 59.8614 67.6907C60.4468 68.7626 61.7632 69.6768 62.8407 69.1018C63.7714 68.6051 63.9191 67.3146 63.6875 66.2854C63.4558 65.2562 62.9639 64.2555 63.0478 63.2039C63.2079 61.1973 65.2879 59.9896 67.1233 59.1632C68.9588 58.3368 71.0605 57.2255 71.3513 55.2337C71.3613 54.8437 71.4348 54.4579 71.5691 54.0917C71.7726 53.7682 72.0555 53.5021 72.3909 53.3188C77.7478 49.7787 83.1937 46.1953 89.3163 44.2609C89.6349 44.1603 89.6723 44.2721 89.9969 44.1933C90.4512 43.9307 90.1502 43.2043 89.7146 42.9117C89.279 42.619 88.6968 42.3946 88.5863 41.8817C88.505 41.5046 88.7272 41.1343 88.7849 40.7529C88.9267 39.8157 87.8055 38.9503 86.9348 39.325C86.443 38.6737 87.4162 37.9169 88.2031 37.7002C90.566 37.0499 92.9915 36.6537 95.4385 36.5183C95.7209 36.4734 96.0102 36.5226 96.2618 36.6583C96.6728 36.943 96.6203 37.596 96.329 38.0023C96.0378 38.4087 95.5847 38.6638 95.2217 39.0077C94.8252 39.394 94.5423 39.8818 94.4041 40.4179C94.2658 40.954 94.2775 41.5178 94.4377 42.0477C95.7152 42.6975 97.104 43.3664 98.5188 43.1375C99.9336 42.9086 101.189 41.3189 100.524 40.0493C99.9051 38.867 98.0449 38.6004 97.725 37.3046C97.3504 35.7875 99.498 34.4382 99.0143 32.9523C98.8024 32.3014 98.1537 31.9184 97.656 31.4485C97.0682 30.8723 96.6683 30.1319 96.509 29.3244C96.3496 28.5169 96.4382 27.6801 96.763 26.9238C95.9523 27.0664 95.1192 27.0126 94.3336 26.7667C93.548 26.5209 92.8328 26.0902 92.248 25.5109C91.1681 24.421 90.3065 22.7017 88.7729 22.7505C87.3657 22.7952 86.1535 24.4371 84.8377 23.9362C84.5139 23.8129 84.1726 23.5621 83.8589 23.7091C83.7561 23.7758 83.6699 23.8651 83.6066 23.97C83.5434 24.075 83.5048 24.193 83.4939 24.3151C83.1595 25.9139 83.7347 27.7355 82.8633 29.117C81.9151 30.6204 79.7219 30.8288 78.5723 32.1845C77.9483 32.9204 77.7066 33.912 77.133 34.6879C76.5594 35.4637 75.3421 35.957 74.6538 35.2809C74.992 34.5854 75.0844 33.7958 74.9158 33.041C74.7472 32.2863 74.3275 31.611 73.7254 31.1257C73.0864 30.7087 72.3975 30.3736 71.675 30.1283C70.8676 29.7866 70.0996 29.3585 69.3842 28.8516C69.0259 28.6355 68.7347 28.3239 68.5433 27.9518C68.3919 27.4859 68.4123 26.9811 68.6008 26.5289C68.9499 25.5282 69.5656 24.6418 70.3816 23.9655C71.1976 23.2892 72.1828 22.8486 73.2309 22.6913C74.1473 22.5666 75.214 22.6106 75.8205 21.9123C76.1414 21.5428 76.3098 20.9842 76.7756 20.8341C77.0736 20.7742 77.3829 20.8123 77.6574 20.9427L81.0782 22.1468C81.4599 22.3191 81.88 22.3885 82.2968 22.3483C82.5035 22.3205 82.692 22.2155 82.8245 22.0545C82.957 21.8934 83.0237 21.6882 83.0112 21.48C82.9019 20.912 82.0278 20.6394 82.1073 20.0664C82.1519 19.8807 82.2517 19.7129 82.3936 19.5851C83.6281 18.2712 85.1379 17.2464 86.8148 16.5842C88.4917 15.922 90.2943 15.6387 92.0935 15.7547C92.5252 16.4638 91.8424 17.3035 91.2742 17.9089C90.706 18.5142 90.2495 19.5958 90.9366 20.0618C91.2182 20.2055 91.5314 20.276 91.8474 20.2669C92.6896 20.3809 93.508 20.6292 94.2717 21.0022C95.4537 21.5166 96.6131 22.0795 97.7498 22.6908C97.6494 21.9413 97.5536 21.1517 97.8377 20.4509C98.1217 19.7502 98.9291 19.2005 99.6343 19.4734C100.314 19.7364 100.662 20.6363 101.387 20.7188C102.352 20.8288 102.733 19.4018 102.33 18.5174C101.927 17.633 101.128 16.8924 101.061 15.9226C101.016 15.2683 101.265 14.4569 100.743 14.0607C100.557 13.9417 100.346 13.8677 100.126 13.8445L87.0764 11.4431C86.3015 11.3005 85.1819 11.4098 85.1475 12.197C85.1284 12.6364 85.5209 13.0711 85.347 13.4751C85.1615 13.9062 84.552 13.8668 84.108 14.0193C83.4192 14.2559 83.0735 15.0739 83.1397 15.7992C83.2608 16.5199 83.54 17.2049 83.9571 17.805C83.1083 17.45 81.823 17.3848 80.9742 17.0298Z" fill="#8CC3DE"/>
<path d="M70.562 5.95225C69.7391 5.67993 68.8524 5.66725 68.022 5.91592C67.1917 6.16459 66.4579 6.66259 65.9201 7.3424C65.7053 7.62531 65.5248 8.01531 65.7047 8.32166C65.9626 8.76084 66.6197 8.58737 67.1042 8.43027C67.8163 8.17586 68.5914 8.15737 69.3148 8.37753C69.7697 8.53373 70.1767 8.80977 70.6336 8.96006C70.856 9.05309 71.0996 9.08382 71.3381 9.04896C71.5767 9.0141 71.8012 8.91496 71.9877 8.76218C72.3013 8.44236 72.321 7.94516 72.3216 7.49725C72.3433 7.34738 72.3313 7.19454 72.2865 7.04989C72.2416 6.90524 72.165 6.77243 72.0623 6.66115C71.8794 6.55521 71.6739 6.49443 71.4628 6.48383C70.9901 6.39632 70.5627 6.14659 70.2543 5.77771" fill="#8CC3DE"/>
<path d="M75.2674 4.64222C75.0832 4.63219 74.8996 4.6697 74.7341 4.75116C74.5687 4.83262 74.427 4.95527 74.3226 5.10734C74.2183 5.2594 74.1548 5.43575 74.1383 5.61943C74.1218 5.80312 74.1528 5.98796 74.2284 6.15618C74.794 6.31042 75.3848 6.34894 75.9656 6.26945C76.2553 6.22448 76.5252 6.09476 76.7413 5.89665C76.9574 5.69853 77.11 5.4409 77.1798 5.15619C76.496 5.28063 75.7904 5.14587 75.2006 4.77819" fill="#8CC3DE"/>
<path d="M91.0546 2.4542C89.5153 2.78147 88.02 3.28941 86.5999 3.96748C87.2693 4.22482 87.8385 4.69041 88.2233 5.29565C88.6082 5.90089 88.7885 6.61375 88.7375 7.32919C88.6775 7.60385 88.6844 7.88895 88.7578 8.16035C88.9214 8.55698 89.3955 8.70581 89.8123 8.80762C90.5611 9.03551 91.3431 9.13531 92.1251 9.10282C92.5164 9.08235 92.8963 8.96466 93.2306 8.76039C93.5648 8.55612 93.8429 8.27173 94.0396 7.93294C94.1529 7.6114 94.2859 7.29712 94.4377 6.99185C95.4367 5.47032 98.4047 7.31008 99.4773 5.8395C99.8551 5.32146 99.8206 4.54168 100.313 4.13119C100.568 3.95235 100.863 3.83966 101.172 3.80327C103.33 3.3747 105.508 3.06438 107.699 2.87369C108.737 2.78335 110.091 2.41059 110.099 1.36858C106.189 0.600637 102.135 1.14606 98.5664 2.92007C97.2808 3.56398 95.5805 4.91848 94.3421 4.06481C93.8785 3.74517 93.9014 2.88448 93.2632 2.52507C92.6108 2.1576 91.7472 2.30706 91.0546 2.4542Z" fill="#8CC3DE"/>
<path d="M103.842 4.8455L105.678 5.19819C105.34 5.18323 105.003 5.24049 104.689 5.36615C104.375 5.49182 104.091 5.683 103.857 5.92694C103.623 6.17088 103.443 6.46198 103.33 6.7808C103.217 7.09962 103.174 7.43884 103.202 7.77582C104.921 8.35004 106.795 7.79126 108.606 7.86759C110.417 7.94392 112.523 9.2373 112.214 11.023C112.121 11.5629 111.809 12.1025 111.971 12.6259C112.085 12.9928 112.408 13.2531 112.591 13.591C112.971 14.295 112.667 15.1856 112.187 15.8256C111.706 16.4656 111.06 16.9763 110.639 17.6564C109.59 19.3481 110.186 21.535 110.81 23.4249C110.991 24.139 111.325 24.8053 111.788 25.3778C112.714 26.3622 114.223 26.4478 115.574 26.4675C116.558 26.4818 117.684 26.4333 118.306 25.6713C119.118 24.6765 118.55 23.1244 119.085 21.9569C119.57 20.8966 120.807 20.4417 121.928 20.1191C123.981 19.528 126.073 19.0255 128.014 18.1327C130.425 17.0241 132.677 15.2965 135.326 15.1537C136.069 15.1137 136.831 15.2014 137.547 14.9978C138.263 14.7942 138.943 14.1752 138.889 13.4329C138.842 12.7987 138.306 12.3329 137.886 11.8548C137.467 11.3767 137.138 10.6415 137.523 10.1356L144.467 8.83866C143.975 7.49729 143.591 5.73067 144.722 4.85756C145.13 4.54253 145.677 4.41663 146.024 4.03578C146.616 3.38667 146.319 2.26852 145.635 1.71649C144.951 1.16446 144.027 1.03631 143.151 0.963574C140.107 0.710716 137.045 0.8778 133.994 1.04501C128.031 1.37188 122.068 1.69875 116.105 2.02561C114.904 2.09141 113.518 1.99089 112.417 2.40043C111.485 2.74714 110.823 3.38358 109.756 3.60719C107.789 4.01999 105.623 3.74065 103.842 4.8455Z" fill="#8CC3DE"/>
<path d="M136.725 19.3539C136.538 19.3243 136.346 19.3676 136.19 19.475C136.087 19.5886 136.026 19.7339 136.016 19.887C135.898 20.5627 136.039 21.2583 136.412 21.8344C136.601 22.117 136.863 22.3436 137.17 22.4908C137.477 22.6379 137.818 22.7002 138.157 22.6712C138.984 22.5658 139.593 21.8607 140.353 21.5167C141.524 20.9869 146.497 20.1609 143.057 18.3023C141.871 17.6617 141.105 18.2272 140.171 18.649C139.107 19.1929 137.916 19.4366 136.725 19.3539Z" fill="#8CC3DE"/>
<path d="M166.858 3.79629C166.456 3.96041 166.12 4.25294 165.902 4.62821C165.802 4.81876 165.778 5.04061 165.837 5.24787C165.896 5.45514 166.032 5.63194 166.217 5.74171C166.367 5.79612 166.526 5.82135 166.686 5.81605L168.319 5.86485C169.013 5.88558 169.88 6.03337 170.066 6.70207C170.205 7.19861 169.895 7.83666 170.269 8.19149C170.429 8.31576 170.622 8.39102 170.824 8.40822C171.362 8.54644 171.924 8.56457 172.47 8.46133C173.659 8.14255 173.034 7.41718 173.408 6.7713C173.981 5.78305 173.882 6.38128 174.891 5.81489C175.636 5.39661 176.599 4.63784 175.977 3.57175C174.896 1.71785 168.454 2.99986 166.858 3.79629Z" fill="#8CC3DE"/>
<path d="M199.098 2.86424L198.149 2.99081C196.01 3.27623 193.859 3.56427 191.799 4.20656C192.691 4.55912 193.627 4.78869 194.58 4.88894C195.105 4.91467 195.627 4.98879 196.138 5.11037C197.048 5.38123 197.965 6.08068 198.844 5.72238C199.389 5.50022 199.566 4.93272 200.018 4.63196C200.33 4.42428 201.512 4.08814 201.644 3.87853C202.713 2.18394 199.919 2.75462 199.098 2.86424Z" fill="#8CC3DE"/>
<path d="M203.262 7.17499C201.995 7.88341 200.82 8.74425 199.762 9.7383C199.317 10.1572 198.861 10.6782 198.902 11.2885C198.956 12.0997 199.82 12.5702 200.568 12.8871L203.6 14.1708C203.968 13.6524 203.631 12.9367 203.251 12.4273C202.871 11.9178 202.419 11.3283 202.587 10.7152C202.779 10.0156 203.632 9.77718 204.347 9.65665C205.513 9.46027 208.657 9.47602 208.279 7.59768C207.834 5.38442 204.432 6.52103 203.262 7.17499Z" fill="#8CC3DE"/>
<path d="M202.653 132.425C202.364 133.26 202.337 134.245 202.836 134.974C203.396 135.793 204.518 136.098 205.488 135.891C206.454 135.634 207.315 135.08 207.95 134.308C208.53 133.661 209.008 132.928 209.366 132.136C209.865 130.902 210.217 129.613 210.415 128.296L211.357 123.353C211.567 122.248 211.559 118.861 209.529 119.965C208.974 120.266 207.69 122.646 207.108 123.321C206.061 124.538 205.922 125.718 205.371 127.192C204.68 129.038 203.291 130.576 202.653 132.425Z" fill="#8CC3DE"/>
<path d="M309.891 157.719C309.227 157.46 308.582 157.153 307.962 156.801C307.34 158.51 307.009 160.312 306.984 162.131L311.53 159.558C312.214 159.171 312.989 158.634 312.974 157.848C312.98 157.751 312.96 157.654 312.916 157.568C312.872 157.481 312.805 157.408 312.723 157.356C312.622 157.316 312.512 157.303 312.404 157.319C311.73 157.375 311.115 157.707 310.479 157.937C309.843 158.168 309.1 158.29 308.516 157.948" fill="#8CC3DE"/>
<path d="M333.873 159.246C333.374 159.382 332.886 159.557 332.415 159.77C331.372 160.3 330.662 161.309 329.723 162.008C328.825 162.677 327.743 163.044 326.682 163.401C326.369 163.677 326.513 164.233 326.852 164.476C327.216 164.683 327.634 164.777 328.053 164.746C329.156 164.77 330.318 164.781 331.284 164.248C331.828 163.895 332.337 163.49 332.805 163.041C333.934 162.098 335.291 161.476 336.634 160.875C337.122 160.691 337.574 160.421 337.968 160.077C338.812 159.246 338.871 157.964 337.655 157.681C336.672 157.452 334.809 158.944 333.873 159.246Z" fill="#8CC3DE"/>
<path d="M344.469 152.325C344.524 151.753 344.448 151.176 344.247 150.637C344.046 150.099 343.725 149.613 343.309 149.217C343.296 150.362 343.262 151.581 342.618 152.527C342.159 153.202 341.44 153.657 340.938 154.299C340.435 154.942 340.212 155.96 340.802 156.523C341.178 156.81 341.637 156.968 342.111 156.974C343.284 157.112 344.642 157.189 345.465 156.342C345.914 155.879 346.132 155.194 346.68 154.854C346.884 154.768 347.066 154.638 347.213 154.472C347.439 154.113 347.08 153.639 346.675 153.509C346.271 153.38 345.825 153.441 345.419 153.318C345.012 153.195 344.639 152.737 344.848 152.367" fill="#8CC3DE"/>
<path d="M325.636 110.365C325.021 110.515 324.383 110.552 323.755 110.476C322.71 110.284 321.897 109.497 321.054 108.851C319.049 107.325 316.613 106.473 314.094 106.419C311.803 106.376 309.49 106.997 307.24 106.564C307.387 107.381 308.086 107.995 308.833 108.359C309.58 108.724 310.404 108.907 311.154 109.265C312.355 109.842 313.308 110.834 313.838 112.057C314.08 112.621 314.232 113.235 314.598 113.727C315.346 114.734 316.764 114.955 318.015 114.873C319.647 114.765 321.351 114.296 322.869 114.904C324.03 115.369 324.861 116.385 325.831 117.176C326.8 117.966 328.166 118.552 329.279 117.982C328.123 117.608 327.116 116.874 326.407 115.887C325.697 114.9 325.322 113.712 325.335 112.496C326.427 112.597 329.572 112.558 329.402 110.703C329.259 109.13 326.574 110.195 325.636 110.365Z" fill="#8CC3DE"/>
<path d="M311.352 123.158C311.545 122.095 312.606 121.156 312.276 120.127C312.047 119.415 311.222 119.064 310.475 119.046C309.727 119.029 308.993 119.251 308.246 119.272C307.76 119.246 307.272 119.253 306.787 119.293C305.303 119.537 304.389 121.091 302.991 121.644C302.141 121.98 301.186 121.916 300.302 122.148C298.296 122.676 297.026 124.572 295.623 126.101C293.357 128.56 290.404 130.282 287.148 131.044C286.007 131.308 284.781 131.477 283.874 132.218C282.673 133.199 282.377 134.881 282.11 136.409C281.372 140.628 280.244 144.769 278.74 148.78L283.505 149.388C284.411 149.504 285.349 149.617 286.222 149.348C286.856 149.109 287.457 148.789 288.01 148.396C290.132 147.079 292.507 146.222 294.981 145.88C296.229 145.709 297.537 145.677 298.708 146.141C299.879 146.605 300.883 147.657 300.981 148.912C301.488 148.755 302.027 148.738 302.543 148.863C303.058 148.988 303.529 149.251 303.907 149.624C304.653 150.384 305.142 151.359 305.304 152.412C305.429 153.064 305.555 153.845 306.16 154.118C306.653 154.342 307.219 154.101 307.759 154.058C309.591 153.911 311.111 156.047 312.912 155.68C314.843 155.285 315.317 152.393 317.201 151.814C318.283 151.481 319.8 151.886 320.318 150.879C320.775 149.992 319.864 148.969 319.958 147.975C320.073 146.752 321.516 146.233 322.628 145.711C326.463 143.912 328.282 138.751 326.424 134.945C325.323 132.69 323.157 130.915 322.757 128.437C322.449 126.531 323.201 124.309 321.986 122.808C321.367 122.045 320.321 121.624 319.953 120.713C319.721 120.14 319.814 119.489 319.69 118.884C319.565 118.278 319.037 117.645 318.439 117.802C316.703 118.257 316.149 123.62 315.22 124.923C313.807 126.903 310.907 125.599 311.352 123.158Z" fill="#8CC3DE"/>
<path d="M279.267 112.391C278.674 112.225 278.026 112.061 277.458 112.298C276.889 112.536 276.557 113.371 277.014 113.785C280.582 113.646 284.173 113.508 287.711 113.992C291.788 114.551 295.823 115.934 299.917 115.527C297.578 114.837 295.201 114.285 292.797 113.875L288.788 113.109C287.713 112.884 286.626 112.716 285.533 112.606C283.246 112.417 281.516 113.021 279.267 112.391Z" fill="#8CC3DE"/>
<path d="M282.84 99.9618C282.543 99.937 282.177 99.9157 282.023 100.17C281.877 100.414 282.044 100.735 281.966 101.008C281.858 101.381 281.37 101.476 280.985 101.426C280.6 101.375 280.184 101.253 279.844 101.439C279.671 101.557 279.541 101.728 279.473 101.926C279.406 102.124 279.404 102.339 279.469 102.538C279.609 102.933 279.834 103.292 280.129 103.59C280.633 104.225 281.208 104.801 281.841 105.307C283.068 106.212 284.73 106.649 285.502 107.963C285.611 108.218 285.779 108.443 285.991 108.621C286.362 108.856 286.846 108.677 287.245 108.495L288.644 107.855C288.897 107.764 289.122 107.611 289.299 107.41C289.619 106.976 289.422 106.359 289.154 105.892C288.885 105.425 288.542 104.941 288.599 104.405C288.702 103.45 289.931 103.084 290.436 102.267C290.945 101.443 290.613 100.381 290.672 99.4139C290.741 98.2831 291.451 96.8122 290.308 95.9673C289.337 95.2493 288.408 95.9127 287.71 96.7055C286.239 98.3772 285.544 100.188 282.84 99.9618Z" fill="#8CC3DE"/>
<path d="M265.814 97.1434C265.347 96.62 264.643 96.0724 264.016 96.3881C263.537 96.629 263.406 97.2907 263.593 97.7923C263.822 98.2795 264.173 98.6986 264.613 99.0083C265.92 100.086 267.326 101.058 268.466 102.31C270.506 104.552 271.586 107.576 273.804 109.641C274.25 110.119 274.84 110.439 275.485 110.55C276.131 110.61 276.857 110.197 276.931 109.552C276.992 109.021 276.622 108.546 276.26 108.152C275.398 107.215 274.455 106.352 273.642 105.373C273.266 104.997 273.03 104.504 272.972 103.975C272.968 103.448 273.449 102.896 273.96 103.027C273.339 102.868 272.878 101.833 271.966 101.638C271.204 101.476 271.02 101.947 270.113 101.558C268.383 100.816 267.026 98.4995 265.814 97.1434Z" fill="#8CC3DE"/>
<path d="M306.459 46.1767C305.963 46.0293 305.475 45.855 304.998 45.6547C303.713 45.2692 302.014 46.2132 302.185 47.5432C302.299 48.4268 303.121 49.0226 303.576 49.7891C304.249 50.9258 304.07 52.3675 303.716 53.6404C303.629 54.0346 303.464 54.4072 303.23 54.7362C302.903 55.0836 302.512 55.3647 302.079 55.5641C300.344 56.5367 298.815 57.8361 297.575 59.3906C297.44 59.5341 297.346 59.7112 297.303 59.9033C297.242 60.3523 297.693 60.6795 297.948 61.054C298.515 61.8859 298.105 63.0054 298.161 64.0106C298.153 64.1527 298.18 64.2946 298.242 64.423C298.304 64.5514 298.397 64.6618 298.514 64.744C298.855 64.9175 299.26 64.6227 299.445 64.2872C300.06 63.1738 299.597 61.3866 300.75 60.8498C300.968 60.7482 301.232 60.7054 301.378 60.5138C301.608 60.2099 301.386 59.76 301.503 59.3967C301.678 58.8513 302.424 58.8268 302.997 58.851C303.983 58.8922 304.969 58.761 305.91 58.4632C306.279 58.3754 306.614 58.1813 306.874 57.9048C307.219 57.4747 307.188 56.8632 307.119 56.3163C306.774 53.5901 305.911 50.9551 304.575 48.5536C305.588 48.683 306.69 48.795 307.564 48.2672C308.053 47.9717 308.64 47.0879 308.397 46.4863C308.013 45.535 307.32 46.3358 306.459 46.1767Z" fill="#8CC3DE"/>
<path d="M176.628 61.1705C176.749 61.8205 176.868 62.5049 176.655 63.1309C176.442 63.7568 175.772 64.2798 175.139 64.088C174.648 63.9392 174.364 63.4454 174.016 63.0689C172.076 60.9754 167.701 62.1875 166.503 59.5974C166.014 58.5403 166.347 57.2739 166.013 56.158C165.803 55.5131 165.384 54.9563 164.823 54.5751C164.262 54.1939 163.59 54.0099 162.913 54.0519C162.295 54.1411 161.694 54.3205 161.129 54.5845C157.341 56.1014 153.365 57.096 149.309 57.5408C148.538 57.5878 147.776 57.7265 147.038 57.954C145.372 58.5578 144.234 60.1017 143.425 61.6772C142.615 63.2527 142.017 64.9584 140.931 66.3581C139.79 67.8292 138.191 68.8593 136.7 69.9735C136.125 70.3438 135.647 70.8452 135.304 71.4365C134.981 72.1003 134.999 72.8724 135.024 73.6104L135.329 82.5731C135.368 83.7259 135.417 84.92 135.933 85.9516C136.578 87.2399 137.85 88.0837 138.733 89.2217C139.635 90.3913 140.104 91.8362 140.062 93.312C140.043 93.9053 139.985 94.6071 140.447 94.9798C140.728 95.162 141.057 95.2566 141.392 95.2516L153.516 96.2438C155.648 96.4184 158.012 96.7054 159.404 98.3302C160.061 99.0971 160.589 100.2 161.596 100.282C162.027 100.317 162.448 100.14 162.879 100.106C163.969 100.02 164.926 100.847 165.53 101.757C166.444 103.146 166.859 104.803 166.707 106.459C166.608 107.498 166.286 108.508 166.216 109.549C165.952 113.512 169.311 116.954 169.376 120.925C169.414 123.261 168.306 125.443 167.225 127.514C168.969 130.157 167.541 133.676 168.235 136.766C168.894 139.697 171.338 141.992 171.948 144.934C172.226 146.281 172.242 147.939 173.43 148.633C173.951 148.887 174.529 149.002 175.108 148.969C178.599 149.01 182.05 148.224 185.18 146.676C186.648 145.947 188.17 144.859 188.427 143.239C188.634 141.934 187.971 140.473 188.645 139.335C189.44 137.995 191.475 138.101 192.643 137.07C194.539 135.398 193.061 132.209 193.829 129.8C194.519 127.636 196.896 126.485 198.075 124.542C198.538 123.707 198.871 122.805 199.061 121.868C199.601 119.63 199.937 117.347 200.065 115.048C200.097 113.651 200.2 112.257 200.374 110.871C201.644 102.978 209.447 97.6936 211.98 90.1118C212.222 89.3877 212.335 88.4232 211.691 88.0135C211.309 87.8312 210.876 87.7859 210.464 87.8851L204.875 88.5897C204.181 88.6772 203.445 88.759 202.808 88.4707C202.17 88.1824 201.714 87.3759 202.052 86.7634C203.001 85.044 201.048 82.8712 200.181 81.1091C197.845 76.3644 195.063 71.8526 191.872 67.6346C191.668 67.4176 191.54 67.1399 191.508 66.8437L193.094 66.8965C192.559 64.9752 191.675 62.8727 189.809 62.1699C188.757 61.7738 187.592 61.9108 186.47 61.9721C183.255 62.1477 179.809 61.6624 176.628 61.1705Z" fill="#8CC3DE"/>
<path d="M186.472 17.8736C187.313 18.7668 188.256 19.7139 189.473 19.8696C191.622 20.1446 193.168 17.9217 194.152 15.9909C194.188 16.4832 194.415 16.9418 194.785 17.2692C195.154 17.5966 195.637 17.7671 196.13 17.7442C196.66 17.655 197.167 17.457 197.617 17.1627C201.876 14.8353 206.646 13.6021 211.5 13.5739C211.453 13.2063 211.544 12.8344 211.756 12.53C211.967 12.2257 212.284 12.0104 212.645 11.9258C213.631 11.7301 214.52 12.5833 214.996 13.4695C215.472 14.3557 215.769 15.3829 216.525 16.0463C217.282 16.7096 218.746 16.6807 219.045 15.7201C219.331 14.7979 218.371 14.0114 217.572 13.4677C216.774 12.924 215.933 11.9177 216.47 11.1153C220.548 10.2126 224.651 9.30656 228.824 9.12715C229.535 9.15188 230.242 9.02994 230.904 8.76892C231.54 8.45665 232.046 7.7478 231.875 7.05992C230.964 7.27398 230.01 7.21199 229.135 6.88187C228.26 6.55174 227.503 5.96844 226.96 5.20634C232.75 4.72854 238.909 4.32129 244.04 7.04569C244.656 8.36754 241.517 9.46732 242.357 10.6596C242.625 11.0398 243.161 11.0844 243.626 11.093C247.192 11.1592 250.778 11.2242 254.304 10.6858C255.592 10.4891 256.894 10.2114 258.187 10.3709C260.342 10.6366 262.184 12.0741 264.304 12.5428C265.167 12.7336 266.134 12.7401 266.861 12.2383C267.588 11.7365 267.901 10.594 267.305 9.94167C269.301 7.98572 272.613 8.47049 275.246 9.4069C277.878 10.3433 280.373 11.8534 283.159 12.0622C285.157 12.2118 287.183 11.6743 289.158 12.016C290.399 12.2307 291.553 12.7827 292.766 13.1218C295.06 13.7632 297.486 13.6278 299.867 13.6586C305.943 13.7405 311.953 14.9347 317.599 17.182C318.333 17.4211 319.006 17.8187 319.57 18.3466C320.095 18.9091 320.363 19.7833 320.01 20.4672L314.176 19.6148C314.726 20.6969 316.148 20.8813 317.302 21.2546C318.457 21.6279 319.655 22.9032 318.961 23.8988C317.709 23.5004 316.576 24.7514 315.943 25.9024C315.311 27.0535 314.541 28.432 313.23 28.5021C312.056 28.5649 310.636 27.565 309.87 28.4578C310.928 29.7917 311.833 31.2393 312.57 32.7738C313.326 34.3491 313.865 36.334 312.843 37.7514C312.682 38.0044 312.438 38.1935 312.153 38.2863C311.318 38.4976 310.776 37.4765 310.177 36.8576C309.423 36.0777 308.282 35.8568 307.261 35.491C306.239 35.1252 305.163 34.4057 305.083 33.3237C305.034 32.6505 305.389 32.0246 305.651 31.4024C306.091 30.3537 306.283 29.2176 306.213 28.0824C306.156 27.1692 305.9 26.2192 305.244 25.5811C304.588 24.943 303.456 24.7405 302.752 25.325C302.423 25.5977 302.16 26.0339 301.733 26.0502C300.979 26.079 300.4 24.7647 299.794 25.2134C299.865 25.6914 299.766 26.1792 299.514 26.5916C297.704 28.1657 294.924 27.4997 292.59 28.0558C291.481 28.3733 290.419 28.8372 289.432 29.4353C289.062 29.5931 288.748 29.8569 288.529 30.1931C288.237 30.7591 288.559 31.484 289.072 31.8603C289.616 32.1942 290.228 32.4031 290.863 32.4717C293.708 33.0104 296.594 33.8444 298.839 35.6715C301.085 37.4986 302.558 40.5188 301.847 43.3253L296.238 37.9653C296.451 40.2158 296.572 42.4726 296.6 44.7356C296.637 45.1775 296.576 45.6219 296.423 46.0379C296.023 46.9211 294.939 47.2184 293.989 47.4134C293.725 47.4635 293.474 47.5691 293.254 47.723C293.033 47.8769 292.848 48.0757 292.71 48.3063C292.571 48.537 292.484 48.7943 292.452 49.0613C292.42 49.3283 292.445 49.599 292.526 49.8556C292.863 50.9556 293.704 51.8131 294.475 52.6676C295.245 53.5221 296.003 54.4933 296.104 55.6394C296.205 56.7855 295.341 58.0773 294.193 57.9976C293.323 57.9372 292.677 57.1583 292.306 56.369C291.935 55.5797 291.714 54.7005 291.156 54.0298C289.469 51.9999 285.678 52.8696 284.166 50.7056C283.78 51.1428 283.513 51.6712 283.389 52.2408C283.266 52.8103 283.289 53.402 283.459 53.9597C284.162 53.5193 285.125 53.9285 285.654 54.5683C286.182 55.2081 286.431 56.0284 286.846 56.747C287.406 57.7167 288.298 58.5764 288.376 59.6935C288.355 60.1159 288.362 60.5392 288.397 60.9607C288.536 61.6375 289.108 62.1236 289.505 62.6893C290.428 64.0057 290.382 65.8142 289.787 67.3078C289.192 68.8014 288.124 70.0495 287.065 71.2596C285.216 73.3731 283.329 75.4742 281.137 77.2293C280.512 77.7301 279.844 78.2226 279.455 78.9228C279.065 79.623 279.045 80.6058 279.644 81.1384C279.215 81.1599 278.447 81.3705 278.019 81.392C277.868 79.6737 277.836 77.9471 277.921 76.2244C276.231 75.4127 274.411 77.5863 274.629 79.4487C274.847 81.3111 276.194 82.8056 277.153 84.4169C277.854 85.5952 278.375 86.9691 278.141 88.3201C277.907 89.6712 276.701 90.9176 275.335 90.7984C273.162 90.6089 272.253 87.4896 270.102 87.1326C269.912 87.0881 269.713 87.1078 269.536 87.1888C269.216 87.3641 269.161 87.7915 269.143 88.1554C269.055 89.9414 268.978 91.7984 269.676 93.4451C270.696 95.854 273.331 97.8773 272.778 100.434C269.8 99.0501 268.252 95.711 267.549 92.5036C266.846 89.2962 266.729 85.9291 265.469 82.8969C264.512 84.1232 262.501 83.1095 261.627 81.823C260.799 80.6034 260.288 79.1925 259.484 77.9564C258.68 76.7204 257.448 75.6136 255.975 75.5456C254.431 75.4743 253.092 76.5341 251.914 77.5355C250.945 78.3589 249.951 79.2148 249.385 80.353C248.561 82.0094 248.776 83.9621 248.737 85.8116C248.694 87.8111 248.27 89.9208 246.907 91.3846C245.544 92.8484 243.029 93.3582 241.526 92.039C240.741 91.3502 240.361 90.3212 240.023 89.3335C238.391 84.5721 237.032 79.7217 235.953 74.8057C235.701 75.9278 234.715 77.3739 233.774 76.713C233.563 76.5353 233.392 76.3149 233.272 76.0662C231.516 73.0905 228.265 71.3057 224.98 70.2355C221.695 69.1654 218.239 68.6662 214.99 67.49C213.17 66.8307 211.431 65.9645 209.808 64.9086C209.394 65.5165 209.152 66.2249 209.109 66.9589C209.065 67.6928 209.22 68.425 209.559 69.0778C210.279 70.3537 211.91 71.092 213.306 70.646C214.027 70.4155 214.636 69.9148 215.352 69.6674C216.068 69.4201 217.029 69.5416 217.342 70.2311C217.641 70.8912 217.188 71.6897 217.413 72.3788C217.755 73.4285 219.338 73.5093 219.892 74.4645C220.304 75.1751 219.965 76.1189 219.377 76.6923C218.788 77.2658 218.004 77.5803 217.286 77.9795C214.957 79.2747 213.3 81.4858 211.265 83.206C209.229 84.9263 206.357 86.1823 203.931 85.0788C204.509 82.1506 201.021 80.0007 200.38 77.0858C200.168 76.1263 200.278 75.1071 199.976 74.1721C199.54 72.8184 198.339 71.8876 197.353 70.8618C196.158 69.604 195.227 68.1195 194.615 66.4961C194.003 64.8726 193.723 63.1431 193.79 61.4094C193.843 60.2047 194.064 58.9803 193.79 57.8061C193.516 56.6318 192.543 55.4953 191.339 55.5485C188.587 55.67 185.121 55.8747 183.677 53.5291C183.162 52.6919 182.938 51.4658 183.682 50.8244C184.208 50.372 184.984 50.4146 185.674 50.4825L191.873 51.0924C193.324 51.235 194.891 51.3527 196.135 50.5947C197.38 49.8366 197.919 47.8244 196.767 46.9326C195.925 46.2809 194.416 46.3163 194.172 45.2802C193.968 44.4173 194.923 43.4382 194.407 42.7171C194.037 42.2 193.206 42.3435 192.702 42.7311C192.198 43.1187 191.832 43.6856 191.268 43.979C190.279 44.4939 189.097 44.0039 188.033 43.6709C186.968 43.3379 185.541 43.3096 185.025 44.2981C184.448 45.4037 185.537 46.8524 184.964 47.9602C184.207 49.4249 181.641 48.5911 180.577 49.8509C179.357 51.2966 181.408 53.4523 180.996 55.2991C180.471 55.5595 179.887 55.679 179.301 55.6461C178.715 55.6132 178.148 55.429 177.655 55.1114C177.17 54.7815 176.783 54.3263 176.537 53.7942C176.29 53.2621 176.191 52.673 176.253 52.0896C176.354 51.2588 176.788 50.4107 176.497 49.6256C176.263 48.9908 175.625 48.6129 175.033 48.2856L169.008 44.9564C168.449 45.994 169.156 47.2804 170.041 48.0597C170.925 48.8391 172.033 49.4261 172.614 50.4518C172.981 51.1624 173.064 51.9865 172.844 52.7558C172.624 53.5251 172.119 54.1816 171.432 54.5912C171.346 54.6506 171.248 54.6907 171.145 54.7087C171.042 54.7267 170.936 54.7221 170.835 54.6954C170.739 54.6389 170.655 54.5637 170.589 54.4742C170.522 54.3848 170.474 54.2829 170.448 54.1745C169.385 51.4543 167.789 48.7722 165.237 47.3511C162.686 45.9301 159.019 46.2222 157.346 48.6161C156.948 49.1846 156.682 49.8327 156.336 50.4339C154.496 53.6276 150.553 55.14 146.869 55.0412C146.508 55.0611 146.15 54.9768 145.836 54.7985C145.24 54.3873 145.267 53.5146 145.358 52.7968L145.745 49.7503C145.823 49.1385 145.935 48.4624 146.419 48.0805C147.102 47.5422 148.087 47.8819 148.956 47.8694C149.614 47.8385 150.247 47.606 150.769 47.2032C151.291 46.8004 151.677 46.247 151.873 45.6178C152.049 44.9824 152.048 44.3111 151.87 43.6763C151.692 43.0415 151.345 42.4672 150.865 42.0154C150.466 41.6412 149.932 41.1712 150.142 40.6668C150.226 40.5272 150.34 40.4078 150.475 40.3168C150.61 40.2259 150.763 40.1656 150.924 40.1403C152.485 39.6869 154.135 39.5681 155.67 39.0331C157.205 38.4981 158.694 37.4036 159.058 35.819C159.169 35.3334 159.22 34.7452 159.656 34.5044C159.875 34.412 160.11 34.364 160.348 34.3631C161.18 34.2447 161.938 33.819 162.472 33.1698C163.006 32.5206 163.278 31.695 163.234 30.8554C163.97 30.3413 165 30.7195 165.712 31.2663C166.424 31.8131 167.052 32.5356 167.919 32.7713C169.533 33.2106 171.092 31.7815 172.765 31.7749C173.469 31.7721 174.197 32.0208 174.859 31.7823C175.53 31.5405 175.93 30.8727 176.445 30.3793C176.96 29.8859 177.863 29.585 178.339 30.1165L177.934 27.1175C178.749 27.3235 179.599 27.3527 180.427 27.2031C181.255 27.0534 182.04 26.7285 182.732 26.2501L177.499 24.482C177.317 24.4365 177.149 24.3467 177.01 24.2204C176.63 23.8108 177.008 23.1724 177.317 22.7067C178.057 21.5928 178.181 19.7578 176.964 19.2032C176.134 18.8246 175.18 19.279 174.383 19.7236L170.564 21.8531C170.442 22.579 171.33 22.9905 171.88 23.4795C172.213 23.7753 172.448 24.1649 172.556 24.5971C172.663 25.0293 172.637 25.4838 172.482 25.901C172.326 26.3183 172.048 26.6786 171.683 26.9348C171.319 27.191 170.886 27.331 170.441 27.3364C170.692 27.6634 170.867 28.0427 170.952 28.4464C171.037 28.85 171.03 29.2676 170.932 29.6683L168.362 29.8531C168.074 29.9111 167.774 29.8526 167.529 29.6904C167.254 29.4463 167.291 29.0186 167.228 28.6566C167.074 27.7828 166.218 27.1704 165.345 27.0134C164.472 26.8564 163.579 27.0577 162.714 27.2564C162.347 27.3885 161.944 27.3792 161.583 27.2303C161.376 27.096 161.219 26.8976 161.136 26.6656C160.757 25.7465 161.111 24.6661 161.72 23.8801C162.328 23.0941 163.162 22.5195 163.91 21.8652C165.7 20.2947 167.015 18.2549 167.707 15.9763C169.122 15.3836 170.586 14.5783 172.001 13.9856C174.182 12.8814 176.627 12.4075 179.063 12.6173L183.854 12.7088C185.272 12.7359 186.729 12.7706 188.04 13.3113C189.352 13.852 190.504 15.0215 190.595 16.4373C190.622 16.5975 190.608 16.7621 190.554 16.9156C190.501 17.069 190.409 17.2063 190.287 17.3145C190.102 17.4156 189.892 17.4629 189.682 17.451C188.359 17.4975 187.795 17.8271 186.472 17.8736Z" fill="#8CC3DE"/>
<path d="M148.288 32.8876C148.475 32.7104 148.61 32.4851 148.677 32.2364C148.745 31.9876 148.742 31.7251 148.67 31.4777C148.215 31.302 147.719 31.2568 147.24 31.3474C146.76 31.438 146.315 31.6607 145.955 31.9904C145.671 32.2775 145.427 32.6008 145.228 32.952C144.598 33.9791 144.041 35.2058 144.406 36.3539C144.436 36.4791 144.49 36.5971 144.566 36.7009C144.642 36.8048 144.738 36.8925 144.848 36.9588C145.012 37.0244 145.188 37.052 145.364 37.0395C146.057 37.0386 146.75 36.996 147.439 36.9119C147.861 36.8602 148.352 36.7408 148.516 36.3475C148.73 35.8305 148.211 35.2454 148.362 34.7065C148.462 34.4655 148.613 34.2492 148.805 34.0726C148.9 33.9836 148.973 33.8737 149.019 33.7516C149.064 33.6295 149.08 33.4985 149.066 33.369C149.005 33.1161 148.618 32.9726 148.478 33.1923" fill="#8CC3DE"/>
<path d="M151.884 28.2253C151.268 28.0839 150.633 28.044 150.004 28.1073C149.865 28.1031 149.727 28.1345 149.603 28.1983C149.484 28.2867 149.397 28.4125 149.356 28.5558C149.224 28.9821 149.256 29.4429 149.448 29.8462C149.64 30.2496 149.976 30.5659 150.39 30.7323C150.616 30.7842 150.833 30.8711 151.032 30.99C151.563 31.4025 151.224 32.2457 151.325 32.9112C151.438 33.6584 152.161 34.2856 152.029 35.0296C151.924 35.6157 151.298 36.0798 151.399 36.6666C151.505 37.2812 152.285 37.4659 152.906 37.5151C153.266 37.5782 153.637 37.5357 153.974 37.3927C154.311 37.162 154.551 36.8144 154.648 36.4171C154.902 35.6596 155.009 34.8603 154.963 34.0626C154.96 33.6997 154.869 33.343 154.697 33.0233C154.51 32.77 154.302 32.5324 154.077 32.3129C152.886 30.9275 154.14 28.861 151.884 28.2253Z" fill="#8CC3DE"/>
<path opacity="0.8" d="M308.497 136.75C308.497 136.75 217.279 84.3894 178.008 94.3104C178.008 94.3104 94.7821 103.267 85.1367 122.971C85.1367 122.971 58.6807 40.296 49.0353 37.5402" stroke="#036897" stroke-miterlimit="10"/>
<path opacity="0.8" d="M85.1367 122.971C100.432 82.1847 238.223 36.989 238.223 36.989C218.657 41.9495 178.008 94.3104 178.008 94.3104C178.008 94.3104 92.0262 31.7529 49.0352 37.5402C49.0352 37.5402 238.361 43.7408 308.497 136.75" stroke="#036897" stroke-miterlimit="10"/>
<path d="M49.0353 41.5361C51.2422 41.5361 53.0312 39.7471 53.0312 37.5402C53.0312 35.3332 51.2422 33.5442 49.0353 33.5442C46.8284 33.5442 45.0393 35.3332 45.0393 37.5402C45.0393 39.7471 46.8284 41.5361 49.0353 41.5361Z" fill="#036897"/>
<path d="M85.1367 126.967C87.3436 126.967 89.1327 125.178 89.1327 122.971C89.1327 120.764 87.3436 118.975 85.1367 118.975C82.9298 118.975 81.1407 120.764 81.1407 122.971C81.1407 125.178 82.9298 126.967 85.1367 126.967Z" fill="#036897"/>
<path d="M238.223 40.985C240.43 40.985 242.219 39.1959 242.219 36.989C242.219 34.7821 240.43 32.993 238.223 32.993C236.016 32.993 234.227 34.7821 234.227 36.989C234.227 39.1959 236.016 40.985 238.223 40.985Z" fill="#036897"/>
<path d="M308.497 140.746C310.704 140.746 312.493 138.957 312.493 136.75C312.493 134.543 310.704 132.754 308.497 132.754C306.29 132.754 304.501 134.543 304.501 136.75C304.501 138.957 306.29 140.746 308.497 140.746Z" fill="#036897"/>
<path d="M178.008 98.3064C180.215 98.3064 182.004 96.5173 182.004 94.3104C182.004 92.1035 180.215 90.3145 178.008 90.3145C175.801 90.3145 174.012 92.1035 174.012 94.3104C174.012 96.5173 175.801 98.3064 178.008 98.3064Z" fill="#036897"/>
<path d="M276.076 82.2049C276.07 85.2989 275.147 88.3218 273.424 90.8913C271.7 93.4608 269.253 95.4616 266.393 96.6405C263.532 97.8195 260.386 98.1237 257.353 97.5147C254.319 96.9057 251.535 95.4109 249.351 93.2192C247.167 91.0275 245.682 88.2375 245.084 85.2019C244.485 82.1662 244.801 79.0214 245.99 76.165C247.179 73.3086 249.188 70.869 251.764 69.1546C254.34 67.4402 257.366 66.5281 260.46 66.5336C262.516 66.5319 264.551 66.9365 266.45 67.7241C268.349 68.5118 270.074 69.6669 271.525 71.1232C272.976 72.5795 274.125 74.3082 274.906 76.21C275.687 78.1117 276.085 80.1491 276.076 82.2049Z" fill="#F2F2F2"/>
<path d="M302.206 97.8203L304.405 93.6203C302.433 91.2385 295.961 88.3497 295.961 88.3497L287.203 80.3775C287.109 80.0218 286.924 79.697 286.665 79.4357C286.407 79.1744 286.084 78.9859 285.729 78.8891C285.374 78.7923 285 78.7907 284.644 78.8844C284.289 78.9781 283.964 79.1638 283.703 79.4229C283.442 79.6819 283.254 80.0051 283.158 80.36C283.061 80.7148 283.06 81.0888 283.154 81.4443C283.249 81.7997 283.435 82.1241 283.694 82.3848C283.953 82.6455 284.277 82.8332 284.632 82.9291L294.094 94.2778L302.206 97.8203Z" fill="#036897"/>
<path d="M301.14 97.5306L304.246 98.5195C306.504 99.2386 308.938 99.1844 311.163 98.3655C311.835 98.115 312.425 97.6813 312.864 97.1134C313.303 96.5455 313.575 95.8661 313.648 95.1519C313.741 94.1831 313.463 93.2151 312.87 92.4437C312.276 91.6723 311.412 91.1549 310.452 90.9963C307.539 90.5177 303.786 90.2816 302.447 91.8749L302.434 91.8911L301.14 97.5306Z" fill="#44BCE4"/>
<path d="M278.8 110.388C287.44 110.388 294.444 103.384 294.444 94.7447C294.444 86.1049 287.44 79.1011 278.8 79.1011C270.161 79.1011 263.157 86.1049 263.157 94.7447C263.157 103.384 270.161 110.388 278.8 110.388Z" fill="white"/>
<path d="M272.416 88.6257C272.201 89.7792 271.849 90.9029 271.367 91.9727C268.608 97.8105 276.466 95.9077 279.275 95.9077C282.345 95.9077 285.283 97.5224 284.835 90.3479C284.643 87.2833 282.345 84.7881 279.275 84.7881C276.652 84.7881 272.964 85.9539 272.416 88.6257Z" fill="#2F2E41"/>
<path d="M278.815 95.9063C281.31 95.9063 283.333 93.8836 283.333 91.3883C283.333 88.8931 281.31 86.8704 278.815 86.8704C276.32 86.8704 274.297 88.8931 274.297 91.3883C274.297 93.8836 276.32 95.9063 278.815 95.9063Z" fill="#036897"/>
<path d="M275.747 86.7829C276.538 86.3003 277.445 86.0392 278.372 86.0269C279.299 86.0147 280.213 86.2518 281.017 86.7134C281.821 87.175 282.486 87.8442 282.943 88.6509C283.4 89.4577 283.632 90.3724 283.615 91.2995C281.313 91.8775 278.894 92.3198 276.439 91.4377L275.859 90.0188L275.517 91.4388C274.77 91.7444 274.02 92.0029 273.27 91.4358C273.24 90.5114 273.452 89.5951 273.887 88.7786C274.321 87.9621 274.963 87.2739 275.747 86.7829Z" fill="#2F2E41"/>
<path d="M290.964 105.146C288.254 108.23 284.44 110.125 280.345 110.421C276.25 110.716 272.203 109.39 269.078 106.728L270.419 102.984C270.723 102.319 271.201 101.749 271.804 101.336C272.406 100.922 273.11 100.68 273.839 100.636L274.693 100.583L276.728 98.8278C276.728 98.8278 282.213 98.632 282.131 98.5382L285.453 100.536L285.451 100.523L286.757 100.603C287.486 100.647 288.19 100.888 288.792 101.302C289.395 101.716 289.873 102.286 290.177 102.951L290.964 105.146Z" fill="#8CC3DE"/>
<path d="M266.678 154.665L265.837 142.962C260.325 140.207 254.224 138.839 248.064 138.977C256.731 145.676 256.037 159.065 262.039 168.228C263.933 171.071 266.442 173.452 269.381 175.194C272.32 176.936 275.614 177.994 279.017 178.29L286.23 182.439C287.055 176.986 286.688 171.419 285.154 166.121C283.621 160.823 280.957 155.921 277.346 151.752C275.297 149.433 272.965 147.382 270.403 145.646C268.827 150.172 266.678 154.665 266.678 154.665Z" fill="#8CC3DE"/>
<path d="M296.228 168.381L296.654 162.457C299.444 161.063 302.532 160.37 305.65 160.44C301.263 163.831 301.615 170.608 298.577 175.246C297.618 176.685 296.348 177.89 294.86 178.772C293.372 179.653 291.705 180.189 289.983 180.339L286.332 182.439C285.914 179.679 286.1 176.861 286.876 174.179C287.653 171.498 289.001 169.017 290.829 166.906C291.866 165.733 293.046 164.694 294.343 163.816C295.141 166.107 296.228 168.381 296.228 168.381Z" fill="#366B85"/>
<path d="M292.005 180.611L289.406 180.611L288.169 170.586H292.005L292.005 180.611Z" fill="#9E616A"/>
<path d="M292.668 183.131L284.287 183.131V183.025C284.287 182.159 284.631 181.33 285.242 180.718C285.854 180.106 286.684 179.763 287.549 179.762H287.549L289.08 178.601L291.936 179.763L292.668 179.763L292.668 183.131Z" fill="#2F2E41"/>
<path d="M314.913 180.611L312.314 180.611L311.077 170.586H314.913L314.913 180.611Z" fill="#9E616A"/>
<path d="M315.576 183.131L307.195 183.131V183.025C307.195 182.159 307.539 181.33 308.15 180.718C308.762 180.106 309.592 179.763 310.457 179.762H310.457L311.988 178.601L314.844 179.763L315.576 179.763L315.576 183.131Z" fill="#2F2E41"/>
<path d="M310.96 126.953L313.146 147.722C313.146 147.722 316.056 168.517 315.51 171.387C314.963 174.256 315.646 174.666 315.646 174.666L310.659 174.311C310.659 174.311 310.796 172.535 309.976 171.715C309.156 170.895 309.566 168.435 309.566 168.435L299.892 134.605L294.017 152.368C294.017 152.368 293.06 171.907 292.924 172.18C292.787 172.453 292.377 176.142 292.377 176.142H287.322C287.322 176.142 288.005 173.956 287.048 173.273C286.092 172.59 285.272 173.136 286.092 171.907C286.912 170.677 287.185 169.174 286.912 168.491C286.638 167.807 286.638 165.075 286.638 165.075C286.638 165.075 287.048 128.183 289.371 126.953C291.694 125.724 310.96 126.953 310.96 126.953Z" fill="#27ACD9"/>
<path d="M295.122 72.7726C296.394 73.3516 297.58 73.915 297.761 74.0744C297.963 74.2324 299.389 74.8869 300.963 75.5312C304.29 76.9367 306.096 77.8658 309.047 79.6832C310.223 80.419 311.263 81.0138 311.347 81.0081C311.411 81.0038 310.992 80.4741 310.395 79.8277L309.297 78.6787L310.493 79.6923C311.757 80.787 311.827 81.1901 310.769 81.2621C309.86 81.3239 306.777 80.6962 306.415 80.3773C306.188 80.1566 306.016 80.4474 305.477 81.9009C304.422 84.8278 304.293 86.3609 305.059 86.9958C305.328 87.2136 305.517 87.4799 305.482 87.5896C305.34 88.0071 298.36 97.59 298.191 97.6015C298.085 97.6087 296.89 89.0967 296.873 88.8403C296.866 88.7335 296.419 87.7858 296.651 87.77C297.138 87.7369 296.659 87.5668 298.29 86.2322L298.489 85.1023L297.664 85.1584C297.008 85.203 296.768 85.112 296.44 84.662C295.903 83.9472 295.75 81.7034 296.104 79.4038C296.356 77.798 296.393 77.7097 296.753 78.0072C297.202 78.3631 297.989 78.3739 298.158 78.0405C298.234 77.9065 298.017 77.8354 297.636 77.8613C297.107 77.8973 296.951 77.8005 296.815 77.3589C296.626 76.7706 296.866 75.2945 297.3 74.4922C297.508 74.1131 297.522 74.0048 297.311 74.0192C297.141 74.0307 296.88 74.5637 296.709 75.1764L296.405 76.3348L295.246 75.2329C294.61 74.6321 293.696 73.6853 293.214 73.1599C291.673 71.4399 291.987 71.3756 295.122 72.7726ZM299.246 78.7179C299.382 79.1595 299.536 79.2349 300.149 79.1932C300.551 79.1658 300.883 79.036 300.875 78.9291C300.867 78.8009 300.586 78.7341 300.247 78.7572C299.803 78.7874 299.604 78.6721 299.496 78.3359C299.394 78.0853 299.278 77.9429 299.198 78.0127C299.14 78.1025 299.141 78.4245 299.246 78.7179ZM297.777 79.6335C297.486 80.0397 297.177 81.1127 297.367 81.0997C297.452 81.094 297.701 80.6906 297.922 80.2033C298.29 79.3625 298.204 79.0249 297.777 79.6335ZM296.657 82.844C296.159 82.4055 295.887 82.467 296.115 83.0096C296.413 83.6334 297.251 83.7697 298.07 83.3061C298.478 83.0636 298.796 82.7415 298.786 82.5919C298.77 82.3568 298.581 82.3911 297.949 82.7776L297.131 83.2625L296.657 82.844Z" fill="#036897"/>
<path d="M302.641 70.1579C302.95 70.3301 303.576 70.7813 304.069 71.1557C304.541 71.5315 305.359 71.9912 305.904 72.1903C307.255 72.678 307.435 73.1381 307.13 75.2197C307.002 76.1516 306.847 76.9993 306.79 77.0891C306.733 77.2003 306.352 76.9042 305.918 76.4614C304.845 75.3751 302.302 73.9164 300.125 73.1628C299.145 72.8215 298.336 72.49 298.332 72.4259C298.316 72.1909 301.643 69.8608 302.024 69.8349C302.066 69.8321 302.353 69.9843 302.641 70.1579Z" fill="#068EB0"/>
<path d="M296.124 73.1756L310.782 80.9486L311.244 80.6764L310.727 80.1041L307.013 76.468L306.083 75.0745L298.697 72.1608L292.303 71.6058L296.124 73.1756Z" fill="#3BB0D7" stroke="#3AB0D7"/>
<path d="M312.818 129.217C302.405 131.367 288.605 127.67 288.605 127.67L292.286 111.713L290.977 95.0129C290.817 92.9707 291.981 91.0564 293.79 90.378L296.289 89.4421V87.0785L298.149 85.8622L301.848 86.318L304.776 85.8622L306.611 89.7831L308.473 90.7704L312.507 92.9103L312.525 92.9192V92.928L311.259 105.21L310.495 112.615C310.495 112.615 312.814 120.943 312.338 122.048C311.863 123.151 312.276 122.618 312.392 123.208C312.507 123.797 312.861 123.834 312.914 124.996C312.969 126.155 312.818 129.217 312.818 129.217Z" fill="#27ACD9"/>
<path d="M325.406 183.309H244.968C244.92 183.309 244.874 183.29 244.841 183.256C244.807 183.223 244.788 183.177 244.788 183.129C244.788 183.082 244.807 183.036 244.841 183.002C244.874 182.968 244.92 182.949 244.968 182.949H325.406C325.454 182.949 325.5 182.968 325.534 183.002C325.567 183.036 325.586 183.081 325.586 183.129C325.586 183.177 325.567 183.223 325.534 183.257C325.5 183.29 325.454 183.309 325.406 183.309Z" fill="#CCCCCC"/>
<path d="M260.432 78.009L262.269 82.5026L265.242 86.3405L260.432 85.6849L255.622 86.3405L258.595 82.5026L260.432 78.009Z" fill="#D9D9D9"/>
<path d="M278.8 110.584C275.668 110.584 272.605 109.655 270 107.915C267.396 106.174 265.365 103.7 264.167 100.806C262.968 97.9118 262.654 94.727 263.265 91.6544C263.876 88.5819 265.385 85.7595 267.6 83.5443C269.815 81.3291 272.638 79.8206 275.71 79.2094C278.783 78.5982 281.968 78.9119 284.862 80.1107C287.756 81.3096 290.23 83.3398 291.97 85.9446C293.711 88.5494 294.64 91.6118 294.64 94.7446C294.635 98.944 292.965 102.97 289.995 105.94C287.026 108.909 283 110.579 278.8 110.584ZM278.8 79.297C275.745 79.297 272.758 80.203 270.218 81.9004C267.678 83.5978 265.698 86.0103 264.529 88.833C263.359 91.6557 263.054 94.7617 263.65 97.7582C264.246 100.755 265.717 103.507 267.877 105.668C270.038 107.828 272.79 109.299 275.787 109.895C278.783 110.491 281.889 110.185 284.712 109.016C287.535 107.847 289.947 105.867 291.645 103.327C293.342 100.786 294.248 97.7998 294.248 94.7446C294.243 90.649 292.614 86.7226 289.718 83.8266C286.822 80.9306 282.896 79.3016 278.8 79.297Z" fill="#44BCE4"/>
<path d="M293.248 102.86L290.88 98.7531C287.812 99.1428 281.906 103.06 281.906 103.06L270.482 106.186C270.132 106.074 269.758 106.056 269.399 106.135C269.04 106.213 268.708 106.385 268.436 106.633C268.164 106.881 267.963 107.196 267.851 107.546C267.74 107.896 267.723 108.27 267.802 108.629C267.881 108.988 268.053 109.32 268.301 109.592C268.549 109.863 268.864 110.065 269.215 110.175C269.565 110.286 269.939 110.303 270.298 110.224C270.657 110.144 270.989 109.972 271.26 109.723L285.912 107.812L293.248 102.86Z" fill="#036897"/>
<path d="M273.024 109.623L287.036 108.602L297.735 99.1635L298.507 95.5887C298.655 94.8864 298.605 94.1564 298.361 93.4812C298.116 92.8061 297.688 92.2127 297.124 91.7681C296.356 91.1706 295.39 90.8872 294.42 90.975C293.451 91.0629 292.551 91.5156 291.903 92.2415C289.939 94.4446 283.712 99.9108 284.34 101.895L271.052 105.816L273.024 109.623Z" fill="#E6E6E6"/>
</svg>
