<svg width="105" height="152" viewBox="0 0 105 152" fill="none" xmlns="http://www.w3.org/2000/svg">
<path d="M103.934 116.84L69.5329 151H8.75543C4.48067 151 1 147.534 1 143.306V21.7517C1 17.524 4.48067 14.0576 8.75543 14.0576H96.1786C100.453 14.0576 103.934 17.524 103.934 21.7517V116.84Z" fill="white" stroke="#E5EBEF" stroke-width="2"/>
<path d="M69.9451 125.95V152L104.934 117.256H78.7005C73.8801 117.256 69.9451 121.163 69.9451 125.95Z" fill="#E5EBEF"/>
<path d="M92.8666 13.0574H88.7348C87.0952 7.84747 82.242 4.10283 76.4707 4.07027C69.4532 4.07027 63.7474 9.67095 63.6163 16.6392V50.9923C63.6163 55.8766 67.5841 59.8166 72.5029 59.8166C77.4216 59.8166 81.3895 55.8766 81.3895 50.9923V45.0985V18.593C81.3895 15.8903 79.1596 13.6761 76.4379 13.6761C73.7162 13.6761 71.4863 15.8578 71.4863 18.593V45.0985C71.4863 46.1731 70.6009 47.0523 69.5188 47.0523C68.4367 47.0523 67.5513 46.1731 67.5513 45.0985V18.593C67.5841 13.7412 71.5519 9.8012 76.4379 9.8012C81.3239 9.8012 85.3245 13.7412 85.3245 18.593V50.9597C85.1933 57.8955 79.4875 63.4636 72.4701 63.4636C65.4854 63.4636 59.7468 57.8955 59.6157 50.9597V46.0428V16.6392C59.6812 7.45673 67.2234 0 76.4707 0C84.5047 0 91.1942 5.56812 92.8666 13.0574Z" fill="#E5EBEF"/>
</svg>
