<svg width="152" height="132" viewBox="0 0 152 132" fill="none" xmlns="http://www.w3.org/2000/svg">
<path d="M5.23757 31.8563L5.23817 31.8561L119.93 1.19215C122.976 0.379803 126.221 2.21968 127.026 5.23773L127.027 5.24018L149.727 89.5041C150.533 92.5252 148.725 95.665 145.57 96.4788L145.562 96.481L30.87 127.145C27.824 127.957 24.5791 126.117 23.7743 123.099L23.774 123.098L1.19227 38.833C1.1922 38.8328 1.19213 38.8325 1.19205 38.8322C0.384423 35.8021 2.20457 32.6652 5.23757 31.8563Z" fill="white" stroke="#E5EBEF" stroke-width="2"/>
<path d="M14.7283 38.1496L14.7283 38.1496L14.7358 38.1476L115.045 11.4066C115.045 11.4066 115.045 11.4065 115.046 11.4064C117.505 10.7655 120.095 12.2615 120.856 14.7451L139.631 84.4998C139.632 84.5005 139.632 84.5011 139.632 84.5018C140.274 86.9687 138.769 89.5461 136.305 90.189L136.302 90.1897L35.993 116.931C35.9929 116.931 35.9928 116.931 35.9927 116.931C33.5332 117.572 30.9422 116.076 30.1818 113.592L11.4055 43.8338L11.4034 43.8259L11.401 43.8181C10.6561 41.3706 12.1405 38.7965 14.7283 38.1496Z" fill="white" stroke="#E5EBEF"/>
<path d="M25.779 30.7014H145.225C148.465 30.7014 151 33.3323 151 36.4759V125.021C151 128.26 148.369 130.795 145.225 130.795H25.779C22.5395 130.795 20.0045 128.164 20.0045 125.021V36.4762C20.0045 33.3438 22.647 30.7014 25.779 30.7014Z" fill="white" stroke="#E5EBEF" stroke-width="2"/>
<path d="M28.5128 44.439V69.8734C29.7011 69.9923 30.8898 70.1112 32.0782 70.1112C47.1723 70.1112 59.4144 57.8695 59.4144 42.7751C59.4144 41.5867 59.2955 40.398 59.1766 39.2096H33.7422C30.7709 39.2096 28.5128 41.5867 28.5128 44.439Z" fill="#E5EBEF"/>
<path d="M37.189 97.4474C34.2178 97.4474 31.2465 97.6852 28.5128 98.0416V117.177C28.5128 120.029 30.8898 122.406 33.7422 122.406H73.3201C73.5579 121.336 73.6768 120.386 73.6768 119.316C73.6765 107.193 57.394 97.4474 37.189 97.4474Z" fill="#E5EBEF"/>
<path opacity="0.3" d="M120.029 86.7504C87.4633 86.7504 60.9592 102.676 60.6028 122.406H137.382C140.234 122.406 142.611 120.029 142.611 117.177V89.4841C135.599 87.8202 127.992 86.7504 120.029 86.7504Z" fill="#E5EBEF"/>
<path d="M33.7422 39.7096H137.5C140.077 39.7096 142.23 41.8628 142.23 44.439V117.177C142.23 119.753 140.077 121.906 137.5 121.906H33.7422C31.166 121.906 29.0128 119.753 29.0128 117.177V44.439C29.0128 41.8554 31.0545 39.7096 33.7422 39.7096Z" stroke="#E5EBEF"/>
</svg>
