<svg width="289" height="182" viewBox="0 0 289 182" fill="none" xmlns="http://www.w3.org/2000/svg">
<path d="M267.547 0.206055H12.2437C5.61624 0.206055 0.243652 5.57864 0.243652 12.2061V167.632C0.243652 174.259 5.61624 179.632 12.2437 179.632H267.547C274.174 179.632 279.547 174.259 279.547 167.632V12.2061C279.547 5.57864 274.174 0.206055 267.547 0.206055Z" fill="#E5F8FF"/>
<path d="M233.061 42.7908L237.897 33.8868" stroke="black" stroke-width="3" stroke-linecap="round"/>
<path d="M220.015 39.1115L219.692 32.0582" stroke="black" stroke-width="3" stroke-linecap="round"/>
<path d="M244.92 50.1162L250.703 46.606" stroke="black" stroke-width="3" stroke-linecap="round"/>
<mask id="mask0_979_592" style="mask-type:luminance" maskUnits="userSpaceOnUse" x="168" y="53" width="121" height="121">
<path d="M288.637 91.1956L206.133 53.2617L168.199 135.766L250.703 173.7L288.637 91.1956Z" fill="white"/>
</mask>
<g mask="url(#mask0_979_592)">
<path d="M269.3 102.95L248.934 159.479C247.838 162.519 244.485 164.094 241.447 162.999L190.579 144.672C187.539 143.576 185.963 140.225 187.059 137.186L213.873 62.7616C214.968 59.7215 218.319 58.1456 221.36 59.2409L254.331 71.1206L269.3 102.95Z" fill="#ADE7FC"/>
<path d="M247.158 116.996L215.518 105.595L214.252 109.112L245.892 120.511L247.158 116.996Z" fill="white"/>
<path d="M244.33 124.848L212.689 113.447L211.422 116.964L243.063 128.363L244.33 124.848Z" fill="white"/>
<path d="M241.5 132.7L209.86 121.3L208.594 124.816L240.234 136.215L241.5 132.7Z" fill="white"/>
<path d="M229.533 137.259L207.031 129.152L205.764 132.668L228.266 140.775L229.533 137.259Z" fill="white"/>
<path d="M249.276 95.1616L266.484 110.767L269.3 102.95L259.063 95.4404L249.276 95.1616Z" fill="#91DDF9"/>
<path d="M269.3 102.95L251.404 96.5026C248.364 95.4072 246.788 92.0562 247.884 89.0162L254.331 71.1204L269.3 102.95Z" fill="#96E0FB"/>
</g>
<path d="M90.495 173.534V175.543H68.0511V173.534H20.2131V174.36C20.2131 175.661 20.6851 176.959 21.6315 177.905C22.5755 178.849 23.8758 179.323 25.1761 179.323H133.256C134.557 179.323 135.855 178.851 136.801 177.905C137.745 176.961 138.219 175.661 138.219 174.36V173.534H90.495ZM36.042 176.841H31.0811V176.251H36.042V176.841Z" fill="#ADE7FC"/>
<path d="M34.2694 171.643H124.158C124.984 171.643 125.813 171.289 126.403 170.699C126.993 170.109 127.347 169.281 127.347 168.455V111.047C127.347 110.221 126.993 109.393 126.403 108.803C125.813 108.213 124.984 107.859 124.158 107.859H34.2694C33.4434 107.859 32.6151 108.213 32.0251 108.803C31.4351 109.393 31.0811 110.221 31.0811 111.047V168.453C31.0811 169.279 31.4351 170.107 32.0251 170.697C32.7331 171.408 33.4434 171.643 34.2694 171.643ZM79.2731 109.277C79.8631 109.277 80.3351 109.749 80.3351 110.339C80.3351 110.929 79.8631 111.401 79.2731 111.401C78.6831 111.401 78.211 110.929 78.211 110.339C78.211 109.749 78.6831 109.277 79.2731 109.277ZM36.16 112.82H122.389V166.683H36.16V112.82Z" fill="#ADE7FC"/>
<path d="M195.563 35.9995H105.296C101.43 35.9995 98.2961 39.1335 98.2961 42.9995V154.49C98.2961 158.356 101.43 161.49 105.296 161.49H195.563C199.429 161.49 202.563 158.356 202.563 154.49V42.9995C202.563 39.1335 199.429 35.9995 195.563 35.9995Z" fill="white"/>
<path d="M129.608 66.5962H110.05C109.498 66.5962 109.05 67.0439 109.05 67.5962V141.673C109.05 142.226 109.498 142.673 110.05 142.673H129.608C130.161 142.673 130.608 142.226 130.608 141.673V67.5962C130.608 67.0439 130.161 66.5962 129.608 66.5962Z" fill="#F4FBFF" stroke="#E2F5FF" stroke-width="2" stroke-dasharray="8 8"/>
<path d="M159.87 66.5962H140.312C139.76 66.5962 139.312 67.0439 139.312 67.5962V141.673C139.312 142.226 139.76 142.673 140.312 142.673H159.87C160.422 142.673 160.87 142.226 160.87 141.673V67.5962C160.87 67.0439 160.422 66.5962 159.87 66.5962Z" fill="#F4FBFF" stroke="#E2F5FF" stroke-width="2" stroke-dasharray="8 8"/>
<path d="M190.133 66.5962H170.575C170.023 66.5962 169.575 67.0439 169.575 67.5962V141.673C169.575 142.226 170.023 142.673 170.575 142.673H190.133C190.685 142.673 191.133 142.226 191.133 141.673V67.5962C191.133 67.0439 190.685 66.5962 190.133 66.5962Z" fill="#F4FBFF" stroke="#E2F5FF" stroke-width="2" stroke-dasharray="8 8"/>
<path d="M131.608 50.6514H108.05V54.4653H131.608V50.6514Z" fill="#B6E5FE"/>
<path d="M160.87 50.6514H137.312V54.4653H160.87V50.6514Z" fill="#B6E5FE"/>
<path d="M191.757 50.6514H168.199V54.4653H191.757V50.6514Z" fill="#B6E5FE"/>
<path d="M206.85 51.5474L213.797 51.465L220.942 53.89L196.774 121.631L189.806 119.517L183.312 115.662L206.85 51.5474Z" fill="white"/>
<path d="M222.423 54.8112L224.602 55.6689L226.379 56.5314L201.915 124.827L199.439 124.316L197.848 122.731L222.423 54.8112Z" fill="white"/>
<path d="M225.822 119.791L216.189 123.646L218.374 129.106L228.007 125.251L225.822 119.791Z" fill="black"/>
<path d="M227.282 123.236L217.424 127.181L221.614 137.652L231.472 133.707L227.282 123.236Z" fill="#D5DADD"/>
<path d="M221.157 138.911C220.951 138.399 221.201 137.817 221.714 137.611L232.034 133.482C232.546 133.277 233.128 133.526 233.334 134.039L247.589 169.664C248.935 173.027 247.3 176.844 243.937 178.189C240.575 179.535 236.758 177.9 235.412 174.537L221.157 138.911Z" fill="#EC2046"/>
<path opacity="0.63" d="M237.583 175.473L225.655 144.146L239.841 174.517L237.583 175.473Z" fill="white"/>
<path d="M45.9587 59.9004V71.5316" stroke="#ADE7FC" stroke-width="5" stroke-linecap="round"/>
<path d="M39.04 64.9443H52.3417" stroke="#ADE7FC" stroke-width="5" stroke-linecap="round"/>
<path d="M21.6313 16.1348V25.0595" stroke="#ADE7FC" stroke-width="3" stroke-linecap="round"/>
<path d="M16.6707 20.3369H26.7931" stroke="#ADE7FC" stroke-width="3" stroke-linecap="round"/>
<path d="M209.137 124.589C229.281 124.349 245.416 107.826 245.177 87.6824C244.938 67.5388 228.415 51.403 208.271 51.642C188.127 51.8811 171.992 68.4046 172.231 88.5482C172.47 108.692 188.993 124.828 209.137 124.589Z" stroke="black" stroke-width="2"/>
</svg>
