<svg width="17" height="17" viewBox="0 0 17 17" fill="none" xmlns="http://www.w3.org/2000/svg">
<path d="M14.2393 10.2069H8.51367C8.20767 9.32967 7.38487 8.69727 6.3989 8.69727C5.4129 8.69727 4.5969 9.32967 4.2909 10.2069H3.28449C2.91049 10.2069 2.60449 10.5129 2.60449 10.8869C2.60449 11.2609 2.91049 11.5669 3.28449 11.5669H4.25691C4.52891 12.5053 5.37891 13.1921 6.40571 13.1921C7.43254 13.1921 8.27567 12.5053 8.54767 11.5669H14.2393C14.6133 11.5669 14.9193 11.2609 14.9193 10.8869C14.9193 10.5129 14.6133 10.2069 14.2393 10.2069ZM6.40571 11.8321C5.91611 11.8321 5.52169 11.4377 5.52169 10.9413C5.52169 10.4449 5.91611 10.0573 6.40571 10.0573C6.89534 10.0573 7.28967 10.4517 7.28967 10.9481C7.28967 11.4445 6.89534 11.8321 6.40571 11.8321Z" fill="#003A60"/>
<path d="M3.24348 6.13373H8.14626C8.43872 7.11972 9.33626 7.84052 10.4175 7.84052C11.4987 7.84052 12.3895 7.11972 12.6887 6.13373H14.1983C14.5723 6.13373 14.8783 5.82773 14.8783 5.45373C14.8783 5.07973 14.5723 4.77373 14.1983 4.77373H12.6887C12.3963 3.79453 11.4919 3.07373 10.4175 3.07373C9.34306 3.07373 8.44546 3.79453 8.15306 4.77373H3.24348C2.86948 4.77373 2.56348 5.07973 2.56348 5.45373C2.56348 5.82773 2.86948 6.13373 3.24348 6.13373ZM10.4175 4.43373C10.9819 4.43373 11.4375 4.88934 11.4375 5.46054C11.4375 6.03174 10.9819 6.48054 10.4175 6.48054C9.85306 6.48054 9.39746 6.02493 9.39746 5.45373C9.39746 4.88253 9.85306 4.43373 10.4175 4.43373Z" fill="#003A60"/>
</svg>
