<svg width="786" height="338" viewBox="0 0 786 338" fill="none" xmlns="http://www.w3.org/2000/svg">
<path d="M241.283 11.3816C240.151 11.5764 237.737 12.2935 235.813 12.9178C233.95 13.5703 230.952 14.0991 229.083 14.1147C224.456 14.1351 223.365 15.3789 221.777 22.2597C221.041 25.3303 220.486 28.1671 220.551 28.5137C220.585 28.9259 222.082 28.4226 223.912 27.5173C228.425 25.3052 237.785 23.5695 245.201 23.638C248.542 23.6623 251.36 23.5265 251.45 23.33C251.78 22.6094 244.625 11.5651 243.517 11.0576C243.393 11.0012 242.353 11.1587 241.283 11.3816Z" fill="#068EB0"/>
<path d="M257.733 29.1915L204.538 37.0321L203.487 35.6559L205.723 34.4439L221.22 27.2276L225.684 23.9048L251.275 23.1017L271.045 28.5794L257.733 29.1915Z" fill="#3BB0D7" stroke="#3AB0D7"/>
<path d="M261.798 28.539C257.297 28.9342 253.073 29.3767 252.341 29.6752C251.546 29.9455 246.495 30.4053 241.012 30.6678C229.375 31.3601 222.857 32.2577 211.849 34.665C207.446 35.6597 203.622 36.3651 203.376 36.2523C203.191 36.1677 205.079 34.9721 207.64 33.609L212.305 31.2287L207.512 33.075C202.415 35.0988 201.722 36.287 204.799 37.697C207.447 38.9095 217.42 40.3871 218.885 39.7902C219.83 39.3516 219.994 40.457 219.861 45.6264C219.502 56.0026 218.048 60.9638 214.995 62.1013C213.926 62.4835 213.044 63.1095 213.017 63.4934C212.939 64.9636 222.308 102.88 222.8 103.106C223.108 103.247 236.904 77.8435 237.264 77.0574C237.414 76.7298 239.89 74.253 239.212 73.9428C237.797 73.2942 239.434 73.2961 236.158 67.2781L236.918 63.5052L239.319 64.6049C241.228 65.4791 242.055 65.4617 243.577 64.4153C246.043 62.7711 249.194 55.8929 250.897 48.2723C252.071 42.9454 252.068 42.627 250.633 43.1584C248.861 43.7736 246.494 42.9267 246.39 41.6903C246.324 41.1845 247.059 41.2045 248.167 41.712C249.706 42.417 250.287 42.2869 251.225 41.0522C252.496 39.4154 253.552 34.5097 253.216 31.5029C253.049 30.0791 253.138 29.7233 253.753 30.0053C254.246 30.2309 254.387 32.1979 254.163 34.314L253.681 38.2935L258.47 36.1287C261.094 34.9531 264.967 33.0022 267.04 31.8912C273.715 28.2123 272.852 27.6584 261.798 28.539ZM242.323 42.6014C241.385 43.836 240.834 43.9007 239.049 43.0829C237.879 42.5471 237.045 41.7684 237.195 41.4409C237.375 41.0478 238.295 41.1524 239.28 41.6036C240.573 42.1957 241.307 42.0565 242.033 41.1212C242.639 40.4479 243.157 40.1303 243.313 40.4396C243.378 40.7863 242.99 41.7971 242.323 42.6014ZM245.615 47.121C245.998 48.7231 245.636 52.4405 245.082 52.1867C244.836 52.0739 244.576 50.5282 244.497 48.7487C244.406 45.6954 245.071 44.7319 245.615 47.121ZM245.112 58.4615C247.127 57.6407 247.867 58.1383 246.533 59.5877C244.894 61.2146 242.223 60.7044 240.331 58.3318C239.4 57.1128 238.835 55.7445 239.045 55.2859C239.375 54.5654 239.899 54.8847 241.327 56.8069L243.189 59.245L245.112 58.4615Z" fill="#036897"/>
<path d="M251.584 43.2588L247.452 58.7388L246.597 59.6833L243.693 63.2532L237.427 62.1648L228.63 53.6807L233.762 35.0951L254.185 30.1961L254.282 37.3677L251.584 43.2588Z" fill="#036897"/>
<path d="M770.089 317.849C558.779 227.2 369.244 232.019 247.453 252.02C115.473 273.696 32.4011 317.378 31.5776 317.817L30.7354 316.235C31.561 315.796 114.84 271.996 247.088 250.265C324.803 237.501 403.832 234.731 482.25 242.022C580.221 251.138 677.302 276.095 770.795 316.203L770.089 317.849Z" fill="#DBEFF9"/>
<path d="M282.316 151.353L232.28 111.731C230.166 110.046 228.798 107.597 228.473 104.913C228.148 102.228 228.891 99.5238 230.542 97.3826C231.396 96.2749 232.467 95.3528 233.69 94.6725C234.912 93.9921 236.26 93.5679 237.651 93.4256C239.043 93.2832 240.449 93.4257 241.784 93.8445C243.118 94.2633 244.354 94.9495 245.415 95.8613L296.127 138.612L328.037 163.29C329.645 162.385 331.494 161.996 333.331 162.178C335.168 162.359 336.904 163.102 338.305 164.305C339.705 165.507 340.701 167.112 341.158 168.901C341.614 170.689 341.509 172.575 340.857 174.302C340.204 176.029 339.036 177.513 337.51 178.552C335.985 179.592 334.177 180.137 332.331 180.113C330.485 180.089 328.691 179.497 327.193 178.419C325.696 177.34 324.566 175.826 323.958 174.083L282.316 151.353Z" fill="#036897"/>
<path d="M238.835 124.403C238.176 124.493 237.506 124.364 236.927 124.037C236.348 123.709 235.892 123.201 235.63 122.589C235.293 121.841 234.73 121.217 234.021 120.804C233.882 120.726 233.739 120.657 233.592 120.597C232.697 120.26 231.896 119.712 231.258 118.999C230.62 118.286 230.163 117.43 229.927 116.503C229.193 113.44 226.839 110.469 224.474 108.178C221.886 105.671 219.123 103.266 217.21 100.213C214.451 95.8074 213.677 89.6249 219.001 85.9496C221.289 84.4216 224.034 83.729 226.774 83.9887C232.508 84.4554 237.251 87.9548 241.756 91.3459L240.628 89.132C245.484 92.9217 251.055 95.6915 257.007 97.2756C255.978 98.2119 256.87 100.084 258.192 100.52C259.514 100.956 260.939 100.497 262.301 100.208C264.017 99.8433 266.139 99.8743 266.816 101.924C266.964 102.418 267.008 102.938 266.946 103.451C266.883 103.964 266.716 104.458 266.453 104.902C261.671 113.411 255.181 120.839 247.391 126.719C245.66 128.024 243.651 129.308 241.498 129.053C239.346 128.797 237.515 126.121 238.835 124.403Z" fill="#E6E6E6"/>
<path d="M199.17 179.71L194.5 157.197L243.588 141.735L236.978 193.558L199.17 179.71Z" fill="#FFB6B6"/>
<path d="M241.192 176.046L194.919 179.987C194.919 179.987 188.838 179.72 188.838 176.046C188.838 172.372 201.852 186.021 197.397 183.191C192.942 180.36 181.196 169.248 182.408 163.187C183.327 158.594 184.245 157.076 184.245 155.998C184.245 154.92 183.327 150.328 183.327 145.735C183.327 143.509 190.479 139.466 188.7 126.419C186.532 110.523 187.292 86.1958 202.615 81.4406L213.637 62.1521C221.234 69.6443 226.161 70.6442 236.327 66.7114L239.948 75.206L248.95 91.6078C248.95 91.6078 264.254 110.96 259.661 121.063C255.069 131.167 241.192 176.046 241.192 176.046Z" fill="#44BCE4"/>
<path d="M335.709 190.176C335.626 173.78 332.91 157.502 327.663 141.967C326.157 137.51 324.445 133.131 322.528 128.83C321.824 127.249 319.409 128.427 320.112 130.008C326.63 144.669 330.754 160.281 332.329 176.247C332.779 180.811 333.013 185.387 333.029 189.975C333.038 191.692 335.717 191.909 335.709 190.176Z" fill="#036897"/>
<path d="M322.249 126.746L323.768 131.251C310.866 129.964 309.318 113.72 300.823 103.93C292.321 94.1504 276.967 90.9226 277.498 77.9718C277.578 76.0985 277.874 74.0018 279.344 72.8322C281.183 71.386 283.87 72.0984 286.03 72.9949C288.31 73.949 290.523 75.0577 292.652 76.3132C293.325 78.1047 293.996 79.8966 294.665 81.689C294.892 82.3037 295.287 82.8419 295.806 83.2414C296.325 83.641 296.947 83.8856 297.599 83.9472C298.251 84.0087 298.907 83.8846 299.492 83.5891C300.077 83.2937 300.566 82.839 300.903 82.2775L300.936 82.2205C326.635 82.1819 329.581 103.289 322.249 126.746Z" fill="#18BCED"/>
<path d="M322.931 131.846C316.618 134.345 311.288 129.022 304.983 126.51C298.67 123.987 291.443 124.307 288.574 118.145C288.316 117.724 288.151 117.254 288.087 116.765C288.023 116.276 288.063 115.779 288.203 115.306C288.71 114.186 290.134 113.88 291.354 113.774C293.054 113.639 294.763 113.656 296.461 113.825C296.872 114.566 297.274 115.314 297.684 116.064C298.38 117.328 299.066 118.593 299.762 119.857C301.019 118.449 302.051 116.854 302.82 115.129C314.448 110.269 319.516 118.908 321.139 130.113L322.931 131.846Z" fill="#18BCED"/>
<path d="M321.181 131.715C327.049 135.128 333.115 130.662 339.725 129.12C346.344 127.57 353.442 128.966 357.199 123.302C357.517 122.925 357.751 122.484 357.887 122.01C358.023 121.536 358.058 121.039 357.99 120.55C357.657 119.367 356.295 118.851 355.104 118.564C353.443 118.177 351.75 117.938 350.047 117.852C349.529 118.523 349.02 119.203 348.502 119.882C347.626 121.029 346.758 122.176 345.881 123.323C344.849 121.742 344.067 120.011 343.564 118.191C332.793 111.648 326.49 119.432 323.211 130.268L321.181 131.715Z" fill="#18BCED"/>
<path d="M321.295 131.95C327.654 129.57 328.04 122.048 331.033 115.956C334.026 109.852 339.601 105.243 337.599 98.7484C337.507 98.2637 337.315 97.8036 337.035 97.398C336.754 96.9923 336.391 96.6502 335.97 96.3937C334.843 95.9018 333.581 96.6296 332.605 97.3693C331.253 98.4092 329.996 99.5678 328.851 100.831C329.042 101.657 329.246 102.482 329.444 103.313C329.776 104.717 330.114 106.115 330.446 107.52C328.569 107.318 326.734 106.827 325.007 106.063C313.121 110.254 315.154 120.061 321.462 129.462L321.295 131.95Z" fill="#18BCED"/>
<path d="M447.303 309.299C448.248 301.631 447.867 293.858 446.177 286.319C445.894 285.054 443.951 285.59 444.234 286.855C445.87 294.221 446.226 301.813 445.288 309.299C445.128 310.583 447.145 310.572 447.303 309.299Z" fill="#CFE7F3"/>
<path d="M450.002 309.801C450.456 303.407 452.055 297.146 454.722 291.318C455.259 290.147 453.523 289.122 452.982 290.301C450.159 296.448 448.467 303.053 447.987 309.801C447.895 311.095 449.91 311.089 450.002 309.801Z" fill="#CFE7F3"/>
<path d="M444.363 309.595C443.778 302.435 441.728 295.473 438.34 289.138C437.728 287.995 435.988 289.011 436.6 290.155C439.825 296.174 441.781 302.79 442.348 309.595C442.454 310.878 444.47 310.889 444.363 309.595Z" fill="#CFE7F3"/>
<path d="M437.622 288.47C436.472 288.051 436.343 286.297 436.075 285.29C435.891 284.516 435.595 283.773 435.197 283.085C434.739 282.399 434.217 281.759 433.637 281.173C433.162 280.739 432.777 280.216 432.502 279.633C432.418 279.41 432.394 279.169 432.434 278.933C432.472 278.832 432.5 278.727 432.518 278.621L432.533 278.586C432.597 278.463 432.501 278.481 432.246 278.64C432.247 278.656 432.734 278.925 432.785 278.964C434.176 280.053 435.241 281.504 435.861 283.159C436.48 284.814 436.632 286.608 436.298 288.343C436.037 289.609 437.979 290.15 438.241 288.879C438.68 286.715 438.496 284.471 437.71 282.408C436.924 280.345 435.569 278.547 433.802 277.224C433.345 276.846 432.771 276.641 432.178 276.645C431.824 276.683 431.488 276.825 431.213 277.053C430.939 277.281 430.737 277.585 430.634 277.926C430.462 278.388 430.389 278.881 430.42 279.373C430.451 279.865 430.586 280.345 430.815 280.781C431.652 282.45 433.385 283.407 433.965 285.244C434.608 287.282 434.784 289.573 437.086 290.413C437.343 290.482 437.618 290.446 437.849 290.315C438.081 290.183 438.252 289.966 438.325 289.709C438.391 289.452 438.354 289.179 438.223 288.948C438.092 288.717 437.876 288.546 437.622 288.47Z" fill="#CFE7F3"/>
<path d="M445.7 285.777C444.505 285.344 444.39 283.723 444.067 282.68C443.473 281.122 442.587 279.692 441.455 278.468C440.999 277.975 440.674 277.375 440.51 276.724C440.491 276.599 440.488 276.472 440.5 276.346C440.513 276.225 440.614 276.038 440.597 275.928L440.612 275.893C440.675 275.77 440.579 275.788 440.325 275.947C440.383 275.969 440.441 275.994 440.496 276.023C440.648 276.153 440.84 276.25 440.999 276.377C442.277 277.406 443.265 278.75 443.864 280.278C444.549 281.982 444.727 283.847 444.377 285.65C444.116 286.916 446.058 287.457 446.32 286.186C446.748 284.072 446.583 281.881 445.841 279.856C445.1 277.831 443.812 276.051 442.12 274.713C441.712 274.354 441.221 274.102 440.692 273.978C440.338 273.917 439.975 273.967 439.651 274.121C439.327 274.276 439.06 274.528 438.887 274.842C438.648 275.296 438.51 275.797 438.484 276.309C438.457 276.822 438.543 277.334 438.734 277.811C439.447 279.64 441.21 280.803 441.922 282.622C442.298 283.585 442.455 284.617 442.865 285.569C443.073 286.071 443.385 286.523 443.782 286.894C444.178 287.265 444.65 287.547 445.164 287.72C446.385 288.163 446.912 286.216 445.7 285.777Z" fill="#CFE7F3"/>
<path d="M454.666 290.351C453.888 288.913 454.976 287.206 455.427 285.827C455.913 284.342 455.84 282.79 456.188 281.284C456.283 280.67 456.594 280.111 457.064 279.705C457.191 279.608 457.597 279.498 457.278 279.453C457.044 279.42 457.157 279.459 457.22 279.684C457.313 280.027 457.376 280.377 457.409 280.731C457.562 282.286 457.342 283.855 456.767 285.308C456.153 286.89 455.117 288.274 453.773 289.31C453.549 289.451 453.386 289.672 453.319 289.928C453.252 290.184 453.285 290.456 453.412 290.689C453.548 290.918 453.769 291.085 454.027 291.152C454.285 291.22 454.559 291.183 454.79 291.05C456.421 289.826 457.702 288.197 458.508 286.324C459.313 284.451 459.615 282.4 459.382 280.375C459.252 279.361 459.065 278.007 457.953 277.61C456.865 277.221 455.759 278.01 455.114 278.842C453.908 280.395 454.132 282.418 453.765 284.241C453.274 286.685 451.578 288.876 452.926 291.368C453.543 292.509 455.283 291.493 454.666 290.351Z" fill="#CFE7F3"/>
<path d="M446.138 278.682C445.303 277.15 446.126 275.432 446.542 273.895C446.797 272.372 447.137 270.865 447.563 269.381C447.763 268.823 448.127 268.339 448.606 267.99C448.702 267.93 448.802 267.875 448.905 267.828C448.895 267.76 448.599 267.786 448.61 267.763C448.638 267.905 448.679 268.044 448.732 268.179C448.813 268.528 448.868 268.883 448.898 269.241C449.016 270.738 448.791 272.242 448.239 273.639C447.625 275.221 446.59 276.605 445.246 277.641C445.021 277.782 444.859 278.003 444.792 278.259C444.725 278.515 444.758 278.787 444.884 279.02C445.02 279.249 445.241 279.416 445.499 279.483C445.757 279.551 446.032 279.514 446.263 279.381C447.882 278.167 449.157 276.553 449.964 274.697C450.771 272.841 451.082 270.807 450.866 268.795C450.748 267.834 450.606 266.575 449.667 266.042C448.637 265.458 447.454 266.189 446.744 266.949C445.38 268.411 445.219 270.447 444.845 272.313C444.342 274.821 443.047 277.221 444.398 279.699C445.019 280.838 446.76 279.822 446.138 278.682Z" fill="#CFE7F3"/>
<path d="M452.16 297.931C452.884 296.754 454.353 296.635 455.596 296.414C456.375 296.288 457.14 296.091 457.883 295.826C458.689 295.526 459.465 295.146 460.279 294.866C460.959 294.562 461.721 294.494 462.444 294.675C462.484 294.689 462.939 294.939 462.957 294.93C463.022 294.895 462.847 294.665 462.862 294.664C462.852 294.664 462.782 294.768 462.766 294.779C462.459 294.991 462.203 295.297 461.896 295.519C460.637 296.422 459.182 297.012 457.65 297.24C455.953 297.505 454.216 297.297 452.629 296.638C452.397 296.512 452.125 296.479 451.869 296.546C451.612 296.613 451.392 296.775 451.251 297C451.118 297.231 451.081 297.505 451.149 297.763C451.216 298.021 451.383 298.242 451.612 298.378C453.534 299.206 455.644 299.504 457.72 299.24C459.796 298.976 461.764 298.16 463.418 296.877C464.239 296.231 465.149 295.369 464.804 294.217C464.484 293.15 463.151 292.679 462.156 292.573C459.987 292.341 458.078 293.811 456.036 294.278C453.904 294.766 451.689 294.851 450.42 296.914C449.739 298.022 451.481 299.036 452.16 297.931Z" fill="#CFE7F3"/>
<path d="M446.87 285.674C446.085 283.849 445.997 281.8 446.622 279.915C447.246 278.03 448.54 276.439 450.259 275.444C450.337 275.399 450.415 275.355 450.495 275.314C450.643 275.288 450.665 275.254 450.562 275.211C450.727 274.656 450.498 275.091 450.438 275.232C450.255 275.658 450.069 276.084 449.881 276.508C449.461 277.455 449.03 278.397 448.588 279.334C447.676 281.266 446.722 283.18 445.679 285.045C445.045 286.178 446.785 287.195 447.419 286.062C448.429 284.257 449.355 282.404 450.241 280.535C450.674 279.62 451.097 278.701 451.509 277.777C451.69 277.371 451.869 276.964 452.045 276.556C452.293 276.12 452.461 275.644 452.542 275.15C452.541 274.881 452.484 274.614 452.375 274.368C452.265 274.122 452.104 273.902 451.903 273.723C451.703 273.543 451.467 273.407 451.21 273.325C450.954 273.242 450.683 273.215 450.415 273.244C449.423 273.501 448.516 274.013 447.783 274.728C446.299 275.966 445.203 277.606 444.626 279.45C443.908 281.845 444.087 284.419 445.13 286.691C445.266 286.92 445.487 287.087 445.745 287.154C446.003 287.222 446.277 287.185 446.508 287.052C446.734 286.913 446.898 286.692 446.965 286.435C447.032 286.179 446.998 285.906 446.87 285.674Z" fill="#CFE7F3"/>
<path d="M439.663 295.552C438.216 296.201 436.45 294.962 435.154 294.431C433.705 293.836 432.155 293.778 430.678 293.305C430.122 293.154 429.636 292.815 429.302 292.345C429.257 292.25 429.204 292.159 429.144 292.072C429.195 292.084 428.927 292.25 429.043 292.226C429.146 292.205 429.249 292.18 429.353 292.161C429.727 292.101 430.105 292.071 430.483 292.069C432.1 292.047 433.696 292.431 435.125 293.187C436.554 293.943 437.769 295.046 438.66 296.395C439.359 297.483 441.104 296.473 440.4 295.378C439.288 293.666 437.747 292.274 435.929 291.343C434.112 290.412 432.082 289.974 430.042 290.072C429.032 290.137 427.797 290.248 427.278 291.258C426.748 292.289 427.52 293.55 428.289 294.236C429.765 295.553 431.804 295.483 433.601 296.01C434.8 296.361 435.88 297.014 437.06 297.419C438.236 297.857 439.537 297.811 440.68 297.292C440.909 297.156 441.075 296.935 441.143 296.677C441.211 296.419 441.174 296.145 441.041 295.913C440.902 295.687 440.681 295.524 440.424 295.457C440.168 295.389 439.895 295.423 439.663 295.552Z" fill="#CFE7F3"/>
<path d="M727.648 314.887C728.592 307.219 728.211 299.446 726.521 291.907C726.239 290.642 724.296 291.177 724.578 292.443C726.214 299.808 726.571 307.401 725.633 314.887C725.473 316.171 727.49 316.159 727.648 314.887Z" fill="#DBEFF9"/>
<path d="M730.346 315.389C730.8 308.995 732.398 302.734 735.066 296.905C735.603 295.735 733.866 294.71 733.326 295.888C730.502 302.035 728.81 308.641 728.331 315.389C728.239 316.683 730.254 316.677 730.346 315.389Z" fill="#DBEFF9"/>
<path d="M724.707 315.182C724.122 308.023 722.072 301.06 718.685 294.726C718.072 293.582 716.332 294.599 716.945 295.743C720.169 301.762 722.125 308.378 722.692 315.182C722.798 316.466 724.814 316.477 724.707 315.182Z" fill="#DBEFF9"/>
<path d="M717.965 294.057C716.816 293.638 716.686 291.885 716.418 290.877C716.235 290.103 715.939 289.361 715.54 288.673C715.083 287.987 714.56 287.347 713.981 286.761C713.506 286.326 713.12 285.803 712.846 285.221C712.761 284.998 712.738 284.756 712.778 284.521C712.816 284.42 712.844 284.315 712.862 284.208L712.877 284.174C712.94 284.051 712.845 284.069 712.59 284.228C712.59 284.243 713.077 284.513 713.129 284.551C714.52 285.64 715.585 287.092 716.204 288.747C716.824 290.402 716.976 292.195 716.642 293.93C716.381 295.196 718.323 295.737 718.585 294.466C719.024 292.302 718.839 290.059 718.054 287.996C717.268 285.933 715.913 284.135 714.146 282.811C713.689 282.434 713.114 282.229 712.522 282.233C712.167 282.271 711.832 282.413 711.557 282.641C711.282 282.869 711.081 283.172 710.978 283.514C710.805 283.976 710.733 284.468 710.764 284.96C710.795 285.452 710.929 285.932 711.158 286.369C711.996 288.037 713.729 288.995 714.309 290.831C714.952 292.87 715.127 295.161 717.43 296.001C717.687 296.069 717.961 296.034 718.193 295.902C718.425 295.771 718.596 295.553 718.669 295.297C718.734 295.039 718.698 294.767 718.567 294.536C718.435 294.304 718.22 294.133 717.965 294.057Z" fill="#DBEFF9"/>
<path d="M726.044 291.365C724.849 290.931 724.734 289.311 724.411 288.268C723.817 286.71 722.931 285.28 721.799 284.056C721.343 283.562 721.019 282.963 720.854 282.312C720.836 282.187 720.832 282.06 720.845 281.934C720.857 281.813 720.958 281.626 720.941 281.516L720.956 281.481C721.019 281.358 720.924 281.376 720.669 281.535C720.728 281.557 720.785 281.582 720.84 281.611C720.992 281.741 721.184 281.838 721.343 281.965C722.621 282.993 723.609 284.338 724.208 285.865C724.894 287.569 725.072 289.435 724.721 291.238C724.46 292.503 726.402 293.045 726.664 291.773C727.093 289.66 726.927 287.469 726.186 285.443C725.444 283.418 724.156 281.638 722.464 280.301C722.056 279.942 721.565 279.69 721.036 279.566C720.683 279.504 720.319 279.554 719.995 279.709C719.672 279.864 719.404 280.116 719.231 280.429C718.992 280.884 718.854 281.384 718.828 281.897C718.802 282.41 718.887 282.922 719.078 283.398C719.791 285.228 721.555 286.39 722.266 288.21C722.643 289.173 722.799 290.204 723.209 291.157C723.417 291.659 723.729 292.11 724.126 292.481C724.522 292.852 724.994 293.134 725.508 293.308C726.73 293.751 727.256 291.804 726.044 291.365Z" fill="#DBEFF9"/>
<path d="M735.009 295.938C734.232 294.5 735.319 292.794 735.771 291.415C736.257 289.93 736.184 288.378 736.531 286.871C736.627 286.258 736.937 285.698 737.407 285.292C737.535 285.195 737.94 285.086 737.621 285.04C737.387 285.007 737.501 285.047 737.564 285.271C737.656 285.615 737.719 285.965 737.753 286.319C737.906 287.874 737.686 289.443 737.11 290.896C736.496 292.478 735.461 293.862 734.117 294.898C733.892 295.038 733.73 295.259 733.663 295.515C733.596 295.772 733.629 296.044 733.755 296.276C733.892 296.506 734.113 296.672 734.371 296.74C734.629 296.808 734.903 296.771 735.134 296.638C736.764 295.414 738.046 293.785 738.852 291.912C739.657 290.039 739.959 287.988 739.726 285.963C739.596 284.949 739.409 283.595 738.297 283.197C737.209 282.808 736.103 283.597 735.457 284.429C734.252 285.982 734.476 288.006 734.109 289.829C733.618 292.273 731.922 294.463 733.269 296.955C733.887 298.096 735.627 297.08 735.009 295.938Z" fill="#DBEFF9"/>
<path d="M726.482 284.269C725.647 282.738 726.47 281.019 726.886 279.483C727.14 277.96 727.481 276.453 727.906 274.969C728.107 274.411 728.47 273.926 728.95 273.578C729.046 273.517 729.146 273.463 729.249 273.416C729.238 273.348 728.943 273.373 728.954 273.351C728.981 273.493 729.022 273.632 729.076 273.766C729.156 274.116 729.212 274.471 729.241 274.829C729.36 276.326 729.135 277.83 728.583 279.227C727.969 280.809 726.934 282.193 725.59 283.229C725.365 283.369 725.203 283.59 725.135 283.847C725.068 284.103 725.101 284.375 725.228 284.608C725.364 284.837 725.585 285.003 725.843 285.071C726.101 285.139 726.375 285.102 726.607 284.969C728.226 283.755 729.501 282.141 730.308 280.285C731.115 278.429 731.426 276.395 731.21 274.383C731.092 273.422 730.95 272.163 730.01 271.63C728.98 271.046 727.798 271.777 727.088 272.537C725.724 273.999 725.563 276.034 725.189 277.901C724.686 280.409 723.39 282.809 724.742 285.286C725.363 286.425 727.104 285.409 726.482 284.269Z" fill="#DBEFF9"/>
<path d="M732.504 303.519C733.228 302.341 734.697 302.223 735.941 302.001C736.719 301.875 737.484 301.679 738.227 301.414C739.033 301.113 739.809 300.734 740.623 300.453C741.303 300.149 742.065 300.082 742.788 300.262C742.828 300.276 743.284 300.527 743.301 300.517C743.366 300.483 743.191 300.252 743.206 300.252C743.197 300.252 743.126 300.356 743.111 300.367C742.803 300.578 742.547 300.885 742.24 301.107C740.982 302.01 739.526 302.6 737.994 302.828C736.297 303.092 734.56 302.884 732.974 302.226C732.741 302.099 732.469 302.067 732.213 302.134C731.957 302.201 731.736 302.363 731.595 302.587C731.462 302.818 731.425 303.093 731.493 303.351C731.561 303.609 731.727 303.83 731.956 303.966C733.879 304.794 735.988 305.092 738.064 304.828C740.141 304.564 742.108 303.748 743.762 302.465C744.583 301.819 745.494 300.956 745.148 299.805C744.829 298.738 743.495 298.266 742.501 298.16C740.331 297.929 738.422 299.399 736.38 299.866C734.248 300.354 732.033 300.439 730.764 302.502C730.083 303.61 731.826 304.623 732.504 303.519Z" fill="#DBEFF9"/>
<path d="M727.214 291.261C726.43 289.437 726.341 287.388 726.966 285.503C727.591 283.618 728.884 282.027 730.603 281.032C730.681 280.987 730.759 280.943 730.839 280.901C730.987 280.876 731.009 280.842 730.906 280.798C731.071 280.244 730.842 280.679 730.782 280.82C730.599 281.246 730.414 281.671 730.225 282.095C729.805 283.042 729.374 283.985 728.932 284.922C728.02 286.854 727.067 288.768 726.023 290.633C725.39 291.766 727.13 292.783 727.763 291.65C728.774 289.844 729.699 287.992 730.585 286.123C731.018 285.208 731.441 284.289 731.853 283.364C732.034 282.958 732.213 282.552 732.39 282.144C732.637 281.708 732.805 281.232 732.886 280.738C732.886 280.468 732.829 280.202 732.719 279.956C732.609 279.71 732.448 279.49 732.248 279.31C732.047 279.13 731.811 278.995 731.554 278.912C731.298 278.83 731.027 278.802 730.759 278.832C729.768 279.089 728.86 279.6 728.127 280.315C726.643 281.554 725.547 283.193 724.97 285.038C724.252 287.432 724.432 290.006 725.474 292.278C725.61 292.508 725.831 292.674 726.089 292.742C726.347 292.809 726.621 292.773 726.852 292.64C727.078 292.5 727.242 292.28 727.309 292.023C727.376 291.766 727.342 291.493 727.214 291.261Z" fill="#DBEFF9"/>
<path d="M720.006 301.139C718.559 301.789 716.794 300.55 715.498 300.018C714.049 299.424 712.499 299.366 711.022 298.892C710.466 298.741 709.98 298.402 709.646 297.933C709.601 297.838 709.548 297.746 709.488 297.659C709.539 297.671 709.271 297.837 709.387 297.814C709.49 297.793 709.593 297.767 709.697 297.749C710.071 297.689 710.449 297.658 710.827 297.657C712.444 297.634 714.04 298.019 715.469 298.775C716.897 299.531 718.113 300.634 719.004 301.983C719.703 303.07 721.448 302.061 720.744 300.966C719.632 299.253 718.09 297.862 716.273 296.93C714.455 295.999 712.426 295.561 710.386 295.659C709.376 295.724 708.14 295.836 707.622 296.845C707.092 297.876 707.864 299.137 708.633 299.824C710.109 301.141 712.148 301.07 713.945 301.597C715.144 301.949 716.224 302.601 717.404 303.007C718.58 303.444 719.881 303.398 721.023 302.879C721.253 302.743 721.419 302.522 721.487 302.264C721.554 302.006 721.518 301.732 721.385 301.501C721.246 301.275 721.025 301.111 720.768 301.044C720.511 300.977 720.239 301.011 720.006 301.139Z" fill="#DBEFF9"/>
<path d="M336.275 315.717C337.22 308.049 336.839 300.275 335.149 292.737C334.867 291.471 332.923 292.007 333.206 293.272C334.842 300.638 335.198 308.23 334.26 315.717C334.101 317 336.117 316.989 336.275 315.717Z" fill="#DBEFF9"/>
<path d="M338.973 316.218C339.427 309.824 341.026 303.564 343.693 297.735C344.23 296.564 342.494 295.539 341.953 296.718C339.13 302.865 337.438 309.471 336.958 316.218C336.866 317.512 338.882 317.506 338.973 316.218Z" fill="#DBEFF9"/>
<path d="M333.335 316.012C332.75 308.853 330.7 301.89 327.312 295.556C326.7 294.412 324.96 295.428 325.572 296.573C328.796 302.591 330.753 309.207 331.32 316.012C331.426 317.295 333.442 317.306 333.335 316.012Z" fill="#DBEFF9"/>
<path d="M326.593 294.887C325.443 294.468 325.314 292.715 325.046 291.707C324.862 290.933 324.567 290.19 324.168 289.502C323.71 288.817 323.188 288.177 322.608 287.591C322.133 287.156 321.748 286.633 321.473 286.05C321.389 285.827 321.365 285.586 321.406 285.351C321.443 285.249 321.472 285.145 321.49 285.038L321.505 285.003C321.568 284.88 321.472 284.898 321.218 285.057C321.218 285.073 321.705 285.342 321.756 285.381C323.148 286.47 324.212 287.922 324.832 289.576C325.452 291.231 325.603 293.025 325.269 294.76C325.008 296.026 326.95 296.567 327.212 295.296C327.651 293.132 327.467 290.888 326.681 288.825C325.895 286.762 324.54 284.964 322.773 283.641C322.317 283.263 321.742 283.059 321.149 283.062C320.795 283.101 320.459 283.243 320.185 283.47C319.91 283.698 319.708 284.002 319.605 284.343C319.433 284.805 319.36 285.298 319.391 285.79C319.422 286.282 319.557 286.762 319.786 287.198C320.623 288.867 322.357 289.824 322.936 291.661C323.579 293.699 323.755 295.99 326.057 296.83C326.315 296.899 326.589 296.863 326.821 296.732C327.053 296.6 327.223 296.383 327.296 296.126C327.362 295.869 327.325 295.596 327.194 295.365C327.063 295.134 326.847 294.963 326.593 294.887Z" fill="#DBEFF9"/>
<path d="M334.672 292.194C333.477 291.761 333.361 290.14 333.039 289.097C332.445 287.539 331.558 286.11 330.427 284.885C329.971 284.392 329.646 283.792 329.482 283.141C329.463 283.016 329.46 282.889 329.472 282.763C329.485 282.642 329.586 282.455 329.569 282.345L329.583 282.311C329.647 282.188 329.551 282.206 329.296 282.365C329.355 282.386 329.412 282.412 329.467 282.441C329.619 282.57 329.812 282.668 329.97 282.794C331.249 283.823 332.236 285.168 332.836 286.695C333.521 288.399 333.699 290.265 333.348 292.067C333.087 293.333 335.029 293.874 335.291 292.603C335.72 290.489 335.555 288.298 334.813 286.273C334.072 284.248 332.783 282.468 331.091 281.131C330.683 280.772 330.193 280.519 329.663 280.396C329.31 280.334 328.946 280.384 328.623 280.538C328.299 280.693 328.032 280.945 327.858 281.259C327.619 281.713 327.482 282.214 327.455 282.727C327.429 283.239 327.514 283.752 327.706 284.228C328.418 286.058 330.182 287.22 330.893 289.039C331.27 290.003 331.426 291.034 331.837 291.986C332.044 292.488 332.357 292.94 332.753 293.311C333.15 293.682 333.621 293.964 334.136 294.137C335.357 294.58 335.883 292.634 334.672 292.194Z" fill="#DBEFF9"/>
<path d="M343.637 296.768C342.859 295.33 343.947 293.624 344.398 292.244C344.884 290.759 344.811 289.207 345.159 287.701C345.254 287.087 345.565 286.528 346.035 286.122C346.162 286.025 346.568 285.915 346.249 285.87C346.015 285.837 346.128 285.877 346.191 286.101C346.284 286.444 346.347 286.795 346.38 287.148C346.533 288.703 346.313 290.273 345.738 291.725C345.124 293.308 344.089 294.692 342.744 295.727C342.52 295.868 342.357 296.089 342.29 296.345C342.223 296.601 342.256 296.873 342.383 297.106C342.519 297.335 342.74 297.502 342.998 297.57C343.256 297.637 343.53 297.601 343.761 297.467C345.392 296.244 346.674 294.614 347.479 292.741C348.285 290.869 348.586 288.818 348.353 286.792C348.224 285.779 348.037 284.424 346.925 284.027C345.836 283.638 344.73 284.427 344.085 285.259C342.88 286.812 343.103 288.835 342.737 290.658C342.245 293.102 340.549 295.293 341.897 297.785C342.514 298.926 344.254 297.91 343.637 296.768Z" fill="#DBEFF9"/>
<path d="M335.109 285.099C334.274 283.567 335.097 281.849 335.513 280.312C335.768 278.79 336.109 277.283 336.534 275.798C336.734 275.241 337.098 274.756 337.577 274.408C337.673 274.347 337.773 274.293 337.876 274.246C337.866 274.178 337.571 274.203 337.581 274.18C337.609 274.322 337.65 274.461 337.703 274.596C337.784 274.946 337.839 275.301 337.869 275.658C337.987 277.155 337.762 278.66 337.21 280.057C336.596 281.639 335.561 283.023 334.217 284.059C333.992 284.199 333.83 284.42 333.763 284.676C333.696 284.932 333.729 285.205 333.856 285.437C333.992 285.666 334.213 285.833 334.471 285.901C334.729 285.968 335.003 285.932 335.234 285.799C336.853 284.584 338.129 282.97 338.936 281.114C339.743 279.258 340.053 277.224 339.837 275.212C339.719 274.251 339.577 272.993 338.638 272.46C337.608 271.875 336.425 272.606 335.716 273.367C334.351 274.829 334.191 276.864 333.816 278.731C333.314 281.238 332.018 283.638 333.369 286.116C333.991 287.255 335.731 286.239 335.109 285.099Z" fill="#DBEFF9"/>
<path d="M341.132 304.349C341.856 303.171 343.324 303.052 344.568 302.831C345.346 302.705 346.112 302.508 346.854 302.244C347.661 301.943 348.437 301.563 349.251 301.283C349.931 300.979 350.693 300.912 351.415 301.092C351.456 301.106 351.911 301.356 351.929 301.347C351.993 301.312 351.818 301.082 351.833 301.082C351.824 301.082 351.753 301.186 351.738 301.196C351.43 301.408 351.175 301.715 350.868 301.937C349.609 302.839 348.154 303.429 346.622 303.657C344.925 303.922 343.187 303.714 341.601 303.055C341.368 302.929 341.096 302.896 340.84 302.963C340.584 303.03 340.363 303.193 340.222 303.417C340.089 303.648 340.053 303.922 340.12 304.18C340.188 304.438 340.355 304.659 340.584 304.795C342.506 305.623 344.615 305.921 346.692 305.657C348.768 305.393 350.736 304.577 352.39 303.294C353.211 302.648 354.121 301.786 353.776 300.634C353.456 299.567 352.123 299.096 351.128 298.99C348.959 298.759 347.049 300.228 345.007 300.696C342.876 301.184 340.66 301.268 339.392 303.332C338.711 304.439 340.453 305.453 341.132 304.349Z" fill="#DBEFF9"/>
<path d="M335.841 292.091C335.057 290.266 334.969 288.218 335.593 286.332C336.218 284.447 337.512 282.857 339.23 281.861C339.308 281.816 339.387 281.773 339.466 281.731C339.614 281.706 339.637 281.671 339.534 281.628C339.698 281.073 339.47 281.508 339.409 281.649C339.227 282.076 339.041 282.501 338.853 282.925C338.433 283.872 338.002 284.814 337.559 285.751C336.648 287.683 335.694 289.598 334.651 291.462C334.017 292.595 335.757 293.612 336.391 292.479C337.401 290.674 338.327 288.822 339.212 286.952C339.646 286.038 340.068 285.118 340.481 284.194C340.662 283.788 340.841 283.381 341.017 282.973C341.264 282.538 341.432 282.062 341.513 281.567C341.513 281.298 341.456 281.031 341.346 280.786C341.236 280.54 341.076 280.32 340.875 280.14C340.674 279.96 340.438 279.825 340.182 279.742C339.925 279.66 339.654 279.632 339.387 279.661C338.395 279.919 337.488 280.43 336.754 281.145C335.271 282.384 334.175 284.023 333.597 285.867C332.88 288.262 333.059 290.836 334.101 293.108C334.238 293.337 334.458 293.504 334.716 293.571C334.974 293.639 335.249 293.602 335.48 293.469C335.706 293.33 335.869 293.109 335.937 292.852C336.004 292.596 335.97 292.323 335.841 292.091Z" fill="#DBEFF9"/>
<path d="M328.634 301.969C327.187 302.618 325.422 301.38 324.125 300.848C322.676 300.253 321.126 300.195 319.649 299.722C319.094 299.571 318.607 299.232 318.274 298.762C318.228 298.667 318.175 298.576 318.115 298.489C318.167 298.501 317.899 298.667 318.014 298.643C318.117 298.622 318.22 298.597 318.324 298.578C318.698 298.518 319.076 298.488 319.455 298.486C321.071 298.464 322.667 298.848 324.096 299.604C325.525 300.36 326.741 301.464 327.631 302.813C328.33 303.9 330.076 302.89 329.371 301.795C328.259 300.083 326.718 298.691 324.9 297.76C323.083 296.829 321.053 296.391 319.013 296.489C318.003 296.554 316.768 296.665 316.249 297.675C315.719 298.705 316.491 299.967 317.26 300.653C318.736 301.97 320.775 301.9 322.572 302.427C323.772 302.778 324.852 303.431 326.031 303.836C327.207 304.274 328.508 304.228 329.651 303.709C329.88 303.573 330.047 303.352 330.114 303.094C330.182 302.836 330.145 302.562 330.012 302.33C329.873 302.104 329.652 301.941 329.395 301.873C329.139 301.806 328.866 301.84 328.634 301.969Z" fill="#DBEFF9"/>
<path d="M491.558 312.995C496.936 295.173 495.467 275.985 487.439 259.19C486.882 258.02 485.144 259.041 485.699 260.207C491.662 272.84 493.893 286.914 492.129 300.772C491.618 304.731 490.777 308.64 489.615 312.459C489.554 312.714 489.595 312.981 489.728 313.206C489.861 313.431 490.076 313.595 490.328 313.665C490.58 313.734 490.849 313.703 491.078 313.578C491.307 313.453 491.48 313.244 491.558 312.995Z" fill="#DBEFF9"/>
<path d="M494.72 290.457L509.172 271.374L507.295 270.865C507.554 277.359 506.577 283.843 504.415 289.973C502.546 295.252 499.319 302.139 492.823 302.351C491.529 302.393 491.524 304.409 492.823 304.366C499.735 304.14 503.54 297.792 505.785 292.048C508.399 285.303 509.599 278.093 509.31 270.865C509.303 270.647 509.226 270.438 509.091 270.267C508.956 270.096 508.769 269.973 508.559 269.916C508.349 269.86 508.126 269.872 507.923 269.951C507.72 270.03 507.548 270.172 507.432 270.356L492.98 289.44C492.197 290.473 493.946 291.478 494.72 290.457Z" fill="#DBEFF9"/>
<path d="M493.972 282.251L485.41 269.718C485.306 269.553 485.156 269.421 484.979 269.338C484.803 269.255 484.606 269.224 484.412 269.249C484.218 269.275 484.036 269.355 483.886 269.481C483.737 269.606 483.626 269.772 483.568 269.959C481.77 274.671 481.704 279.869 483.383 284.626C485.062 289.383 488.375 293.388 492.733 295.928C492.963 296.052 493.233 296.082 493.484 296.012C493.736 295.941 493.951 295.775 494.083 295.55C494.215 295.324 494.254 295.056 494.192 294.802C494.13 294.548 493.971 294.328 493.75 294.188C489.776 291.871 486.761 288.21 485.25 283.865C483.739 279.519 483.832 274.777 485.511 270.494L483.67 270.735L492.232 283.268C492.959 284.333 494.706 283.326 493.972 282.251Z" fill="#DBEFF9"/>
<path d="M486.431 258.495C484.449 258.397 482.389 258.276 480.731 257.062C480.104 256.599 479.57 256.022 479.157 255.361C478.954 255.045 478.78 254.711 478.638 254.362C478.49 254.029 478.401 253.672 478.374 253.308C478.374 253.405 478.47 253.231 478.377 253.307L478.233 253.422C478.181 253.492 478.105 253.541 478.019 253.558C477.934 253.576 477.845 253.561 477.77 253.517C477.612 253.537 477.721 253.274 477.692 253.742C477.605 254.245 477.603 254.759 477.686 255.262C477.744 255.506 477.851 255.735 478.003 255.936C478.154 256.136 478.345 256.302 478.564 256.424C478.783 256.546 479.025 256.621 479.275 256.645C479.525 256.668 479.776 256.639 480.014 256.559C480.352 256.433 480.678 256.279 480.99 256.1L481.081 256.054C481.192 256.001 481.201 255.997 481.108 256.041C481.185 255.912 481.229 256.167 481.101 256.021L481.186 256.019L481.083 256.013C481.027 256.002 480.975 255.979 480.929 255.945C480.883 255.911 480.846 255.867 480.819 255.817C480.787 255.716 480.782 255.702 480.804 255.773C480.836 255.817 480.837 256.017 480.821 255.823C480.826 255.888 480.826 255.954 480.827 256.019C480.828 256.188 480.817 256.355 480.817 256.524C480.796 256.942 480.887 257.358 481.081 257.729C481.234 257.979 481.452 258.184 481.712 258.32C481.973 258.456 482.265 258.518 482.558 258.501C483.216 258.471 483.588 258.011 484.143 257.761C484.266 257.699 484.406 257.679 484.542 257.705C484.677 257.731 484.8 257.802 484.891 257.905C484.963 257.997 485.008 258.107 485.023 258.223C485.037 258.339 485.019 258.456 484.971 258.563C484.842 258.795 484.808 259.068 484.876 259.324C484.943 259.581 485.106 259.802 485.332 259.941C485.564 260.074 485.838 260.11 486.095 260.042C486.353 259.975 486.574 259.809 486.711 259.58C486.936 259.178 487.051 258.724 487.044 258.264C487.037 257.803 486.909 257.353 486.673 256.958C486.436 256.563 486.1 256.237 485.697 256.014C485.295 255.79 484.84 255.677 484.38 255.686C484.073 255.69 483.769 255.749 483.483 255.861C483.13 255.975 482.806 256.164 482.532 256.414C482.175 256.857 482.421 256.403 482.436 256.494C482.435 256.484 482.795 256.694 482.821 256.712L482.856 256.803C482.831 256.691 482.826 256.694 482.842 256.812C482.841 256.716 482.832 256.62 482.832 256.524C482.866 256.078 482.833 255.63 482.734 255.195C482.651 254.916 482.497 254.665 482.287 254.464C482.077 254.263 481.819 254.12 481.537 254.049C480.995 253.962 480.44 254.072 479.973 254.36C479.795 254.464 479.611 254.559 479.422 254.644C479.588 254.581 479.367 254.665 479.341 254.655C479.218 254.607 479.459 254.651 479.471 254.657C479.541 254.688 479.653 254.836 479.663 254.838C479.619 254.829 479.621 254.673 479.62 254.644C479.596 254.291 479.715 253.939 479.715 253.586C479.727 253.251 479.658 252.919 479.514 252.617C479.369 252.315 479.154 252.053 478.885 251.853C478.598 251.641 478.246 251.535 477.89 251.551C477.533 251.568 477.193 251.706 476.926 251.943C476.013 252.782 476.386 254.155 476.794 255.143C477.249 256.268 477.947 257.278 478.839 258.1C479.731 258.923 480.793 259.538 481.951 259.9C483.412 260.295 484.917 260.5 486.431 260.51C486.698 260.51 486.954 260.404 487.143 260.215C487.332 260.026 487.438 259.77 487.438 259.502C487.438 259.235 487.332 258.979 487.143 258.79C486.954 258.601 486.698 258.495 486.431 258.495Z" fill="#DBEFF9"/>
<path d="M487.287 259.483C487.473 257.599 487.689 255.593 488.887 254.046C489.409 253.379 490.058 252.823 490.797 252.409C491.134 252.216 491.49 252.058 491.86 251.936C492.066 251.869 492.276 251.823 492.485 251.765C492.855 251.664 492.415 251.755 492.604 251.74C492.658 251.735 492.712 251.733 492.766 251.734C492.893 251.742 492.909 251.741 492.814 251.732C492.961 251.648 492.914 251.823 492.849 251.734L492.789 251.69C492.715 251.62 492.665 251.529 492.646 251.429C492.627 251.329 492.639 251.225 492.682 251.133C492.67 251.004 492.895 251.104 492.568 251.053C492.04 250.927 491.494 250.896 490.955 250.961C490.705 251.005 490.467 251.101 490.257 251.243C490.047 251.385 489.87 251.57 489.736 251.786C489.603 252.001 489.516 252.243 489.482 252.494C489.448 252.745 489.468 253.001 489.54 253.244C489.666 253.606 489.815 253.958 489.987 254.3C489.922 254.14 489.992 254.327 490.004 254.368C490.041 254.492 489.977 254.54 490.018 254.396C490.027 254.329 490.047 254.264 490.076 254.203C490.108 254.153 490.15 254.111 490.201 254.08C490.318 254.037 490.32 254.032 490.208 254.065C490.224 254.04 490.445 254.069 490.211 254.059C490.116 254.055 490.021 254.058 489.925 254.053C489.779 254.045 489.634 254.029 489.488 254.022C489.065 253.982 488.639 254.063 488.261 254.257C487.975 254.427 487.749 254.682 487.613 254.985C487.477 255.289 487.438 255.627 487.502 255.954C487.675 256.432 487.893 256.892 488.155 257.328C488.194 257.448 488.195 257.577 488.158 257.697C488.122 257.818 488.049 257.924 487.951 258.002C487.852 258.08 487.732 258.126 487.606 258.134C487.48 258.142 487.355 258.111 487.248 258.046C486.115 257.412 485.097 259.152 486.231 259.786C486.637 260.03 487.103 260.16 487.578 260.16C488.053 260.16 488.519 260.03 488.926 259.786C489.333 259.541 489.665 259.19 489.888 258.771C490.111 258.352 490.215 257.88 490.19 257.405C490.102 256.79 489.875 256.203 489.527 255.688C489.527 255.688 489.42 255.517 489.462 255.531C489.724 255.614 489.331 255.942 489.278 255.997L489.182 256.039C489.294 256.014 489.288 256.013 489.164 256.035C489.256 256.03 489.348 256.031 489.44 256.035C489.902 256.097 490.37 256.081 490.826 255.987C491.101 255.907 491.351 255.759 491.553 255.555C491.755 255.352 491.901 255.101 491.979 254.825C492.079 254.264 491.975 253.685 491.686 253.193C491.655 253.125 491.493 252.754 491.542 252.889C491.536 252.873 491.458 252.619 491.462 252.619C491.562 252.618 491.355 252.966 491.477 252.72C491.618 252.435 491.339 253.018 491.319 252.941C491.311 252.909 491.507 252.92 491.516 252.921C491.869 252.929 492.214 253.054 492.568 253.068C492.912 253.092 493.256 253.029 493.569 252.884C493.881 252.739 494.152 252.517 494.355 252.239C494.564 251.945 494.664 251.587 494.638 251.227C494.613 250.867 494.463 250.527 494.214 250.265C493.392 249.426 492.053 249.721 491.079 250.078C489.977 250.477 488.97 251.099 488.119 251.905C487.186 252.808 486.477 253.916 486.05 255.142C485.614 256.552 485.353 258.01 485.272 259.483C485.274 259.75 485.381 260.005 485.569 260.194C485.758 260.382 486.013 260.489 486.28 260.491C486.545 260.485 486.798 260.377 486.986 260.19C487.173 260.002 487.281 259.749 487.287 259.483Z" fill="#DBEFF9"/>
<path d="M487.199 257.376C486.344 255.767 485.321 254.252 484.148 252.859C483.872 252.531 483.589 252.21 483.297 251.897C483.026 251.647 482.777 251.375 482.551 251.085C482.508 251.013 482.518 250.975 482.494 250.959C482.476 250.889 482.475 250.884 482.49 250.945C482.506 250.985 482.507 251.03 482.493 251.07C482.505 251.15 482.413 251.134 482.502 251.057C482.342 251.195 482.218 251.324 481.967 251.247C481.873 251.218 481.81 251.116 481.738 251.077C481.667 251.04 481.757 251.046 481.738 251.102C481.699 251.218 481.596 251.48 481.532 251.634L483.476 252.17C483.501 252.045 483.593 251.921 483.474 252.065C483.518 252.012 483.566 251.963 483.618 251.919C483.554 251.973 483.571 251.966 483.672 251.899C483.532 251.951 483.821 251.855 483.824 251.854C483.629 251.895 484.091 251.895 483.922 251.859C484.104 251.908 484.271 251.999 484.41 252.127C484.549 252.254 484.655 252.413 484.718 252.59C484.925 253.138 485.014 253.723 484.981 254.307C484.985 254.975 484.916 255.641 484.776 256.294C484.711 256.551 484.748 256.824 484.879 257.055C485.01 257.286 485.225 257.457 485.48 257.533C485.737 257.602 486.011 257.566 486.243 257.435C486.475 257.303 486.646 257.086 486.719 256.83C487.122 254.95 487.314 252.517 486.023 250.928C485.745 250.572 485.385 250.288 484.973 250.101C484.562 249.915 484.111 249.83 483.66 249.856C483.163 249.891 482.691 250.082 482.309 250.401C481.927 250.72 481.655 251.152 481.532 251.634C481.461 251.892 481.496 252.167 481.628 252.399C481.76 252.632 481.979 252.802 482.236 252.873C482.494 252.944 482.769 252.91 483.002 252.778C483.234 252.646 483.405 252.427 483.476 252.17C483.644 251.844 483.733 251.482 483.733 251.115C483.733 250.748 483.646 250.386 483.478 250.06C483.303 249.759 483.034 249.522 482.713 249.386C482.392 249.251 482.035 249.223 481.697 249.308C481.36 249.421 481.065 249.632 480.851 249.915C480.636 250.198 480.512 250.539 480.495 250.894C480.493 251.217 480.555 251.537 480.679 251.836C480.803 252.134 480.985 252.404 481.216 252.631C481.979 253.503 482.793 254.311 483.485 255.247C484.221 256.245 484.881 257.297 485.459 258.393C485.526 258.507 485.614 258.607 485.72 258.687C485.825 258.767 485.945 258.826 486.073 258.859C486.201 258.893 486.335 258.901 486.466 258.883C486.597 258.865 486.723 258.821 486.838 258.755C486.952 258.688 487.052 258.599 487.132 258.494C487.212 258.388 487.27 258.268 487.304 258.14C487.337 258.012 487.345 257.879 487.327 257.748C487.309 257.617 487.266 257.491 487.199 257.376Z" fill="#DBEFF9"/>
<path d="M785.22 316.059H0.779785V317.85H785.22V316.059Z" fill="#DBEFF9"/>
<path d="M431.67 237.956C431.67 236.201 429.625 234.779 427.103 234.779C424.58 234.779 422.536 236.201 422.536 237.956C422.536 239.711 424.58 241.133 427.103 241.133C429.625 241.133 431.67 239.711 431.67 237.956Z" fill="#CFE7F3"/>
<path d="M398.11 248.282C400.633 248.282 402.678 246.86 402.678 245.105C402.678 243.35 400.633 241.928 398.11 241.928C395.588 241.928 393.543 243.35 393.543 245.105C393.543 246.86 395.588 248.282 398.11 248.282Z" fill="#DBEFF9"/>
<path d="M438.621 263.772C441.143 263.772 443.188 262.349 443.188 260.594C443.188 258.839 441.143 257.417 438.621 257.417C436.098 257.417 434.053 258.839 434.053 260.594C434.053 262.349 436.098 263.772 438.621 263.772Z" fill="#DBEFF9"/>
<path d="M450.639 271.078C450.416 271.1 450.19 271.08 449.974 271.019C449.487 270.79 449.07 270.435 448.767 269.99C448.464 269.546 448.287 269.027 448.253 268.49C448.121 267.93 448.163 267.342 448.373 266.806C448.583 266.269 448.951 265.809 449.429 265.487C449.559 265.421 449.699 265.377 449.844 265.357C450.948 265.202 452.016 266.366 452.23 267.944C452.443 269.523 451.731 270.924 450.639 271.078Z" fill="#CFE7F3"/>
<path d="M418.471 255.822C417.373 255.974 416.658 257.376 416.876 258.956C417.094 260.535 418.161 261.693 419.259 261.541C420.358 261.39 421.072 259.987 420.854 258.408C420.637 256.828 419.57 255.671 418.471 255.822Z" fill="#DBEFF9"/>
<path d="M434.034 249.244C433.816 247.665 432.749 246.507 431.651 246.659C430.552 246.81 429.838 248.213 430.056 249.792C430.273 251.371 431.34 252.529 432.439 252.378C433.537 252.226 434.252 250.823 434.034 249.244Z" fill="#DBEFF9"/>
<path d="M410.747 242.141C411.846 241.989 412.56 240.586 412.342 239.007C412.125 237.428 411.058 236.27 409.959 236.422C408.86 236.573 408.146 237.976 408.364 239.555C408.581 241.135 409.648 242.292 410.747 242.141Z" fill="#DBEFF9"/>
<path d="M414.641 265.988C414.632 264.784 413.221 263.819 411.491 263.832C409.761 263.846 408.365 264.832 408.375 266.036C408.384 267.24 409.794 268.205 411.524 268.192C413.255 268.178 414.65 267.192 414.641 265.988Z" fill="#DBEFF9"/>
<path d="M391.673 273.248C393.404 273.235 394.799 272.249 394.79 271.045C394.781 269.841 393.37 268.876 391.64 268.889C389.91 268.903 388.514 269.889 388.524 271.093C388.533 272.297 389.943 273.262 391.673 273.248Z" fill="#DBEFF9"/>
<path d="M419.545 283.66C421.275 283.647 422.671 282.66 422.661 281.456C422.652 280.253 421.242 279.288 419.512 279.301C417.781 279.314 416.386 280.301 416.395 281.505C416.404 282.708 417.815 283.673 419.545 283.66Z" fill="#DBEFF9"/>
<path d="M427.828 288.609C427.675 288.625 427.52 288.613 427.372 288.572C427.036 288.418 426.749 288.176 426.538 287.873C426.328 287.569 426.204 287.215 426.178 286.846C426.084 286.463 426.11 286.059 426.251 285.69C426.392 285.321 426.642 285.004 426.968 284.78C427.057 284.734 427.153 284.703 427.253 284.688C428.009 284.577 428.748 285.369 428.903 286.451C429.058 287.533 428.577 288.497 427.828 288.609Z" fill="#CFE7F3"/>
<path d="M405.68 278.313C404.928 278.423 404.445 279.389 404.603 280.471C404.76 281.554 405.498 282.342 406.251 282.232C407.004 282.123 407.487 281.157 407.329 280.074C407.171 278.992 406.433 278.204 405.68 278.313Z" fill="#DBEFF9"/>
<path d="M416.322 273.718C416.164 272.636 415.426 271.848 414.674 271.957C413.921 272.067 413.438 273.033 413.596 274.116C413.753 275.198 414.491 275.986 415.244 275.877C415.997 275.767 416.48 274.801 416.322 273.718Z" fill="#DBEFF9"/>
<path d="M400.31 268.969C401.063 268.859 401.545 267.893 401.388 266.811C401.23 265.729 400.492 264.94 399.739 265.05C398.986 265.159 398.504 266.126 398.661 267.208C398.819 268.29 399.557 269.078 400.31 268.969Z" fill="#DBEFF9"/>
<path d="M371.019 261.629C371.005 259.874 368.949 258.468 366.427 258.487C363.905 258.506 361.871 259.945 361.884 261.699C361.898 263.454 363.954 264.861 366.476 264.841C368.998 264.822 371.032 263.384 371.019 261.629Z" fill="#DBEFF9"/>
<path d="M337.539 272.213C340.061 272.193 342.095 270.755 342.082 269.001C342.068 267.246 340.012 265.839 337.49 265.858C334.968 265.878 332.934 267.316 332.947 269.071C332.961 270.825 335.017 272.232 337.539 272.213Z" fill="#DBEFF9"/>
<path d="M378.167 287.39C380.689 287.371 382.723 285.932 382.71 284.178C382.696 282.423 380.64 281.016 378.118 281.036C375.596 281.055 373.562 282.493 373.575 284.248C373.589 286.003 375.644 287.409 378.167 287.39Z" fill="#DBEFF9"/>
<path d="M390.242 294.604C390.019 294.628 389.793 294.609 389.577 294.55C389.087 294.325 388.668 293.973 388.362 293.531C388.055 293.088 387.874 292.572 387.836 292.035C387.7 291.475 387.737 290.887 387.943 290.349C388.148 289.811 388.513 289.349 388.988 289.023C389.118 288.955 389.258 288.91 389.403 288.889C390.505 288.726 391.582 289.881 391.808 291.458C392.034 293.035 391.333 294.441 390.242 294.604Z" fill="#CFE7F3"/>
<path d="M357.957 279.596C356.86 279.756 356.157 281.164 356.386 282.742C356.616 284.319 357.692 285.469 358.789 285.309C359.887 285.149 360.59 283.74 360.36 282.163C360.131 280.585 359.055 279.436 357.957 279.596Z" fill="#DBEFF9"/>
<path d="M373.469 272.898C373.24 271.321 372.164 270.171 371.066 270.331C369.969 270.491 369.265 271.899 369.495 273.477C369.725 275.054 370.801 276.204 371.898 276.044C372.996 275.884 373.699 274.476 373.469 272.898Z" fill="#DBEFF9"/>
<path d="M350.128 265.974C351.226 265.814 351.929 264.406 351.699 262.828C351.469 261.251 350.394 260.102 349.296 260.261C348.199 260.421 347.495 261.83 347.725 263.407C347.955 264.985 349.031 266.134 350.128 265.974Z" fill="#DBEFF9"/>
<path d="M399.255 254.347C399.255 267.131 369.007 244.299 343.176 262.268C311.654 284.196 285.301 268.549 285.305 254.347C285.308 241.564 311.709 215.976 343.176 215.976C374.642 215.976 399.255 241.564 399.255 254.347Z" fill="#CFE7F3"/>
<path d="M371.663 239.748C371.663 246.139 358.909 245.947 343.176 245.947C327.442 245.947 314.688 246.139 314.688 239.748C314.688 233.356 327.442 222.801 343.176 222.801C358.909 222.801 371.663 233.356 371.663 239.748Z" fill="#DBEFF9"/>
<path d="M147.11 282.518L147.07 291.489L182.423 295.916L182.483 282.677L147.11 282.518Z" fill="#036897"/>
<path d="M151.931 292.097L151.403 282.531L151.277 280.194L128.618 278.206L128.582 284.932L128.618 285.832L128.565 289.204L128.484 307.035C128.479 307.891 128.748 308.725 129.252 309.417C129.756 310.108 130.467 310.621 131.283 310.879C132.098 311.137 132.975 311.127 133.785 310.852C134.594 310.576 135.295 310.048 135.783 309.346L138.73 305.128L145.68 295.151L152.101 295.177L151.931 292.097Z" fill="#2F2E41"/>
<path d="M303.792 267.906C297.881 283.355 292.884 295.312 290.833 297.354C288.558 299.629 273.153 300.578 254.112 300.838C234.015 301.106 209.869 300.614 192.808 300.148H192.799C179.911 299.79 171.062 299.44 171.062 299.44L171.08 294.497L171.125 282.621L171.134 280.247C171.134 280.247 171.564 280.131 172.352 279.889C173.812 279.468 176.516 278.68 180.063 277.632C191.204 274.336 210.585 268.542 225.211 263.813C230.002 262.255 234.292 260.822 237.606 259.621C241.404 258.26 243.929 257.203 244.493 256.639C247.834 253.379 249.312 256.639 251.426 259.89C253.539 263.15 254.193 259.89 256.96 257.499C259.728 255.108 265.97 258.394 265.97 258.394C265.97 258.394 266.024 256.227 266.114 252.779C266.248 247.683 266.445 239.748 266.633 231.813C266.624 231.804 266.624 231.804 266.633 231.804C266.642 231.454 266.651 231.096 266.66 230.747C270.959 234.482 275.553 237.903 280.13 242.184C283.112 244.969 287.662 249.582 290.904 252.877C291.558 253.549 292.4 254.436 293.063 255.134C296.972 259.101 300.56 263.371 303.792 267.906Z" fill="#E6E6E6"/>
<path d="M158.015 308.285L158.699 317.23L194.295 318.787L193.284 305.586L158.015 308.285Z" fill="#036897"/>
<path d="M163.593 317.443L162.303 307.958L161.981 305.629L139.232 305.477L139.742 312.185L140.074 313.578V316.448L141.435 334.235C141.501 335.088 141.837 335.897 142.395 336.544C142.953 337.192 143.703 337.644 144.536 337.835C145.369 338.026 146.242 337.946 147.026 337.606C147.81 337.266 148.465 336.685 148.896 335.946L157.619 320.989L164.014 320.506L163.593 317.443Z" fill="#2F2E41"/>
<path d="M311.369 305.011C304.186 316.242 215.708 327.222 182.49 320.989C182.552 320.093 182.651 319.189 182.767 318.284C183.26 314.308 184.182 310.251 184.953 306.22C185.275 304.528 185.58 302.835 185.812 301.151C186.932 300.972 185.705 301.088 187.174 300.856C189.035 300.525 190.913 300.289 192.798 300.148H192.807C193.38 300.103 194.025 300.058 194.787 300.005C211.705 298.849 233.244 303.722 248.362 295.437C252.634 293.091 252.903 292.428 253.53 291.684C257.166 287.332 257.515 290.932 260.65 292.49C263.785 294.049 263.212 291.317 264.089 288.935C264.967 286.553 268.845 286.866 271.093 286.517C269.006 284.582 270.376 284.242 266.928 282.585C261.841 280.131 253.413 276.513 247.449 274.104C247.43 274.091 247.408 274.082 247.386 274.077C244.869 273.109 241.323 271.578 239.057 270.62C237.301 269.876 234.238 268.479 233.271 268.112C231.14 267.297 227.459 274.999 225.211 273.665C224.413 273.181 223.804 272.805 223.5 272.626C219.712 270.36 222.685 271.542 222.291 268.793C222.237 268.452 222.389 267.575 222.345 267.279C222.246 266.58 222.479 265.416 222.139 264.995C221.789 264.583 220.634 266.661 219.909 266.965C219.586 267.109 218.314 268.103 217.275 267.995C212.797 267.503 209.752 263.132 208.203 258.753C195.163 253.101 186.547 239.9 184.496 227.576C182.758 217.169 185.848 208.858 188.58 202.006C191.034 195.863 191.795 196.713 194.518 192.325C194.437 191.537 194.437 191.743 194.437 191.796C194.437 191.716 194.419 191.393 194.366 190.337C194.222 187.506 188.217 178.676 188.055 174.78C189.179 173.532 196.11 172.895 197.491 171.941C201.728 168.788 220.992 170.427 225.622 169.54C230.897 168.528 223.51 168.985 227.325 169.54C233.272 170.4 237.949 170.403 242.911 171.567C242.92 181.016 243.481 176.356 242.514 188.608C241.538 200.86 275.553 237.903 280.13 242.184C283.112 244.969 287.662 249.582 290.904 252.877C291.558 253.549 292.4 254.436 293.062 255.134C296.86 259.138 304.571 269.061 304.938 269.652C305.404 270.396 305.601 270.978 305.977 271.694C305.986 271.712 318.543 293.78 311.369 305.011Z" fill="#E6E6E6"/>
<path d="M424.076 208.347L422.243 240.498C422.242 241.314 422.402 242.122 422.714 242.876C423.026 243.63 423.484 244.315 424.061 244.892C424.638 245.469 425.323 245.927 426.077 246.238C426.831 246.55 427.639 246.71 428.455 246.71C446.065 255.682 451.562 255.933 467.34 246.71C468.156 246.71 468.964 246.55 469.718 246.238C470.472 245.927 471.157 245.469 471.734 244.892C472.311 244.315 472.769 243.63 473.081 242.876C473.393 242.122 473.553 241.314 473.552 240.498L471.72 207.568L473.552 198.864C473.553 198.048 473.393 197.24 473.081 196.486C472.769 195.732 472.311 195.047 471.734 194.47C471.157 193.893 470.472 193.435 469.718 193.123C468.964 192.811 468.156 192.651 467.34 192.652H428.455C427.639 192.651 426.831 192.811 426.077 193.123C425.323 193.435 424.638 193.893 424.061 194.47C423.484 195.047 423.026 195.732 422.714 196.486C422.402 197.24 422.242 198.048 422.243 198.864L424.076 208.347Z" fill="#BCD8E7"/>
<path d="M393.84 189.904L391.799 193.986L426.824 214.642L424.076 232.967L389.565 198.455L387.427 202.731L386.75 201.377C386.145 200.168 385.86 198.825 385.921 197.475C385.981 196.125 386.386 194.813 387.097 193.664C387.807 192.514 388.799 191.565 389.98 190.907C391.16 190.249 392.489 189.904 393.84 189.904Z" fill="#BCD8E7"/>
<path d="M434.154 193.11C434.154 198.424 440.714 202.731 448.814 202.731C456.913 202.731 463.474 198.424 463.474 193.11C463.474 192.954 463.464 192.808 463.455 192.652H434.173C434.163 192.808 434.154 192.954 434.154 193.11Z" fill="#DBEFF9"/>
<path d="M452.936 177.888C452.935 176.823 452.512 175.801 451.758 175.048C451.005 174.295 449.983 173.871 448.918 173.87H448.709C447.643 173.871 446.622 174.295 445.869 175.048C445.115 175.801 444.692 176.823 444.69 177.888V205.938H452.936V177.888Z" fill="#BCD6E2"/>
<path d="M294.168 223.057C293.653 222.463 293.019 221.981 292.308 221.642C291.598 221.304 290.824 221.116 290.037 221.09C290.037 221.09 261.593 217.671 257.391 214.784C255.969 214.738 254.581 215.226 253.499 216.15C252.417 217.075 251.719 218.37 251.543 219.782L224.425 224.893C223.144 225.137 222.012 225.88 221.277 226.958C220.543 228.036 220.267 229.361 220.508 230.643C220.75 231.925 221.49 233.059 222.566 233.796C223.642 234.532 224.967 234.812 226.249 234.574L253.228 229.49C253.739 230.685 254.643 231.671 255.79 232.283C256.937 232.895 258.258 233.098 259.536 232.858L289.915 227.133C294.248 226.316 297.057 226.388 294.168 223.057Z" fill="#A8C1CC"/>
<path d="M214.538 178.151L207.983 114.665C207.713 111.975 208.512 109.286 210.207 107.179C211.902 105.073 214.357 103.717 217.043 103.405C218.433 103.243 219.841 103.366 221.181 103.767C222.521 104.167 223.766 104.836 224.839 105.733C225.913 106.63 226.792 107.736 227.424 108.984C228.056 110.232 228.427 111.596 228.514 112.992L233.302 179.147L237.906 219.223C239.677 219.742 241.245 220.795 242.398 222.237C243.55 223.679 244.231 225.441 244.347 227.283C244.463 229.125 244.009 230.959 243.047 232.534C242.085 234.109 240.662 235.351 238.97 236.089C237.278 236.827 235.4 237.026 233.59 236.66C231.781 236.293 230.129 235.379 228.857 234.04C227.586 232.702 226.757 231.005 226.484 229.179C226.211 227.353 226.507 225.488 227.331 223.836L214.538 178.151Z" fill="#036897"/>
<path d="M203.485 128.204C202.96 127.795 202.584 127.225 202.414 126.582C202.245 125.939 202.291 125.258 202.546 124.643C202.846 123.879 202.9 123.04 202.701 122.244C202.66 122.091 202.61 121.94 202.55 121.793C202.166 120.917 202 119.96 202.065 119.006C202.13 118.051 202.424 117.127 202.923 116.31C204.604 113.647 205.088 109.888 205.078 106.595C205.066 102.992 204.859 99.3348 205.711 95.8335C206.939 90.7829 210.826 85.9128 217.174 87.1592C219.865 87.7311 222.277 89.2134 224.004 91.3562C227.672 95.7882 228.477 101.627 229.194 107.22L229.992 104.867C230.668 110.989 232.573 116.912 235.594 122.28C234.205 122.196 233.487 124.143 234.098 125.393C234.709 126.644 236.032 127.344 237.19 128.117C238.649 129.092 240.108 130.633 239.113 132.548C238.862 132.999 238.521 133.394 238.11 133.707C237.699 134.02 237.228 134.245 236.727 134.368C227.296 136.883 217.447 137.421 207.799 135.947C205.656 135.619 203.334 135.076 202.014 133.357C200.694 131.637 201.332 128.458 203.485 128.204Z" fill="#E6E6E6"/>
</svg>
