<svg width="18" height="18" viewBox="0 0 18 18" fill="none" xmlns="http://www.w3.org/2000/svg">
<g clip-path="url(#clip0_73_9247)">
<path d="M15.3437 9.41783C14.9198 8.75727 14.3226 8.22869 13.6166 7.88931C13.455 7.81162 13.2611 7.87964 13.1835 8.04119C13.1058 8.20273 13.1738 8.3966 13.3354 8.47426C14.5656 9.06566 15.3606 10.3293 15.3606 11.6935C15.3606 12.2773 15.2167 12.8562 14.9445 13.3677C14.8603 13.5259 14.9203 13.7225 15.0785 13.8067C15.1271 13.8325 15.1793 13.8448 15.2307 13.8448C15.3468 13.8448 15.4591 13.7823 15.5175 13.6726C15.8394 13.0676 16.0096 12.3832 16.0096 11.6935C16.0096 10.8835 15.7793 10.0966 15.3437 9.41783Z" fill="#5691AE" stroke="#F2F2F2" stroke-width="0.2"/>
<path d="M12.2995 7.47482L12.2776 7.47479C12.0984 7.47479 11.9531 7.62008 11.9531 7.79931C11.9531 7.97854 12.0984 8.12383 12.2776 8.12383L12.2964 8.12386C12.297 8.12386 12.2974 8.12386 12.298 8.12386C12.4765 8.12386 12.6216 7.97958 12.6225 7.80087C12.6233 7.62164 12.4787 7.47567 12.2995 7.47482Z" fill="#5691AE" stroke="#F2F2F2" stroke-width="0.2"/>
<path d="M10.2465 14.9128C9.01621 14.3213 8.2213 13.0577 8.2213 11.6935C8.2213 11.1098 8.36519 10.5309 8.63737 10.0193C8.72155 9.8611 8.66154 9.66457 8.50331 9.58039C8.34514 9.49621 8.14855 9.55621 8.0644 9.71445C7.74244 10.3195 7.57227 11.0039 7.57227 11.6935C7.57227 12.5035 7.80251 13.2904 8.23811 13.9692C8.66203 14.6298 9.25927 15.1583 9.96526 15.4978C10.0106 15.5196 10.0585 15.5299 10.1056 15.5299C10.2265 15.5299 10.3425 15.4621 10.3984 15.3459C10.476 15.1843 10.408 14.9904 10.2465 14.9128Z" fill="#5691AE" stroke="#F2F2F2" stroke-width="0.2"/>
<path d="M11.3042 15.2632L11.2855 15.2632C11.1054 15.2629 10.9603 15.4069 10.9595 15.5862C10.9586 15.7654 11.1033 15.9114 11.2825 15.9122L11.3042 15.9123C11.4834 15.9123 11.6288 15.767 11.6288 15.5878C11.6288 15.4086 11.4834 15.2632 11.3042 15.2632Z" fill="#5691AE" stroke="#F2F2F2" stroke-width="0.2"/>
<path d="M13.2645 6.37685C13.225 6.28273 13.1766 6.19404 13.1203 6.11178H13.9652C14.7883 6.11178 15.458 5.4421 15.458 4.61899C15.458 3.79588 14.7883 3.12621 13.9652 3.12621H11.3664C11.5317 2.886 11.6287 2.59539 11.6287 2.28246C11.6287 1.45935 10.959 0.789673 10.1359 0.789673H2.18517C1.36206 0.789673 0.692383 1.45935 0.692383 2.28246C0.692383 3.10557 1.36206 3.77524 2.18517 3.77524H4.78391C4.6187 4.01545 4.5217 4.30606 4.5217 4.61899C4.5217 4.93193 4.61867 5.22253 4.78391 5.46274H3.93757C3.11446 5.46274 2.44478 6.13242 2.44478 6.95553C2.44478 7.42825 2.66591 7.8501 3.00993 8.12379C2.66591 8.39749 2.44478 8.81933 2.44478 9.29206C2.44478 9.76479 2.66591 10.1866 3.00993 10.4603C2.66591 10.734 2.44478 11.1559 2.44478 11.6286C2.44478 12.1013 2.66591 12.5232 3.00993 12.7969C2.66591 13.0706 2.44478 13.4924 2.44478 13.9651C2.44478 14.7882 3.11446 15.4579 3.93757 15.4579H7.76202C8.76952 16.5355 10.2028 17.2103 11.791 17.2103C14.8329 17.2103 17.3078 14.7355 17.3078 11.6935C17.3078 9.16173 15.5933 7.02312 13.2645 6.37685ZM13.9652 3.77524C14.4305 3.77524 14.8089 4.15376 14.8089 4.61899C14.8089 5.08422 14.4305 5.46274 13.9652 5.46274H11.8883H6.01449C5.54923 5.46274 5.17074 5.08422 5.17074 4.61899C5.17074 4.15376 5.54923 3.77524 6.01449 3.77524H13.9652ZM2.18517 3.12621C1.71991 3.12621 1.34142 2.74769 1.34142 2.28246C1.34142 1.81723 1.71991 1.43871 2.18517 1.43871H10.1359C10.6011 1.43871 10.9796 1.81723 10.9796 2.28246C10.9796 2.74769 10.6011 3.12621 10.1359 3.12621H2.18517ZM3.93757 6.11178H11.8883C12.019 6.11178 12.1442 6.14215 12.2564 6.19654C12.1029 6.18366 11.9478 6.17671 11.791 6.17671C10.2675 6.17671 8.88635 6.79749 7.88702 7.79928H3.93757C3.47234 7.79928 3.09382 7.42076 3.09382 6.95553C3.09382 6.4903 3.47234 6.11178 3.93757 6.11178ZM3.93757 8.44831H7.33252C6.96413 8.95304 6.6793 9.52231 6.49841 10.1358H3.93757C3.47231 10.1358 3.09382 9.75732 3.09382 9.29206C3.09382 8.82683 3.47231 8.44831 3.93757 8.44831ZM3.93757 10.7848H6.34939C6.30016 11.0806 6.27414 11.384 6.27414 11.6935C6.27414 11.9579 6.29325 12.2178 6.32937 12.4723H3.93757C3.47231 12.4723 3.09382 12.0939 3.09382 11.6286C3.09382 11.1633 3.47231 10.7848 3.93757 10.7848ZM3.93757 14.8089C3.47231 14.8089 3.09382 14.4304 3.09382 13.9651C3.09382 13.4999 3.47231 13.1214 3.93757 13.1214H6.46187C6.62562 13.7319 6.89163 14.3009 7.24049 14.8089H3.93757ZM11.791 16.5613C9.10686 16.5613 6.92317 14.3776 6.92317 11.6935C6.92317 9.00944 9.10686 6.82575 11.791 6.82575C14.475 6.82575 16.6587 9.00944 16.6587 11.6935C16.6587 14.3776 14.475 16.5613 11.791 16.5613Z" fill="#5691AE" stroke="#F2F2F2" stroke-width="0.2"/>
</g>
<defs>
<clipPath id="clip0_73_9247">
<rect width="18" height="18" fill="white"/>
</clipPath>
</defs>
</svg>
