<svg width="19" height="19" viewBox="0 0 19 19" fill="none" xmlns="http://www.w3.org/2000/svg">
<path d="M11.1782 7.1899L9.99902 4.80051C9.90524 4.61051 9.71172 4.49023 9.49986 4.49023C9.288 4.49023 9.09448 4.61054 9.0007 4.80051L7.82148 7.1899L5.18464 7.57306C4.97497 7.60353 4.80074 7.7504 4.73528 7.95191C4.66978 8.15341 4.72441 8.37462 4.87611 8.5225L6.78416 10.3824L6.33373 13.0086C6.29792 13.2174 6.38375 13.4285 6.55516 13.553C6.7266 13.6776 6.95383 13.694 7.14138 13.5954L9.49986 12.3554L11.8583 13.5953C12.0469 13.6945 12.2741 13.6767 12.4445 13.5529C12.6159 13.4284 12.7018 13.2174 12.666 13.0085L12.2155 10.3823L14.1236 8.52243C14.2753 8.37455 14.3299 8.15334 14.2644 7.95183C14.1989 7.75033 14.0248 7.60345 13.8151 7.57298L11.1782 7.1899ZM11.2289 9.78942C11.0977 9.9173 11.0379 10.1015 11.0688 10.2821L11.378 12.0851L9.75889 11.2339C9.6778 11.1912 9.58881 11.1699 9.49986 11.1699C9.41091 11.1699 9.32192 11.1912 9.24084 11.2339L7.62168 12.0851L7.93092 10.2821C7.96186 10.1015 7.90201 9.9173 7.77083 9.78942L6.4609 8.51256L8.27117 8.24953C8.45249 8.22318 8.6092 8.10929 8.69028 7.94501L9.49986 6.30462L10.3094 7.94501C10.3905 8.10929 10.5473 8.22318 10.7286 8.24953L12.5388 8.51256L11.2289 9.78942Z" fill="#5691AE"/>
<path d="M9.5 0C4.2691 0 0 4.26943 0 9.5C0 14.7309 4.26943 19 9.5 19C14.7309 19 19 14.7306 19 9.5C19 4.2691 14.7306 0 9.5 0ZM9.5 17.8867C4.87554 17.8867 1.11328 14.1245 1.11328 9.5C1.11328 4.87554 4.87554 1.11328 9.5 1.11328C14.1245 1.11328 17.8867 4.87554 17.8867 9.5C17.8867 14.1245 14.1245 17.8867 9.5 17.8867Z" fill="#5691AE"/>
<path d="M9.5 2.22656C5.50562 2.22656 2.22656 5.50529 2.22656 9.5C2.22656 13.4944 5.50529 16.7734 9.5 16.7734C13.4944 16.7734 16.7734 13.4947 16.7734 9.5C16.7734 5.50562 13.4947 2.22656 9.5 2.22656ZM9.5 15.6602C6.10327 15.6602 3.33984 12.8967 3.33984 9.5C3.33984 6.10327 6.10327 3.33984 9.5 3.33984C12.8967 3.33984 15.6602 6.10327 15.6602 9.5C15.6602 12.8967 12.8967 15.6602 9.5 15.6602Z" fill="#5691AE"/>
</svg>
