<svg width="24" height="18" viewBox="0 0 24 18" fill="none" xmlns="http://www.w3.org/2000/svg">
<path d="M24 5.72486C24.0006 5.83256 23.9804 5.93932 23.9406 6.03902C23.9008 6.13873 23.8421 6.22941 23.768 6.30587L18.968 11.2158C18.8932 11.2917 18.8046 11.3517 18.7071 11.3924C18.6096 11.4331 18.5053 11.4538 18.4 11.4532C18.296 11.4545 18.1927 11.435 18.096 11.3959C17.9486 11.3339 17.8227 11.2284 17.7343 11.0928C17.646 10.9573 17.5992 10.7978 17.6 10.6348V8.17984H10.4C10.1878 8.17984 9.98435 8.09363 9.83432 7.94016C9.68429 7.78669 9.6 7.57855 9.6 7.36152V4.08821C9.6 3.87117 9.68429 3.66303 9.83432 3.50956C9.98435 3.3561 10.1878 3.26988 10.4 3.26988H17.6V0.814897C17.6007 0.653054 17.6482 0.495046 17.7367 0.360854C17.8251 0.226662 17.9505 0.122311 18.0969 0.0609977C18.2433 -0.000315972 18.4042 -0.015839 18.5593 0.016391C18.7143 0.0486209 18.8566 0.127157 18.968 0.242068L23.768 5.15203C23.9158 5.30445 23.9991 5.51018 24 5.72486ZM13.6 9.8165H6.40001V7.36152C6.39922 7.19996 6.3517 7.04225 6.26343 6.90828C6.17516 6.7743 6.0501 6.67005 5.90401 6.60865C5.75832 6.54599 5.59775 6.52887 5.44256 6.55945C5.28736 6.59003 5.14451 6.66695 5.03201 6.7805L0.232013 11.6905C0.157868 11.7669 0.0992079 11.8576 0.0593963 11.9573C0.0195847 12.057 -0.000595342 12.1638 1.33714e-05 12.2715C-0.000595342 12.3792 0.0195847 12.4859 0.0593963 12.5856C0.0992079 12.6853 0.157868 12.776 0.232013 12.8525L5.03201 17.7625C5.10676 17.8383 5.19541 17.8983 5.29288 17.939C5.39035 17.9798 5.49472 18.0004 5.60001 17.9998C5.70495 18.0025 5.80906 17.9801 5.90401 17.9343C6.0501 17.8729 6.17516 17.7687 6.26343 17.6347C6.3517 17.5007 6.39922 17.343 6.40001 17.1814V14.7265H13.6C13.8122 14.7265 14.0157 14.6402 14.1657 14.4868C14.3157 14.3333 14.4 14.1252 14.4 13.9081V10.6348C14.4 10.4178 14.3157 10.2096 14.1657 10.0562C14.0157 9.90271 13.8122 9.8165 13.6 9.8165Z" fill="#5691AE"/>
</svg>
